<svg width="50" height="50" viewBox="0 0 50 50" fill="none" xmlns="http://www.w3.org/2000/svg">
<path d="M40.9665 14.4127H37.7332C37.6006 14.4127 37.4734 14.36 37.3797 14.2662C37.2859 14.1725 37.2332 14.0453 37.2332 13.9127V11.9567H12.7665V13.9127C12.7665 14.0453 12.7139 14.1725 12.6201 14.2662C12.5263 14.36 12.3991 14.4127 12.2665 14.4127H9.0332C8.90059 14.4127 8.77342 14.36 8.67965 14.2662C8.58588 14.1725 8.5332 14.0453 8.5332 13.9127V9C8.5332 8.86739 8.58588 8.74022 8.67965 8.64645C8.77342 8.55268 8.90059 8.5 9.0332 8.5H40.9665C41.0991 8.5 41.2263 8.55268 41.3201 8.64645C41.4139 8.74022 41.4665 8.86739 41.4665 9V13.9127C41.4665 14.0453 41.4139 14.1725 41.3201 14.2662C41.2263 14.36 41.0991 14.4127 40.9665 14.4127ZM38.2332 13.4127H40.4665V9.5H9.5332V13.4127H11.7652V11.4567C11.7652 11.3241 11.8179 11.1969 11.9117 11.1031C12.0054 11.0093 12.1326 10.9567 12.2652 10.9567H37.7332C37.8658 10.9567 37.993 11.0093 38.0868 11.1031C38.1805 11.1969 38.2332 11.3241 38.2332 11.4567V13.4127Z" fill="white"/>
<path d="M37.7336 41.5C37.6459 41.5002 37.5596 41.4772 37.4836 41.4333L35.1863 40.1087L32.8896 41.4333C32.8136 41.4772 32.7274 41.5003 32.6396 41.5003C32.5519 41.5003 32.4656 41.4772 32.3896 41.4333L30.093 40.1087L27.8003 41.4327C27.7243 41.4765 27.6381 41.4997 27.5503 41.4997C27.4625 41.4997 27.3763 41.4765 27.3003 41.4327L25.0003 40.108L22.7036 41.4327C22.6276 41.4765 22.5414 41.4997 22.4536 41.4997C22.3659 41.4997 22.2796 41.4765 22.2036 41.4327L19.9063 40.108L17.6096 41.4327C17.5336 41.4765 17.4474 41.4997 17.3596 41.4997C17.2719 41.4997 17.1856 41.4765 17.1096 41.4327L14.813 40.108L12.5156 41.4327C12.4396 41.4765 12.3535 41.4996 12.2657 41.4997C12.178 41.4997 12.0918 41.4766 12.0158 41.4328C11.9398 41.3889 11.8767 41.3258 11.8327 41.2499C11.7888 41.1739 11.7657 41.0877 11.7656 41V11.4567C11.7656 11.3241 11.8183 11.1969 11.9121 11.1031C12.0058 11.0093 12.133 10.9567 12.2656 10.9567H37.7336C37.8662 10.9567 37.9934 11.0093 38.0872 11.1031C38.1809 11.1969 38.2336 11.3241 38.2336 11.4567V41C38.2334 41.1326 38.1807 41.2596 38.087 41.3534C37.9933 41.4471 37.8662 41.4998 37.7336 41.5ZM30.093 39.0333C30.1806 39.0336 30.2668 39.0566 30.343 39.1L32.6396 40.4253L34.9363 39.1C35.0124 39.0564 35.0986 39.0335 35.1863 39.0335C35.274 39.0335 35.3602 39.0564 35.4363 39.1L37.2363 40.1373V11.9567H12.7696V40.1333L14.5696 39.096C14.6457 39.0524 14.7319 39.0295 14.8196 39.0295C14.9073 39.0295 14.9935 39.0524 15.0696 39.096L17.3663 40.4213L19.663 39.096C19.7391 39.0524 19.8253 39.0295 19.913 39.0295C20.0007 39.0295 20.0868 39.0524 20.163 39.096L22.4603 40.4213L24.757 39.096C24.8331 39.0524 24.9193 39.0295 25.007 39.0295C25.0947 39.0295 25.1808 39.0524 25.257 39.096L27.5536 40.4213L29.851 39.096C29.9253 39.054 30.009 39.0315 30.0943 39.0307L30.093 39.0333Z" fill="white"/>
<path d="M17.3735 24.0094C16.6991 24.0085 16.0526 23.7404 15.5756 23.2638C15.0985 22.7873 14.8297 22.141 14.8281 21.4667C14.8281 21.3341 14.8808 21.2069 14.9746 21.1132C15.0683 21.0194 15.1955 20.9667 15.3281 20.9667C15.4607 20.9667 15.5879 21.0194 15.6817 21.1132C15.7754 21.2069 15.8281 21.3341 15.8281 21.4667C15.8281 21.7722 15.9187 22.0708 16.0884 22.3248C16.2581 22.5788 16.4993 22.7768 16.7815 22.8937C17.0637 23.0107 17.3743 23.0413 17.6739 22.9817C17.9735 22.9222 18.2488 22.7751 18.4648 22.5592C18.6809 22.3432 18.828 22.0681 18.8877 21.7685C18.9474 21.4689 18.9169 21.1583 18.8001 20.876C18.6833 20.5938 18.4854 20.3525 18.2315 20.1827C17.9775 20.0129 17.6789 19.9222 17.3735 19.922C16.8701 19.9222 16.378 19.773 15.9595 19.4935C15.5409 19.2139 15.2146 18.8165 15.022 18.3515C14.8293 17.8865 14.7788 17.3748 14.877 16.8811C14.9752 16.3874 15.2175 15.9339 15.5734 15.578C15.9294 15.2221 16.3828 14.9797 16.8765 14.8816C17.3702 14.7834 17.8819 14.8339 18.3469 15.0265C18.8119 15.2192 19.2093 15.5455 19.4889 15.964C19.7684 16.3826 19.9176 16.8747 19.9175 17.378C19.9175 17.5106 19.8648 17.6378 19.771 17.7316C19.6772 17.8254 19.5501 17.878 19.4175 17.878C19.2849 17.878 19.1577 17.8254 19.0639 17.7316C18.9701 17.6378 18.9175 17.5106 18.9175 17.378C18.9176 17.0725 18.8271 16.7737 18.6574 16.5196C18.4877 16.2655 18.2465 16.0674 17.9642 15.9504C17.6819 15.8334 17.3713 15.8028 17.0716 15.8624C16.7719 15.9219 16.4966 16.0691 16.2805 16.2851C16.0645 16.5012 15.9174 16.7765 15.8578 17.0762C15.7982 17.3759 15.8288 17.6865 15.9458 17.9688C16.0628 18.2511 16.2609 18.4923 16.515 18.662C16.7692 18.8317 17.0679 18.9222 17.3735 18.922C18.0413 18.9328 18.6781 19.2057 19.1466 19.6818C19.6151 20.1579 19.8776 20.7991 19.8776 21.467C19.8776 22.135 19.6151 22.7761 19.1466 23.2522C18.6781 23.7283 18.0413 24.0012 17.3735 24.012V24.0094Z" fill="white"/>
<path d="M17.373 15.83C17.2404 15.83 17.1133 15.7773 17.0195 15.6836C16.9257 15.5898 16.873 15.4626 16.873 15.33V14.7767C16.873 14.6441 16.9257 14.5169 17.0195 14.4231C17.1133 14.3294 17.2404 14.2767 17.373 14.2767C17.5057 14.2767 17.6328 14.3294 17.7266 14.4231C17.8204 14.5169 17.873 14.6441 17.873 14.7767V15.3333C17.8722 15.4654 17.8191 15.5917 17.7254 15.6847C17.6317 15.7778 17.5051 15.83 17.373 15.83Z" fill="white"/>
<path d="M17.373 24.5626C17.2404 24.5626 17.1133 24.5099 17.0195 24.4162C16.9257 24.3224 16.873 24.1952 16.873 24.0626V23.5093C16.873 23.3767 16.9257 23.2495 17.0195 23.1557C17.1133 23.062 17.2404 23.0093 17.373 23.0093C17.5057 23.0093 17.6328 23.062 17.7266 23.1557C17.8204 23.2495 17.873 23.3767 17.873 23.5093V24.0626C17.873 24.1952 17.8204 24.3224 17.7266 24.4162C17.6328 24.5099 17.5057 24.5626 17.373 24.5626Z" fill="white"/>
<path d="M35.149 16.8986H23.209C23.0764 16.8986 22.9492 16.8459 22.8554 16.7522C22.7617 16.6584 22.709 16.5312 22.709 16.3986C22.709 16.266 22.7617 16.1388 22.8554 16.0451C22.9492 15.9513 23.0764 15.8986 23.209 15.8986H35.149C35.2816 15.8986 35.4088 15.9513 35.5025 16.0451C35.5963 16.1388 35.649 16.266 35.649 16.3986C35.649 16.5312 35.5963 16.6584 35.5025 16.7522C35.4088 16.8459 35.2816 16.8986 35.149 16.8986Z" fill="white"/>
<path d="M35.149 20.454H23.209C23.0764 20.454 22.9492 20.4013 22.8554 20.3075C22.7617 20.2138 22.709 20.0866 22.709 19.954C22.709 19.8214 22.7617 19.6942 22.8554 19.6004C22.9492 19.5067 23.0764 19.454 23.209 19.454H35.149C35.2816 19.454 35.4088 19.5067 35.5025 19.6004C35.5963 19.6942 35.649 19.8214 35.649 19.954C35.649 20.0866 35.5963 20.2138 35.5025 20.3075C35.4088 20.4013 35.2816 20.454 35.149 20.454Z" fill="white"/>
<path d="M35.149 24.0093H23.209C23.0764 24.0093 22.9492 23.9566 22.8554 23.8628C22.7617 23.7691 22.709 23.6419 22.709 23.5093C22.709 23.3767 22.7617 23.2495 22.8554 23.1557C22.9492 23.062 23.0764 23.0093 23.209 23.0093H35.149C35.2816 23.0093 35.4088 23.062 35.5025 23.1557C35.5963 23.2495 35.649 23.3767 35.649 23.5093C35.649 23.6419 35.5963 23.7691 35.5025 23.8628C35.4088 23.9566 35.2816 24.0093 35.149 24.0093Z" fill="white"/>
<path d="M35.1488 28.892H14.4668C14.3342 28.892 14.207 28.8394 14.1132 28.7456C14.0195 28.6518 13.9668 28.5246 13.9668 28.392C13.9668 28.2594 14.0195 28.1322 14.1132 28.0385C14.207 27.9447 14.3342 27.892 14.4668 27.892H35.1488C35.2814 27.892 35.4086 27.9447 35.5023 28.0385C35.5961 28.1322 35.6488 28.2594 35.6488 28.392C35.6488 28.5246 35.5961 28.6518 35.5023 28.7456C35.4086 28.8394 35.2814 28.892 35.1488 28.892Z" fill="white"/>
<path d="M35.1488 32.5447H14.4668C14.3342 32.5447 14.207 32.492 14.1132 32.3982C14.0195 32.3045 13.9668 32.1773 13.9668 32.0447C13.9668 31.9121 14.0195 31.7849 14.1132 31.6911C14.207 31.5974 14.3342 31.5447 14.4668 31.5447H35.1488C35.2814 31.5447 35.4086 31.5974 35.5023 31.6911C35.5961 31.7849 35.6488 31.9121 35.6488 32.0447C35.6488 32.1773 35.5961 32.3045 35.5023 32.3982C35.4086 32.492 35.2814 32.5447 35.1488 32.5447Z" fill="white"/>
<path d="M35.1488 36.2H14.4668C14.3342 36.2 14.207 36.1473 14.1132 36.0536C14.0195 35.9598 13.9668 35.8326 13.9668 35.7C13.9668 35.5674 14.0195 35.4402 14.1132 35.3465C14.207 35.2527 14.3342 35.2 14.4668 35.2H35.1488C35.2814 35.2 35.4086 35.2527 35.5023 35.3465C35.5961 35.4402 35.6488 35.5674 35.6488 35.7C35.6488 35.8326 35.5961 35.9598 35.5023 36.0536C35.4086 36.1473 35.2814 36.2 35.1488 36.2Z" fill="white"/>
</svg>
