<svg width="50" height="50" viewBox="0 0 50 50" fill="none" xmlns="http://www.w3.org/2000/svg">
<path d="M28.5645 40.1758C28.4277 40 28.4082 39.707 28.5254 39.5215H8.21289V14.5801H38.0762V26.1621C38.418 26.0254 38.7988 26.0352 39.082 26.2793V14.0723C39.082 13.7988 38.8574 13.5742 38.584 13.5742H7.70508C7.43164 13.5742 7.20703 13.7988 7.20703 14.0723V40.0195C7.20703 40.293 7.43164 40.5176 7.70508 40.5176H28.8965C28.7793 40.4199 28.6719 40.3027 28.5645 40.1758Z" fill="white"/>
<path d="M38.584 14.5801H7.70508C7.43164 14.5801 7.20703 14.3555 7.20703 14.082C7.20703 14.0039 7.22656 13.9355 7.25586 13.8672L10.127 7.8125C10.2051 7.63672 10.3906 7.5293 10.5762 7.5293H35.7227C35.918 7.5293 36.0937 7.63672 36.1719 7.8125L39.043 13.8672C39.1602 14.1211 39.0527 14.4141 38.7988 14.5312C38.7305 14.5605 38.6621 14.5801 38.584 14.5801ZM8.49609 13.584H37.793L35.4004 8.52539H10.8887L8.49609 13.584Z" fill="white"/>
<path d="M27.2168 22.1582C27.1485 22.1582 27.0703 22.1387 27.0117 22.1094L25.1856 21.2695L23.3594 22.1094C23.2227 22.168 23.0762 22.168 22.9395 22.1094L21.1133 21.2695L19.2871 22.1094C19.0332 22.2266 18.7402 22.1191 18.623 21.8652C18.5938 21.7969 18.5742 21.7285 18.5742 21.6602V14.082C18.5742 13.8086 18.7988 13.584 19.0723 13.584H27.2168C27.4902 13.584 27.7149 13.8086 27.7149 14.082V21.6602C27.7149 21.9336 27.4902 22.1582 27.2168 22.1582ZM21.1133 20.2246C21.1816 20.2246 21.2598 20.2441 21.3184 20.2734L23.1445 21.1133L24.9707 20.2734C25.1074 20.2148 25.2539 20.2148 25.3906 20.2734L26.7188 20.8789V14.5801H19.5801V20.8789L20.9082 20.2734C20.9668 20.2344 21.0352 20.2246 21.1133 20.2246Z" fill="white"/>
<path d="M27.2168 14.5801H19.082C18.8086 14.5801 18.584 14.3555 18.584 14.082C18.584 14.0527 18.584 14.0234 18.5937 13.9941L19.6387 7.93945C19.6777 7.69531 19.8926 7.51953 20.127 7.51953H26.1816C26.4258 7.51953 26.6309 7.69531 26.6699 7.93945L27.7148 13.9941C27.7637 14.2676 27.5781 14.5215 27.3047 14.5703C27.2754 14.5801 27.2461 14.5801 27.2168 14.5801ZM19.668 13.584H26.6211L25.752 8.52539H20.5371L19.668 13.584Z" fill="white"/>
<path d="M20.8301 37.168H11.1426C10.8691 37.168 10.6445 36.9434 10.6445 36.6699V29.5605C10.6445 29.2871 10.8691 29.0625 11.1426 29.0625H20.8301C21.1035 29.0625 21.3281 29.2871 21.3281 29.5605V36.6699C21.3379 36.9434 21.1133 37.168 20.8301 37.168ZM11.6504 36.1719H20.3418V30.0586H11.6504V36.1719Z" fill="white"/>
<path d="M18.3594 32.3926H13.623C13.3496 32.3926 13.125 32.168 13.125 31.8945C13.125 31.6211 13.3496 31.3965 13.623 31.3965H18.3594C18.6328 31.3965 18.8574 31.6211 18.8574 31.8945C18.8574 32.168 18.6328 32.3926 18.3594 32.3926Z" fill="white"/>
<path d="M18.3594 34.8243H13.623C13.3496 34.8243 13.125 34.5997 13.125 34.3262C13.125 34.0528 13.3496 33.8282 13.623 33.8282H18.3594C18.6328 33.8282 18.8574 34.0528 18.8574 34.3262C18.8574 34.5997 18.6328 34.8243 18.3594 34.8243Z" fill="white"/>
<path fill-rule="evenodd" clip-rule="evenodd" d="M34.3871 24.2038C34.4801 24.1716 34.5813 24.1716 34.6743 24.2038L44.1079 27.4655C44.2691 27.5213 44.3835 27.6653 44.4013 27.835L43.9643 27.8809C44.4013 27.835 44.4014 27.8352 44.4014 27.8355L44.4015 27.8363L44.4017 27.8388L44.4026 27.8471C44.4032 27.8541 44.4042 27.8642 44.4054 27.8771C44.4077 27.9029 44.4109 27.9404 44.4146 27.9887C44.4219 28.0855 44.431 28.2261 44.4386 28.4052C44.4538 28.7635 44.4631 29.2767 44.4401 29.9031C44.394 31.1544 44.2185 32.8649 43.6986 34.6964C42.6571 38.3653 40.2214 42.5474 34.6732 44.4489C34.5809 44.4805 34.4808 44.4806 34.3886 44.449C28.84 42.5524 26.4042 38.3701 25.3628 34.7C24.8429 32.8679 24.6674 31.1565 24.6213 29.9045C24.5983 29.2777 24.6076 28.7642 24.6228 28.4057C24.6304 28.2263 24.6395 28.0857 24.6468 27.9889C24.6505 27.9405 24.6537 27.903 24.656 27.8771C24.6572 27.8642 24.6581 27.8542 24.6588 27.8471L24.6597 27.8388L24.6599 27.8364L24.66 27.8356C24.66 27.8353 24.66 27.835 25.0971 27.8809L24.66 27.835C24.6778 27.6653 24.7922 27.5213 24.9535 27.4655L34.3871 24.2038ZM25.5133 28.2019C25.5091 28.2705 25.5048 28.3511 25.5009 28.443C25.4865 28.7813 25.4775 29.2715 25.4996 29.8721C25.5439 31.0749 25.7126 32.7132 26.2083 34.4601C27.1891 37.9162 29.4374 41.7706 34.5305 43.5679C39.624 41.7659 41.8723 37.9113 42.8531 34.4564C43.3488 32.7101 43.5175 31.0728 43.5618 29.8708C43.5839 29.2705 43.5749 28.7807 43.5605 28.4426C43.5566 28.3509 43.5523 28.2704 43.5481 28.2019L34.5307 25.0841L25.5133 28.2019Z" fill="white"/>
<path fill-rule="evenodd" clip-rule="evenodd" d="M34.388 26.9771C34.4809 26.9451 34.5818 26.9451 34.6746 26.9771L41.4129 29.3014C41.5742 29.357 41.6888 29.5011 41.7066 29.6708L41.2696 29.7168C41.7066 29.6708 41.7067 29.671 41.7067 29.6713L41.7068 29.672L41.707 29.6739L41.7076 29.6803C41.7081 29.6856 41.7088 29.6931 41.7097 29.7026C41.7114 29.7217 41.7138 29.7491 41.7164 29.7842C41.7218 29.8546 41.7284 29.9564 41.7339 30.0858C41.745 30.3446 41.7518 30.7145 41.7353 31.1655C41.7024 32.0662 41.5763 33.2982 41.2016 34.6183C40.4507 37.2643 38.6887 40.2917 34.6736 41.6658C34.5813 41.6974 34.4811 41.6973 34.3889 41.6657C30.3787 40.2915 28.6169 37.2642 27.8647 34.6185C27.4895 33.2984 27.3625 32.0665 27.3287 31.1659C27.3118 30.7149 27.3183 30.345 27.3291 30.0863C27.3345 29.9568 27.341 29.8551 27.3463 29.7847C27.3489 29.7495 27.3512 29.7222 27.3529 29.7031C27.3538 29.6936 27.3545 29.6861 27.355 29.6808L27.3556 29.6744L27.3558 29.6724L27.3559 29.6717C27.3559 29.6715 27.356 29.6713 27.793 29.7168L27.356 29.6713C27.3737 29.5013 27.4882 29.3571 27.6497 29.3014L34.388 26.9771ZM28.2112 30.0374C28.2098 30.0642 28.2085 30.0927 28.2072 30.123C28.1972 30.3616 28.1911 30.708 28.207 31.133C28.2389 31.9844 28.3591 33.1432 28.7101 34.3781C29.4015 36.81 30.9761 39.5099 34.5314 40.7844C38.0916 39.5099 39.666 36.8099 40.3561 34.3783C40.7066 33.1435 40.8258 31.9847 40.857 31.1334C40.8725 30.7084 40.866 30.362 40.8558 30.1234C40.8545 30.093 40.8532 30.0644 40.8518 30.0375L34.5313 27.8574L28.2112 30.0374Z" fill="white"/>
<path fill-rule="evenodd" clip-rule="evenodd" d="M37.9724 31.7976C38.1608 31.9507 38.1894 32.2274 38.0364 32.4158L34.4817 36.7908C34.3993 36.8922 34.276 36.9517 34.1452 36.9531C34.0145 36.9545 33.89 36.8976 33.8055 36.7979L31.7352 34.3565C31.5782 34.1714 31.601 33.8941 31.7861 33.7371C31.9712 33.5801 32.2485 33.6029 32.4055 33.7881L34.1334 35.8257L37.3542 31.8616C37.5073 31.6732 37.7841 31.6446 37.9724 31.7976Z" fill="white"/>
</svg>
