<svg width="50" height="50" viewBox="0 0 50 50" fill="none" xmlns="http://www.w3.org/2000/svg">
<path d="M38.748 37.144H11.252C10.5223 37.1432 9.82277 36.8531 9.30682 36.3371C8.79087 35.8212 8.50071 35.1216 8.5 34.392V33.6666C8.5 33.534 8.55268 33.4068 8.64645 33.3131C8.74022 33.2193 8.86739 33.1666 9 33.1666H41C41.1326 33.1666 41.2598 33.2193 41.3536 33.3131C41.4473 33.4068 41.5 33.534 41.5 33.6666V34.3926C41.4991 35.1222 41.2089 35.8216 40.6929 36.3374C40.177 36.8532 39.4775 37.1432 38.748 37.144ZM9.5 34.166V34.392C9.50035 34.8565 9.68505 35.3019 10.0135 35.6304C10.342 35.9589 10.7874 36.1436 11.252 36.144H38.748C39.2126 36.1436 39.658 35.9589 39.9865 35.6304C40.3149 35.3019 40.4996 34.8565 40.5 34.392V34.166H9.5Z" fill="white"/>
<path d="M38.75 34.166H11.25C11.1174 34.166 10.9902 34.1133 10.8964 34.0196C10.8027 33.9258 10.75 33.7986 10.75 33.666V14.6927C10.7505 14.2057 10.9442 13.7389 11.2885 13.3946C11.6329 13.0502 12.0997 12.8565 12.5867 12.856H37.4133C37.9003 12.8565 38.3671 13.0502 38.7115 13.3946C39.0558 13.7389 39.2495 14.2057 39.25 14.6927V33.6667C39.2498 33.7992 39.1971 33.9262 39.1033 34.0198C39.0096 34.1134 38.8825 34.166 38.75 34.166ZM11.75 33.166H38.25V14.6927C38.2498 14.4708 38.1616 14.2581 38.0048 14.1013C37.8479 13.9444 37.6352 13.8562 37.4133 13.856H12.5867C12.3648 13.8562 12.1521 13.9444 11.9952 14.1013C11.8384 14.2581 11.7502 14.4708 11.75 14.6927V33.166Z" fill="white"/>
<path d="M36.4255 31.94H13.5762C13.4436 31.94 13.3164 31.8873 13.2226 31.7936C13.1288 31.6998 13.0762 31.5726 13.0762 31.44V15.5814C13.0762 15.4488 13.1288 15.3216 13.2226 15.2278C13.3164 15.134 13.4436 15.0814 13.5762 15.0814H36.4255C36.5581 15.0814 36.6853 15.134 36.7791 15.2278C36.8728 15.3216 36.9255 15.4488 36.9255 15.5814V31.44C36.9255 31.5726 36.8728 31.6998 36.7791 31.7936C36.6853 31.8873 36.5581 31.94 36.4255 31.94ZM14.0762 30.94H35.9255V16.0814H14.0762V30.94Z" fill="white"/>
</svg>
