<svg width="50" height="50" viewBox="0 0 50 50" fill="none" xmlns="http://www.w3.org/2000/svg">
<path d="M32.0803 26.4746H17.9201C17.6467 26.4746 17.4221 26.25 17.4221 25.9766V23.4863C17.3537 21.4844 18.9065 19.8047 20.9084 19.7266H22.8615C23.008 19.7266 23.1545 19.7949 23.2522 19.9121L25.01 22.0508L26.758 19.9121C26.8557 19.7949 26.9924 19.7266 27.1486 19.7266H29.1018C31.1037 19.8047 32.6565 21.4844 32.5881 23.4863V25.9766C32.5783 26.25 32.3537 26.4746 32.0803 26.4746ZM18.428 25.4785H31.5822V23.4863C31.6506 22.041 30.5471 20.8105 29.092 20.7227H27.3733L25.3811 23.1445C25.1955 23.3594 24.8635 23.3789 24.6487 23.1934C24.6291 23.1836 24.6194 23.1641 24.5998 23.1445L22.6076 20.7227H20.8889C19.4436 20.8008 18.3401 22.041 18.4084 23.4863V25.4785H18.428Z" fill="white"/>
<path d="M25 19.4141C22.4121 19.4141 20.3906 16.6211 20.3906 13.0664C20.498 10.5762 22.5 8.58398 25 8.49609C27.4902 8.58398 29.5019 10.5664 29.6094 13.0664C29.6094 16.6309 27.5781 19.4141 25 19.4141ZM25 9.50195C23.0469 9.57031 21.4746 11.123 21.3965 13.0664C21.3965 16.0156 23.0176 18.418 25 18.418C26.9824 18.418 28.6035 16.0156 28.6035 13.0664C28.5254 11.123 26.9531 9.56055 25 9.50195Z" fill="white"/>
<path d="M28.5547 14.2969C26.8848 14.2969 25.3223 13.5254 24.2969 12.207C23.4277 13.1836 22.1875 13.7305 20.8789 13.7207C20.6055 13.7109 20.3906 13.4766 20.3906 13.2031C20.4004 12.9297 20.6348 12.7148 20.9082 12.7148C22.1191 12.7441 23.2519 12.1094 23.8574 11.0645C23.9453 10.8984 24.1113 10.791 24.2969 10.791H24.3066C24.4922 10.791 24.6582 10.8984 24.7461 11.0547C25.5957 12.5781 27.2656 13.457 29.0039 13.2715C29.2773 13.2324 29.5312 13.4277 29.5605 13.7012C29.5996 13.9746 29.4043 14.2285 29.1308 14.2578C29.1211 14.2578 29.1113 14.2578 29.1015 14.2578C28.916 14.2871 28.7305 14.2969 28.5547 14.2969Z" fill="white"/>
<path d="M20.1953 41.5039H9.00389C8.73045 41.5039 8.50584 41.2793 8.50584 41.0059V39.0332C8.44725 37.3926 9.72654 36.0156 11.3672 35.9473H12.9101C13.0566 35.9473 13.2031 36.0156 13.3008 36.1328L14.6094 37.7246L15.9179 36.1328C16.0156 36.0156 16.1523 35.9473 16.3086 35.9473H17.8515C19.4922 36.0156 20.7715 37.3926 20.7129 39.0332V41.0059C20.7031 41.2793 20.4785 41.5039 20.1953 41.5039C20.2051 41.5039 20.2051 41.5039 20.1953 41.5039ZM9.50193 40.498H19.6972V39.0332C19.7558 37.9492 18.9258 37.0117 17.832 36.9531H16.5234L14.9804 38.8379C14.8828 38.9551 14.7461 39.0234 14.5898 39.0234C14.4433 39.0234 14.2969 38.9551 14.1992 38.8379L12.6562 36.9531H11.3476C10.2637 37.0215 9.43357 37.9492 9.49217 39.0332V40.498H9.50193Z" fill="white"/>
<path d="M14.5996 35.9082C12.6367 35.9082 11.0938 33.8086 11.0938 31.123C11.1719 29.2285 12.7051 27.7051 14.5996 27.6465C16.5039 27.7051 18.0273 29.2285 18.1055 31.123C18.1055 33.8086 16.5625 35.9082 14.5996 35.9082ZM14.5996 28.6523C13.252 28.7109 12.168 29.7852 12.0898 31.1328C12.0898 33.2227 13.2129 34.9121 14.5996 34.9121C15.9863 34.9121 17.1094 33.2129 17.1094 31.1328C17.0313 29.7754 15.9473 28.7109 14.5996 28.6523Z" fill="white"/>
<path d="M40.9961 41.5039H29.8047C29.5312 41.5039 29.3066 41.2793 29.3066 41.0059V39.0332C29.248 37.3926 30.5273 36.0156 32.1679 35.9473H33.7109C33.8574 35.9473 34.0039 36.0156 34.1015 36.1328L35.4101 37.7246L36.7187 36.1328C36.8164 36.0156 36.9531 35.9473 37.1094 35.9473H38.6523C40.2929 36.0059 41.5722 37.3828 41.5234 39.0332V41.0059C41.5039 41.2793 41.2793 41.5039 40.9961 41.5039C41.0058 41.5039 41.0058 41.5039 40.9961 41.5039ZM30.3027 40.498H40.498V39.0332C40.5566 37.9395 39.7168 37.0117 38.6328 36.9531H37.3242L35.7812 38.8379C35.5957 39.0527 35.2637 39.0723 35.0488 38.8867C35.0293 38.877 35.0195 38.8574 35 38.8379L33.457 36.9531H32.1484C31.0644 37.0215 30.2344 37.9492 30.293 39.0332V40.498H30.3027Z" fill="white"/>
<path d="M35.4004 35.9082C33.4375 35.9082 31.8945 33.8086 31.8945 31.123C31.8945 29.1895 33.4668 27.6172 35.4004 27.6172C37.334 27.6172 38.9062 29.1895 38.9062 31.123C38.9062 33.8086 37.3633 35.9082 35.4004 35.9082ZM35.4004 28.6523C34.0527 28.7109 32.9687 29.7852 32.8906 31.1328C32.8906 33.2227 34.0137 34.9121 35.4004 34.9121C36.7871 34.9121 37.9102 33.2129 37.9102 31.1328C37.832 29.7754 36.748 28.7109 35.4004 28.6523Z" fill="white"/>
<path d="M25 26.8555C24.7266 26.8555 24.502 26.6309 24.502 26.3574V23.6426C24.502 23.3691 24.7266 23.1445 25 23.1445C25.2734 23.1445 25.498 23.3691 25.498 23.6426V26.3574C25.498 26.6309 25.2734 26.8555 25 26.8555Z" fill="white"/>
<path d="M25 26.8555C24.7266 26.8555 24.502 26.6309 24.502 26.3574V23.6426C24.502 23.3691 24.7266 23.1445 25 23.1445C25.2734 23.1445 25.498 23.3691 25.498 23.6426V26.3574C25.498 26.6309 25.2734 26.8555 25 26.8555Z" fill="white"/>
</svg>
