<svg width="50" height="50" viewBox="0 0 50 50" fill="none" xmlns="http://www.w3.org/2000/svg">
<path d="M19.0571 32.4046C18.9421 32.4045 18.8306 32.3646 18.7415 32.2917C18.6525 32.2188 18.5914 32.1174 18.5685 32.0046L15.1911 15.858H12.2578C12.1252 15.858 11.998 15.8053 11.9043 15.7115C11.8105 15.6178 11.7578 15.4906 11.7578 15.358C11.7578 15.2254 11.8105 15.0982 11.9043 15.0044C11.998 14.9106 12.1252 14.858 12.2578 14.858H15.5998C15.7151 14.8579 15.8268 14.8977 15.9161 14.9706C16.0054 15.0435 16.0668 15.145 16.0898 15.258L19.5471 31.8C19.5606 31.8642 19.5613 31.9305 19.5491 31.995C19.5369 32.0596 19.5121 32.121 19.4761 32.176C19.4401 32.2309 19.3937 32.2782 19.3394 32.3151C19.2851 32.3521 19.2241 32.378 19.1598 32.3913C19.1262 32.3997 19.0918 32.4041 19.0571 32.4046Z" fill="white"/>
<path d="M38.5826 32.4047H19.0586C18.9433 32.4048 18.8316 32.365 18.7424 32.2921C18.6532 32.2192 18.592 32.1176 18.5692 32.0047L15.7339 18.1787C15.7189 18.1061 15.7203 18.031 15.738 17.959C15.7557 17.887 15.7892 17.8199 15.836 17.7624C15.8829 17.705 15.9419 17.6587 16.0089 17.6269C16.0759 17.5951 16.1491 17.5786 16.2232 17.5787H40.4899C40.5613 17.5788 40.632 17.5942 40.697 17.6238C40.762 17.6534 40.8199 17.6966 40.8669 17.7505C40.9139 17.8043 40.9488 17.8676 40.9693 17.936C40.9898 18.0045 40.9955 18.0765 40.9859 18.1473L39.0779 31.9733C39.0613 32.0929 39.002 32.2025 38.911 32.2818C38.8199 32.361 38.7033 32.4047 38.5826 32.4047ZM19.4672 31.4047H38.1472L39.9132 18.578H16.8339L19.4672 31.4047Z" fill="white"/>
<path d="M38.4856 36.056H18.5522C17.9423 36.0457 17.3608 35.7961 16.933 35.3611C16.5053 34.926 16.2656 34.3404 16.2656 33.7303C16.2656 33.1203 16.5053 32.5346 16.933 32.0996C17.3608 31.6646 17.9423 31.415 18.5522 31.4047H38.5789C38.7115 31.4047 38.8387 31.4573 38.9325 31.5511C39.0262 31.6449 39.0789 31.7721 39.0789 31.9047C39.0789 32.0373 39.0262 32.1644 38.9325 32.2582C38.8387 32.352 38.7115 32.4047 38.5789 32.4047H18.5556C18.2091 32.4124 17.8795 32.5555 17.6372 32.8033C17.395 33.051 17.2593 33.3838 17.2593 33.7303C17.2593 34.0769 17.395 34.4096 17.6372 34.6574C17.8795 34.9051 18.2091 35.0482 18.5556 35.056H38.4889C38.6215 35.056 38.7487 35.1087 38.8425 35.2024C38.9362 35.2962 38.9889 35.4234 38.9889 35.556C38.9889 35.6886 38.9362 35.8158 38.8425 35.9095C38.7487 36.0033 38.6215 36.056 38.4889 36.056H38.4856Z" fill="white"/>
<path d="M22.7404 30.4313C22.6204 30.4311 22.5044 30.3878 22.4137 30.3092C22.323 30.2306 22.2636 30.1221 22.2464 30.0033L20.8077 20.122C20.7967 20.0563 20.7989 19.9891 20.8141 19.9243C20.8294 19.8595 20.8575 19.7984 20.8967 19.7446C20.9359 19.6908 20.9855 19.6454 21.0425 19.611C21.0996 19.5766 21.1629 19.5539 21.2288 19.5443C21.2947 19.5347 21.3618 19.5384 21.4263 19.5551C21.4907 19.5718 21.5512 19.6012 21.6041 19.6416C21.657 19.682 21.7014 19.7326 21.7345 19.7904C21.7676 19.8481 21.7889 19.9119 21.797 19.978L23.2364 29.86C23.2552 29.9912 23.2214 30.1245 23.1421 30.2307C23.0629 30.3369 22.9448 30.4074 22.8137 30.4267C22.7894 30.4299 22.7649 30.4314 22.7404 30.4313Z" fill="white"/>
<path d="M26.7067 30.4314C26.5784 30.4313 26.4551 30.382 26.3622 30.2935C26.2694 30.205 26.2142 30.0842 26.208 29.956L25.734 20.074C25.7308 20.0084 25.7405 19.9429 25.7627 19.881C25.7848 19.8192 25.819 19.7624 25.8631 19.7138C25.9073 19.6652 25.9606 19.6257 26.02 19.5978C26.0794 19.5698 26.1437 19.5538 26.2093 19.5507C26.3414 19.5458 26.4701 19.5928 26.568 19.6816C26.6658 19.7705 26.7249 19.8941 26.7327 20.026L27.2093 29.9074C27.2126 29.973 27.2028 30.0385 27.1807 30.1004C27.1585 30.1622 27.1244 30.219 27.0802 30.2676C27.0361 30.3163 26.9828 30.3557 26.9234 30.3837C26.864 30.4116 26.7996 30.4276 26.734 30.4307L26.7067 30.4314Z" fill="white"/>
<path d="M30.6774 30.4313H30.6527C30.5871 30.4283 30.5227 30.4124 30.4633 30.3844C30.4038 30.3565 30.3505 30.3171 30.3063 30.2684C30.2621 30.2198 30.228 30.1629 30.2059 30.1011C30.1838 30.0392 30.1741 29.9736 30.1774 29.908L30.6534 20.0267C30.6613 19.8947 30.7206 19.771 30.8185 19.6822C30.9165 19.5934 31.0453 19.5464 31.1774 19.5513C31.243 19.5544 31.3073 19.5704 31.3668 19.5984C31.4262 19.6263 31.4795 19.6658 31.5236 19.7144C31.5678 19.763 31.6019 19.8198 31.6241 19.8817C31.6462 19.9435 31.656 20.0091 31.6527 20.0747L31.1761 29.9566C31.1696 30.0846 31.1142 30.2052 31.0214 30.2935C30.9286 30.3818 30.8055 30.4311 30.6774 30.4313Z" fill="white"/>
<path d="M34.6421 30.4313C34.6178 30.4314 34.5936 30.4299 34.5695 30.4267C34.4383 30.4075 34.3201 30.3371 34.2408 30.2308C34.1616 30.1246 34.1277 29.9912 34.1468 29.86L35.5861 19.978C35.5943 19.9119 35.6155 19.8481 35.6487 19.7904C35.6818 19.7326 35.7261 19.682 35.7791 19.6416C35.832 19.6012 35.8925 19.5718 35.9569 19.5551C36.0214 19.5384 36.0885 19.5347 36.1544 19.5443C36.2203 19.5539 36.2836 19.5766 36.3406 19.611C36.3976 19.6454 36.4472 19.6908 36.4864 19.7446C36.5257 19.7984 36.5537 19.8595 36.569 19.9243C36.5843 19.9891 36.5865 20.0563 36.5755 20.122L35.1335 30.0033C35.1163 30.1216 35.0572 30.2298 34.9671 30.3084C34.877 30.3869 34.7617 30.4305 34.6421 30.4313Z" fill="white"/>
<path d="M20.6734 41.5C20.2072 41.5001 19.7513 41.362 19.3636 41.103C18.9758 40.8441 18.6736 40.476 18.4951 40.0452C18.3165 39.6145 18.2698 39.1405 18.3606 38.6832C18.4515 38.2259 18.676 37.8058 19.0056 37.476C19.3353 37.1463 19.7553 36.9217 20.2126 36.8307C20.6699 36.7397 21.1439 36.7863 21.5747 36.9647C22.0055 37.1431 22.3737 37.4453 22.6328 37.8329C22.8918 38.2206 23.0301 38.6764 23.0301 39.1427C23.0294 39.7675 22.7809 40.3666 22.3391 40.8085C21.8973 41.2505 21.2983 41.4991 20.6734 41.5ZM20.6734 37.786C20.4049 37.7859 20.1424 37.8654 19.9191 38.0145C19.6958 38.1636 19.5217 38.3756 19.4189 38.6236C19.3161 38.8716 19.2891 39.1446 19.3415 39.408C19.3938 39.6713 19.5231 39.9132 19.713 40.1031C19.9029 40.293 20.1448 40.4223 20.4081 40.4746C20.6715 40.527 20.9445 40.5 21.1925 40.3972C21.4406 40.2944 21.6525 40.1203 21.8016 39.897C21.9507 39.6737 22.0302 39.4112 22.0301 39.1427C22.0296 38.783 21.8865 38.4383 21.6322 38.1839C21.3778 37.9296 21.0331 37.7865 20.6734 37.786Z" fill="white"/>
<path d="M35.8749 41.4999C35.4087 41.4999 34.9529 41.3617 34.5652 41.1027C34.1776 40.8436 33.8754 40.4755 33.697 40.0447C33.5186 39.614 33.4719 39.14 33.5629 38.6827C33.6538 38.2254 33.8783 37.8054 34.208 37.4757C34.5377 37.146 34.9577 36.9215 35.415 36.8306C35.8723 36.7396 36.3463 36.7863 36.777 36.9647C37.2078 37.1431 37.5759 37.4453 37.835 37.8329C38.094 38.2206 38.2322 38.6764 38.2322 39.1426C38.2315 39.7676 37.9829 40.3668 37.541 40.8087C37.0991 41.2506 36.4999 41.4992 35.8749 41.4999ZM35.8749 37.7859C35.6064 37.7859 35.344 37.8656 35.1207 38.0147C34.8975 38.1639 34.7235 38.3759 34.6208 38.624C34.5181 38.8721 34.4913 39.145 34.5437 39.4083C34.5961 39.6716 34.7255 39.9135 34.9154 40.1033C35.1053 40.2931 35.3472 40.4223 35.6105 40.4746C35.8739 40.5269 36.1468 40.4999 36.3948 40.3971C36.6428 40.2943 36.8547 40.1202 37.0038 39.8969C37.1529 39.6736 37.2324 39.4111 37.2322 39.1426C37.2317 38.7828 37.0885 38.438 36.8341 38.1837C36.5796 37.9293 36.2347 37.7863 35.8749 37.7859Z" fill="white"/>
<path d="M10.8863 17.2333C10.516 17.2333 10.1539 17.1235 9.84594 16.9177C9.53798 16.7119 9.29796 16.4195 9.15622 16.0773C9.01448 15.7351 8.9774 15.3586 9.04966 14.9953C9.12191 14.632 9.30027 14.2984 9.56216 14.0365C9.82406 13.7746 10.1577 13.5962 10.521 13.524C10.8843 13.4517 11.2608 13.4888 11.603 13.6305C11.9452 13.7723 12.2376 14.0123 12.4434 14.3202C12.6492 14.6282 12.759 14.9903 12.759 15.3606C12.7585 15.8571 12.561 16.3332 12.2099 16.6842C11.8589 17.0353 11.3828 17.2328 10.8863 17.2333ZM10.8863 14.488C10.7137 14.488 10.545 14.5392 10.4015 14.635C10.258 14.7309 10.1462 14.8672 10.0801 15.0267C10.0141 15.1861 9.99677 15.3616 10.0304 15.5309C10.0641 15.7002 10.1472 15.8557 10.2693 15.9777C10.3913 16.0998 10.5468 16.1829 10.7161 16.2165C10.8854 16.2502 11.0608 16.2329 11.2203 16.1669C11.3798 16.1008 11.516 15.989 11.6119 15.8455C11.7078 15.702 11.759 15.5332 11.759 15.3606C11.7588 15.1293 11.6668 14.9074 11.5032 14.7438C11.3396 14.5802 11.1177 14.4882 10.8863 14.488Z" fill="white"/>
<path d="M36.8234 18.604H28.748C28.6154 18.604 28.4883 18.5513 28.3945 18.4575C28.3007 18.3638 28.248 18.2366 28.248 18.104V12.516C28.248 12.3834 28.3007 12.2562 28.3945 12.1624C28.4883 12.0687 28.6154 12.016 28.748 12.016H36.8234C36.956 12.016 37.0832 12.0687 37.1769 12.1624C37.2707 12.2562 37.3234 12.3834 37.3234 12.516V18.104C37.3234 18.2366 37.2707 18.3638 37.1769 18.4575C37.0832 18.5513 36.956 18.604 36.8234 18.604ZM29.248 17.604H36.3234V13.016H29.248V17.604Z" fill="white"/>
<path d="M28.7482 18.604H20.6729C20.5402 18.604 20.4131 18.5513 20.3193 18.4576C20.2255 18.3638 20.1729 18.2366 20.1729 18.104V14.504C20.1729 14.3714 20.2255 14.2442 20.3193 14.1505C20.4131 14.0567 20.5402 14.004 20.6729 14.004H28.7482C28.8808 14.004 29.008 14.0567 29.1017 14.1505C29.1955 14.2442 29.2482 14.3714 29.2482 14.504V18.104C29.2482 18.2366 29.1955 18.3638 29.1017 18.4576C29.008 18.5513 28.8808 18.604 28.7482 18.604ZM21.1729 17.604H28.2482V15.004H21.1729V17.604Z" fill="white"/>
<path d="M23.2158 15.0047C23.0832 15.0047 22.956 14.952 22.8623 14.8582C22.7685 14.7645 22.7158 14.6373 22.7158 14.5047V9C22.7158 8.86739 22.7685 8.74022 22.8623 8.64645C22.956 8.55268 23.0832 8.5 23.2158 8.5H32.2538C32.3864 8.5 32.5136 8.55268 32.6074 8.64645C32.7011 8.74022 32.7538 8.86739 32.7538 9V12.516C32.7538 12.5817 32.7409 12.6467 32.7158 12.7073C32.6906 12.768 32.6538 12.8231 32.6074 12.8696C32.5609 12.916 32.5058 12.9528 32.4452 12.9779C32.3845 13.0031 32.3195 13.016 32.2538 13.016C32.1882 13.016 32.1231 13.0031 32.0625 12.9779C32.0018 12.9528 31.9467 12.916 31.9003 12.8696C31.8538 12.8231 31.817 12.768 31.7919 12.7073C31.7667 12.6467 31.7538 12.5817 31.7538 12.516V9.5H23.7158V14.5047C23.7158 14.6373 23.6631 14.7645 23.5694 14.8582C23.4756 14.952 23.3484 15.0047 23.2158 15.0047Z" fill="white"/>
</svg>
