<svg width="50" height="50" viewBox="0 0 50 50" fill="none" xmlns="http://www.w3.org/2000/svg">
<path d="M22.4398 35.8847C22.3203 35.885 22.2048 35.8421 22.1144 35.764L15.2524 29.8714C15.1765 29.806 15.1219 29.7193 15.0957 29.6226C15.0694 29.5259 15.0727 29.4235 15.1051 29.3287C16.3451 25.7334 18.9998 21.4 22.3951 17.45C29.0724 9.67403 38.6778 8.5467 39.0831 8.50337C39.1511 8.49438 39.2202 8.50021 39.2856 8.52046C39.3511 8.54072 39.4114 8.57492 39.4624 8.6207C39.5144 8.66525 39.5567 8.72003 39.5867 8.78161C39.6166 8.8432 39.6335 8.91029 39.6364 8.9787C39.6538 9.38604 39.9911 19.05 33.3144 26.826C29.9218 30.776 26.0424 34.0567 22.6724 35.826C22.6008 35.8643 22.521 35.8844 22.4398 35.8847ZM16.1638 29.3334L22.5058 34.78C25.6991 33.032 29.3431 29.9134 32.5551 26.1734C38.0884 19.7334 38.6044 11.7374 38.6398 9.57803C36.5098 9.9407 28.6764 11.6687 23.1538 18.0987C19.9398 21.8434 17.4084 25.916 16.1638 29.3334Z" fill="white"/>
<path d="M21.1011 37.4447C20.9817 37.4449 20.8662 37.4021 20.7758 37.324L13.9131 31.4307C13.8632 31.3881 13.8222 31.336 13.7924 31.2774C13.7627 31.2189 13.7448 31.1551 13.7397 31.0896C13.7347 31.0241 13.7427 30.9583 13.7632 30.8959C13.7837 30.8335 13.8163 30.7758 13.8591 30.726L15.1991 29.166C15.2855 29.0656 15.4082 29.0036 15.5403 28.9935C15.6724 28.9833 15.8031 29.026 15.9038 29.112L22.7658 35.0054C22.8156 35.0481 22.8566 35.1002 22.8863 35.1587C22.916 35.2172 22.9339 35.2811 22.9389 35.3465C22.9439 35.412 22.936 35.4778 22.9155 35.5401C22.8951 35.6025 22.8626 35.6602 22.8198 35.71L21.4811 37.27C21.3945 37.3707 21.2715 37.4331 21.1391 37.4434L21.1011 37.4447ZM14.9438 31L21.0478 36.2414L21.7358 35.4414L15.6318 30.2L14.9438 31Z" fill="white"/>
<path d="M33.2822 18.7134C32.6215 18.7127 31.981 18.4861 31.4668 18.0714C30.9525 17.6566 30.5956 17.0785 30.455 16.433C30.3144 15.7875 30.3988 15.1133 30.694 14.5223C30.9892 13.9313 31.4776 13.4589 32.0781 13.1836C32.6786 12.9083 33.3552 12.8465 33.9957 13.0085C34.6362 13.1705 35.202 13.5466 35.5994 14.0744C35.9968 14.6021 36.2018 15.2499 36.1805 15.9102C36.1592 16.5705 35.9128 17.2037 35.4822 17.7047C35.2099 18.0216 34.8724 18.2758 34.4926 18.4499C34.1129 18.624 33.6999 18.7139 33.2822 18.7134ZM33.2855 13.918C32.9669 13.9175 32.6533 13.9972 32.3736 14.1497C32.0939 14.3022 31.8571 14.5226 31.6849 14.7907C31.5127 15.0588 31.4108 15.3658 31.3885 15.6836C31.3661 16.0014 31.4241 16.3198 31.5571 16.6093C31.6901 16.8988 31.8938 17.1502 32.1494 17.3403C32.4051 17.5304 32.7045 17.6531 33.02 17.6971C33.3355 17.7412 33.6571 17.7051 33.955 17.5923C34.2529 17.4794 34.5177 17.2934 34.7249 17.0514C34.9611 16.7758 35.1133 16.4384 35.1636 16.079C35.2139 15.7195 35.16 15.3532 35.0085 15.0235C34.8569 14.6937 34.614 14.4143 34.3085 14.2184C34.003 14.0225 33.6478 13.9182 33.2849 13.918H33.2855Z" fill="white"/>
<path d="M26.5566 40.0313C26.4679 40.0311 26.3808 40.0074 26.3043 39.9625C26.2278 39.9177 26.1646 39.8533 26.1211 39.776C26.0776 39.6987 26.0555 39.6112 26.0569 39.5225C26.0583 39.4339 26.0833 39.3472 26.1292 39.2713C26.7392 38.3562 27.0521 37.2752 27.0251 36.1758C26.9981 35.0764 26.6327 34.012 25.9786 33.128C25.8945 33.0254 25.8546 32.8937 25.8677 32.7617C25.8807 32.6297 25.9457 32.5084 26.0482 32.4243C26.1508 32.3402 26.2825 32.3003 26.4145 32.3134C26.5465 32.3265 26.6678 32.3914 26.7519 32.494C27.3733 33.2942 27.7855 34.2367 27.951 35.2362C28.1165 36.2358 28.0302 37.2608 27.6999 38.2186C28.2459 37.8186 28.8012 37.3853 29.1159 37.1133C31.5952 34.98 32.1126 31.4746 30.2699 29.3053C30.226 29.2555 30.1925 29.1974 30.1713 29.1344C30.1501 29.0715 30.1417 29.005 30.1465 28.9387C30.1512 28.8725 30.1692 28.8079 30.1992 28.7487C30.2293 28.6894 30.2708 28.6368 30.3214 28.5938C30.372 28.5508 30.4307 28.5183 30.494 28.4982C30.5573 28.4782 30.624 28.4709 30.6901 28.4769C30.7563 28.4829 30.8205 28.5019 30.8792 28.533C30.9379 28.5641 30.9898 28.6066 31.0319 28.658C33.2319 31.244 32.6626 35.3766 29.7686 37.8713C28.8367 38.6785 27.8253 39.389 26.7499 39.992C26.6888 40.018 26.623 40.0314 26.5566 40.0313Z" fill="white"/>
<path d="M10.8572 26.5486C10.7812 26.5487 10.7062 26.5314 10.6379 26.4981C10.5696 26.4648 10.5098 26.4164 10.463 26.3564C10.4163 26.2965 10.3838 26.2267 10.3682 26.1523C10.3525 26.078 10.354 26.001 10.3726 25.9273C10.8056 24.7727 11.3556 23.6654 12.0139 22.6226C14.0419 19.386 18.0406 18.2013 20.9292 19.9827C20.9851 20.0171 21.0337 20.0623 21.0721 20.1156C21.1106 20.1688 21.1381 20.2291 21.1533 20.2931C21.1684 20.357 21.1708 20.4232 21.1603 20.4881C21.1499 20.5529 21.1267 20.6151 21.0922 20.671C21.0577 20.7269 21.0126 20.7754 20.9593 20.8139C20.906 20.8523 20.8457 20.8799 20.7818 20.895C20.7179 20.9102 20.6516 20.9126 20.5868 20.9021C20.5219 20.8916 20.4598 20.8685 20.4039 20.834C17.9819 19.338 14.5972 20.3793 12.8606 23.154C12.6366 23.5113 12.2906 24.124 11.9839 24.7193C12.8806 24.2485 13.8805 24.0086 14.8932 24.0214C15.9059 24.0342 16.8994 24.2993 17.7839 24.7926C17.898 24.8602 17.9806 24.9703 18.0136 25.0988C18.0465 25.2272 18.0271 25.3635 17.9596 25.4776C17.892 25.5918 17.7819 25.6744 17.6534 25.7073C17.525 25.7403 17.3887 25.7209 17.2746 25.6533C16.3018 25.1401 15.1944 24.9395 14.1034 25.0789C13.0125 25.2182 11.9911 25.6907 11.1786 26.432C11.0885 26.5075 10.9747 26.5488 10.8572 26.5486Z" fill="white"/>
<path d="M11.6557 41.5C11.5371 41.4996 11.4227 41.4568 11.333 41.3793C11.2733 41.328 11.2264 41.2634 11.1963 41.1907C11.1662 41.1179 11.1537 41.0391 11.1597 40.9606C11.2123 40.294 11.7157 34.3786 13.1377 32.7239C13.6574 32.1207 14.3353 31.6746 15.095 31.4359C15.1762 31.4111 15.2623 31.4071 15.3455 31.4242C15.4287 31.4414 15.5062 31.4791 15.571 31.5339L20.4243 35.7026C20.4888 35.7579 20.5381 35.8288 20.5677 35.9084C20.5972 35.9881 20.6059 36.074 20.593 36.158C20.4725 36.945 20.1342 37.6825 19.6163 38.2873C18.1917 39.9426 12.4237 41.3333 11.7697 41.4866C11.7323 41.4954 11.694 41.4998 11.6557 41.5ZM15.1377 32.4826C14.6581 32.677 14.2318 32.983 13.8943 33.3753C12.9843 34.4339 12.4277 38.2833 12.2177 40.346C14.225 39.8266 17.9463 38.694 18.8543 37.636C19.1916 37.2432 19.43 36.7756 19.5497 36.272L15.1377 32.4826Z" fill="white"/>
<path d="M14.9178 37.7026C14.8502 37.7025 14.7833 37.6887 14.7211 37.662C14.659 37.6353 14.6028 37.5963 14.5562 37.5473C14.5095 37.4984 14.4733 37.4404 14.4496 37.3771C14.4259 37.3137 14.4154 37.2462 14.4185 37.1786C14.4432 36.6646 14.6012 34.0593 15.3198 33.2226C15.5985 32.8995 15.962 32.6608 16.3692 32.5333C16.4503 32.5082 16.5364 32.504 16.6196 32.521C16.7028 32.538 16.7804 32.5757 16.8452 32.6306L19.1465 34.6079C19.2108 34.6634 19.2601 34.7342 19.2896 34.8139C19.3191 34.8935 19.3279 34.9793 19.3152 35.0633C19.2508 35.4852 19.0695 35.8806 18.7918 36.2046C18.0725 37.0419 15.5205 37.5919 15.0165 37.6939C14.984 37.7001 14.9509 37.7031 14.9178 37.7026ZM16.4285 33.5899C16.2961 33.6631 16.1778 33.7593 16.0792 33.8739C15.7785 34.2239 15.5618 35.4939 15.4638 36.5666C16.5092 36.3079 17.7305 35.8999 18.0325 35.5519C18.1309 35.4373 18.2083 35.3061 18.2612 35.1646L16.4285 33.5899Z" fill="white"/>
<path d="M20.0434 27.5773C19.9477 27.5775 19.8539 27.5502 19.7733 27.4987C19.6927 27.4471 19.6286 27.3735 19.5886 27.2865C19.5486 27.1996 19.5345 27.1029 19.5479 27.0082C19.5613 26.9134 19.6016 26.8245 19.6641 26.752L22.5221 23.4247C22.6086 23.325 22.7311 23.2636 22.8628 23.2539C22.9945 23.2442 23.1246 23.287 23.2249 23.3729C23.3251 23.4588 23.3873 23.5809 23.3979 23.7125C23.4085 23.8441 23.3666 23.9745 23.2814 24.0753L20.4234 27.4C20.3767 27.4553 20.3185 27.4997 20.2529 27.5304C20.1873 27.561 20.1158 27.577 20.0434 27.5773Z" fill="white"/>
<path d="M20.9808 30.6414C20.8851 30.6414 20.7915 30.6141 20.7109 30.5625C20.6304 30.5109 20.5663 30.4374 20.5263 30.3505C20.4863 30.2636 20.4721 30.1671 20.4853 30.0724C20.4985 29.9776 20.5386 29.8887 20.6008 29.816L25.6921 23.888C25.7349 23.8382 25.7871 23.7972 25.8456 23.7675C25.9042 23.7378 25.9681 23.72 26.0336 23.715C26.0991 23.7099 26.1649 23.7179 26.2274 23.7383C26.2898 23.7587 26.3476 23.7913 26.3974 23.834C26.4473 23.8768 26.4883 23.929 26.5179 23.9876C26.5476 24.0462 26.5655 24.11 26.5705 24.1755C26.5755 24.241 26.5676 24.3069 26.5472 24.3693C26.5267 24.4317 26.4942 24.4895 26.4514 24.5394L21.3601 30.4667C21.3133 30.5215 21.2551 30.5656 21.1896 30.5957C21.1242 30.6259 21.0529 30.6415 20.9808 30.6414Z" fill="white"/>
<path d="M24.1515 31.1053C24.0557 31.1056 23.9619 31.0784 23.8812 31.0269C23.8004 30.9754 23.7362 30.9018 23.6962 30.8148C23.6561 30.7278 23.6419 30.6311 23.6553 30.5363C23.6686 30.4415 23.709 30.3525 23.7715 30.2799L26.6295 26.9519C26.7161 26.8523 26.8386 26.7909 26.9702 26.7812C27.1019 26.7715 27.232 26.8143 27.3323 26.9002C27.4325 26.9861 27.4947 27.1081 27.5053 27.2397C27.5159 27.3713 27.474 27.5018 27.3888 27.6026L24.5328 30.9333C24.4855 30.9878 24.4268 31.0314 24.361 31.0611C24.2952 31.0908 24.2237 31.1058 24.1515 31.1053Z" fill="white"/>
</svg>
