<svg width="50" height="50" viewBox="0 0 50 50" fill="none" xmlns="http://www.w3.org/2000/svg">
<path d="M15.8753 35.576C15.7538 35.5758 15.6365 35.5314 15.5453 35.4511C15.4542 35.3707 15.3954 35.2599 15.38 35.1393L12.1687 10.18H9C8.86739 10.18 8.74022 10.1273 8.64645 10.0335C8.55268 9.93978 8.5 9.8126 8.5 9.67999C8.5 9.54738 8.55268 9.42021 8.64645 9.32644C8.74022 9.23267 8.86739 9.17999 9 9.17999H12.6087C12.7302 9.18011 12.8475 9.2244 12.9387 9.30462C13.03 9.38484 13.089 9.49551 13.1047 9.61599L16.3087 34.5167L40.9367 31.3793C41.0659 31.3674 41.1946 31.4062 41.2958 31.4873C41.397 31.5685 41.4628 31.6858 41.4792 31.8145C41.4956 31.9432 41.4614 32.0733 41.3839 32.1772C41.3063 32.2812 41.1914 32.3511 41.0633 32.372L15.9393 35.572C15.9181 35.5747 15.8967 35.576 15.8753 35.576Z" fill="white"/>
<path d="M20.6676 40.82C20.059 40.8196 19.4744 40.5823 19.0378 40.1582C18.6013 39.7341 18.3471 39.1566 18.3291 38.5483C18.3112 37.9399 18.5309 37.3485 18.9418 36.8994C19.3526 36.4503 19.9222 36.1789 20.5297 36.1427C21.1373 36.1066 21.735 36.3085 22.1962 36.7057C22.6574 37.1028 22.9457 37.664 23.0001 38.2702C23.0545 38.8764 22.8706 39.48 22.4874 39.9529C22.1042 40.4257 21.5519 40.7308 20.9476 40.8033C20.8547 40.8144 20.7612 40.82 20.6676 40.82ZM20.6676 37.1433C20.6141 37.1431 20.5607 37.1462 20.5076 37.1526C20.1616 37.1937 19.8452 37.3679 19.6255 37.6384C19.4058 37.9088 19.3 38.2542 19.3307 38.6013C19.3614 38.9484 19.5261 39.2699 19.7899 39.4976C20.0536 39.7253 20.3957 39.8413 20.7435 39.821C21.0914 39.8007 21.4177 39.6457 21.6532 39.3889C21.8887 39.1321 22.0149 38.7936 22.005 38.4453C21.9951 38.097 21.8499 37.7662 21.6003 37.5232C21.3506 37.2801 21.0161 37.1438 20.6676 37.1433Z" fill="white"/>
<path d="M20.6007 38.39C20.4785 38.3897 20.3606 38.3448 20.2693 38.2636C20.1779 38.1824 20.1194 38.0706 20.1047 37.9493L19.7047 34.62C19.6889 34.4882 19.7261 34.3556 19.808 34.2513C19.89 34.147 20.01 34.0795 20.1417 34.0636C20.2735 34.0478 20.4061 34.085 20.5104 34.1669C20.6148 34.2489 20.6823 34.3689 20.6981 34.5006L21.0981 37.834C21.1135 37.9656 21.0762 38.0981 20.9942 38.2023C20.9122 38.3065 20.7923 38.3739 20.6607 38.39C20.6401 38.3886 20.6207 38.39 20.6007 38.39Z" fill="white"/>
<path d="M37.1697 38.7713C36.7197 38.7711 36.2793 38.6411 35.9013 38.3968C35.5233 38.1525 35.2238 37.8044 35.0388 37.3941C34.8538 36.9839 34.7911 36.529 34.8582 36.084C34.9253 35.6389 35.1194 35.2227 35.4171 34.8853C35.7149 34.5478 36.1037 34.3035 36.5369 34.1815C36.9701 34.0595 37.4293 34.0652 37.8594 34.1977C38.2895 34.3302 38.6722 34.584 38.9616 34.9287C39.251 35.2733 39.4349 35.6941 39.4911 36.1407C39.5321 36.4698 39.5026 36.804 39.4047 37.1209C39.3069 37.4379 39.1427 37.7304 38.9232 37.9791C38.7038 38.2279 38.4339 38.4271 38.1316 38.5637C37.8293 38.7003 37.5015 38.771 37.1697 38.7713ZM37.1744 35.0947C36.9841 35.0938 36.7959 35.1336 36.6222 35.2113C36.4485 35.289 36.2934 35.4029 36.1672 35.5453C36.0411 35.6877 35.9467 35.8554 35.8904 36.0371C35.8342 36.2189 35.8174 36.4105 35.8411 36.5993C35.8739 36.8621 35.9839 37.1091 36.1572 37.3093C36.3304 37.5095 36.5592 37.6538 36.8145 37.7239C37.0699 37.794 37.3402 37.7867 37.5914 37.7031C37.8426 37.6194 38.0634 37.4632 38.2257 37.254C38.334 37.1154 38.4136 36.9567 38.4601 36.7871C38.5065 36.6175 38.5189 36.4404 38.4964 36.266C38.4557 35.9432 38.2988 35.6462 38.0549 35.4307C37.8111 35.2153 37.4971 35.096 37.1717 35.0953L37.1744 35.0947Z" fill="white"/>
<path d="M37.0975 36.342C36.9757 36.3418 36.8582 36.2972 36.7669 36.2166C36.6756 36.136 36.6168 36.0248 36.6015 35.904L36.1835 32.5767C36.1671 32.445 36.2036 32.3122 36.2851 32.2075C36.3665 32.1028 36.4862 32.0348 36.6179 32.0183C36.7495 32.0019 36.8823 32.0384 36.987 32.1199C37.0917 32.2013 37.1598 32.321 37.1762 32.4527L37.5942 35.7793C37.603 35.8497 37.5967 35.9212 37.5758 35.989C37.5548 36.0569 37.5197 36.1194 37.4727 36.1726C37.4258 36.2259 37.368 36.2685 37.3033 36.2977C37.2387 36.3269 37.1685 36.342 37.0975 36.342Z" fill="white"/>
<path d="M17.5627 33.4533C17.4412 33.4532 17.3238 33.4087 17.2327 33.3284C17.1415 33.248 17.0827 33.1372 17.0673 33.0166L15.3693 19.7333C15.3609 19.6681 15.3655 19.602 15.3827 19.5386C15.3999 19.4752 15.4294 19.4158 15.4696 19.3638C15.5098 19.3119 15.5599 19.2684 15.6169 19.2358C15.6739 19.2032 15.7368 19.1822 15.802 19.174L25.5174 17.9333C25.5825 17.925 25.6486 17.9296 25.712 17.9468C25.7753 17.964 25.8347 17.9936 25.8866 18.0338C25.9386 18.074 25.9821 18.124 26.0147 18.181C26.0473 18.238 26.0684 18.3008 26.0767 18.366L27.774 31.648C27.7823 31.7131 27.7777 31.7792 27.7605 31.8426C27.7433 31.906 27.7137 31.9653 27.6735 32.0173C27.6334 32.0692 27.5833 32.1127 27.5263 32.1453C27.4694 32.1779 27.4065 32.199 27.3414 32.2073L17.626 33.4493C17.605 33.4519 17.5839 33.4533 17.5627 33.4533ZM16.4247 20.1053L17.9953 32.394L26.7187 31.2786L25.1487 18.99L16.4247 20.1053Z" fill="white"/>
<path d="M31.923 22.556C31.8014 22.556 31.684 22.5117 31.5928 22.4313C31.5016 22.3509 31.4429 22.24 31.4276 22.1194L30.0843 11.608L19.211 13L19.9996 19.142C20.0164 19.2736 19.9803 19.4064 19.8992 19.5113C19.818 19.6162 19.6985 19.6846 19.567 19.7014C19.4354 19.7182 19.3026 19.682 19.1977 19.6009C19.0928 19.5197 19.0244 19.4002 19.0076 19.2687L18.1583 12.6287C18.15 12.5635 18.1546 12.4973 18.1719 12.4339C18.1892 12.3705 18.2188 12.3112 18.259 12.2592C18.2993 12.2073 18.3494 12.1638 18.4064 12.1312C18.4635 12.0986 18.5265 12.0776 18.5916 12.0694L30.4583 10.5527C30.5898 10.5363 30.7225 10.5725 30.8273 10.6536C30.9321 10.7347 31.0005 10.854 31.0177 10.9854L32.4243 21.9927C32.4326 22.0579 32.428 22.1241 32.4107 22.1875C32.3935 22.2509 32.3638 22.3102 32.3236 22.3622C32.2833 22.4141 32.2333 22.4576 32.1762 22.4902C32.1191 22.5228 32.0562 22.5438 31.991 22.552C31.9684 22.5549 31.9457 22.5562 31.923 22.556Z" fill="white"/>
<path d="M27.2774 32.2113C27.1559 32.2112 27.0386 32.1668 26.9474 32.0864C26.8563 32.006 26.7975 31.8952 26.7821 31.7747L25.6428 22.862C25.6344 22.7969 25.6389 22.7307 25.6561 22.6673C25.6733 22.6039 25.7029 22.5445 25.743 22.4926C25.7832 22.4406 25.8333 22.3971 25.8903 22.3645C25.9474 22.3319 26.0103 22.3109 26.0754 22.3027L35.7914 21.06C35.9227 21.0444 36.0549 21.0805 36.1601 21.1607C36.2121 21.201 36.2557 21.2512 36.2883 21.3084C36.3209 21.3656 36.3419 21.4287 36.3501 21.494L37.4894 30.4073C37.4979 30.4725 37.4933 30.5387 37.4761 30.6021C37.4589 30.6654 37.4294 30.7248 37.3892 30.7768C37.349 30.8287 37.2989 30.8723 37.2419 30.9048C37.1849 30.9374 37.122 30.9584 37.0568 30.9667L27.3414 32.2073C27.3202 32.21 27.2988 32.2113 27.2774 32.2113ZM26.6981 23.2313L27.7101 31.152L36.4341 30.0367L35.4221 22.1153L26.6981 23.2313Z" fill="white"/>
<path d="M23.5177 15.058C23.3961 15.0579 23.2788 15.0134 23.1876 14.9331C23.0965 14.8527 23.0377 14.7419 23.0223 14.6213L22.6936 12.0513C22.6851 11.9861 22.6896 11.9199 22.7068 11.8564C22.7239 11.793 22.7535 11.7335 22.7937 11.6815C22.8339 11.6294 22.8839 11.5859 22.941 11.5532C22.9981 11.5206 23.0611 11.4996 23.1263 11.4913L25.9143 11.1353C26.0458 11.1199 26.1782 11.156 26.2837 11.236C26.3357 11.2763 26.3793 11.3266 26.4119 11.3838C26.4445 11.441 26.4655 11.504 26.4737 11.5693L26.8017 14.1393C26.8101 14.2045 26.8055 14.2707 26.7883 14.3341C26.7711 14.3975 26.7416 14.4568 26.7014 14.5088C26.6612 14.5608 26.6112 14.6043 26.5541 14.6369C26.4971 14.6694 26.4342 14.6904 26.369 14.6987L23.5817 15.0553C23.5604 15.0576 23.539 15.0585 23.5177 15.058ZM23.749 12.42L23.949 13.9987L25.7443 13.7687L25.5443 12.1907L23.749 12.42Z" fill="white"/>
</svg>
