<svg width="280" height="188" viewBox="0 0 280 188" fill="none" xmlns="http://www.w3.org/2000/svg">
<g clip-path="url(#clip0)">
<path d="M47.1667 0H0V47.1667H47.1667V0Z" fill="#F8F4F4"/>
<path d="M0.667408 47.1667L47.1667 0.667408V0H46.4993L0 46.4993V47.1667H0.667408Z" fill="white"/>
<path d="M3.14838 47.1666L47.1667 3.14838V1.81592L1.81592 47.1666H3.14838Z" fill="white"/>
<path d="M5.63169 47.1667L47.1667 5.63169V4.29688L4.29688 47.1667H5.63169Z" fill="white"/>
<path d="M8.11503 47.1666L47.1667 8.11497V6.78015L6.78021 47.1666H8.11503Z" fill="white"/>
<path d="M10.596 47.1667L47.1666 10.596V9.26355L9.26352 47.1667H10.596Z" fill="white"/>
<path d="M13.0793 47.1667L47.1667 13.0793V11.7445L11.7445 47.1667H13.0793Z" fill="white"/>
<path d="M15.5626 47.1666L47.1667 15.5626V14.2278L14.2278 47.1666H15.5626Z" fill="white"/>
<path d="M18.0436 47.1667L47.1667 18.0436V16.7112L16.7112 47.1667H18.0436Z" fill="white"/>
<path d="M20.5269 47.1667L47.1667 20.527V19.1921L19.1921 47.1667H20.5269Z" fill="white"/>
<path d="M23.0103 47.1666L47.1667 23.0102V21.6754L21.6754 47.1666H23.0103Z" fill="white"/>
<path d="M25.4912 47.1667L47.1667 25.4913V24.1588L24.1588 47.1667H25.4912Z" fill="white"/>
<path d="M27.9746 47.1667L47.1667 27.9746V26.6398L26.6397 47.1667H27.9746Z" fill="white"/>
<path d="M30.4555 47.1667L47.1667 30.4555V29.123L29.1231 47.1667H30.4555Z" fill="white"/>
<path d="M32.9389 47.1666L47.1667 32.9388V31.604L31.604 47.1666H32.9389Z" fill="white"/>
<path d="M35.4222 47.1667L47.1667 35.4222V34.0874L34.0873 47.1667H35.4222Z" fill="white"/>
<path d="M37.9031 47.1667L47.1667 37.9031V36.5707L36.5707 47.1667H37.9031Z" fill="white"/>
<path d="M40.3865 47.1667L47.1667 40.3865V39.0516L39.0516 47.1667H40.3865Z" fill="white"/>
<path d="M42.8698 47.1666L47.1667 42.8697V41.5349L41.535 47.1666H42.8698Z" fill="white"/>
<path d="M45.3507 47.1667L47.1667 45.3508V44.0183L44.0183 47.1667H45.3507Z" fill="white"/>
<path d="M47.1667 47.1667V46.4993L46.4993 47.1667H47.1667Z" fill="white"/>
<path d="M47.1667 47.1666H0V94.3333H47.1667V47.1666Z" fill="#F8F4F4"/>
<path d="M0 47.1666V47.834L0.332525 47.4992L0 47.1666Z" fill="white"/>
<path d="M0.940975 48.1077L0 49.0486V50.3835L1.60838 48.7751L0.940975 48.1077Z" fill="white"/>
<path d="M2.21683 49.3834L0 51.5979V52.9327L2.88188 50.0508L2.21683 49.3834Z" fill="white"/>
<path d="M3.49033 50.657L0 54.1473V55.4821L4.15774 51.3244L3.49033 50.657Z" fill="white"/>
<path d="M4.76619 51.9329L0 56.699V58.0315L5.4336 52.6003L4.76619 51.9329Z" fill="white"/>
<path d="M6.03969 53.2063L0 59.2484V60.5808L6.7071 53.8737L6.03969 53.2063Z" fill="white"/>
<path d="M7.31555 54.4822L0 61.7977V63.1302L7.98296 55.1496L7.31555 54.4822Z" fill="white"/>
<path d="M8.58905 55.7557L0 64.3471V65.6796L9.25646 56.4231L8.58905 55.7557Z" fill="white"/>
<path d="M9.86491 57.0315L0 66.8964V68.2289L10.5323 57.6989L9.86491 57.0315Z" fill="white"/>
<path d="M11.1384 58.3051L0 69.4458V70.7806L11.8058 58.9725L11.1384 58.3051Z" fill="white"/>
<path d="M12.4143 59.5808L0 71.9951V73.3299L13.0817 60.2482L12.4143 59.5808Z" fill="white"/>
<path d="M13.6901 60.8567L0 74.5445V75.8793L14.3552 61.5217L13.6901 60.8567Z" fill="white"/>
<path d="M14.9636 62.1302L0 77.0938V78.4287L15.631 62.7977L14.9636 62.1302Z" fill="white"/>
<path d="M16.2395 63.4061L0 79.6433V80.9781L16.9045 64.0712L16.2395 63.4061Z" fill="white"/>
<path d="M17.513 64.6796L0 82.1925V83.5274L18.1804 65.347L17.513 64.6796Z" fill="white"/>
<path d="M18.7888 65.9554L0 84.7419V86.0767L19.4563 66.6228L18.7888 65.9554Z" fill="white"/>
<path d="M20.0623 67.229L0 87.2914V88.6262L20.7298 67.8964L20.0623 67.229Z" fill="white"/>
<path d="M21.3382 68.5049L0 89.8431V91.1755L22.0056 69.1723L21.3382 68.5049Z" fill="white"/>
<path d="M22.6117 69.7783L0 92.3924V93.7248L23.2791 70.4457L22.6117 69.7783Z" fill="white"/>
<path d="M23.8876 71.0542L0.608459 94.3333H1.94092L24.555 71.7216L23.8876 71.0542Z" fill="white"/>
<path d="M25.1611 72.3276L3.15781 94.3332H4.49026L25.8285 72.995L25.1611 72.3276Z" fill="white"/>
<path d="M26.4369 73.6035L5.70715 94.3333H7.04197L27.1043 74.2709L26.4369 73.6035Z" fill="white"/>
<path d="M27.7104 74.8771L8.25653 94.3333H9.59135L28.3778 75.5445L27.7104 74.8771Z" fill="white"/>
<path d="M28.9863 76.1528L10.8059 94.3332H12.1407L29.6537 76.8202L28.9863 76.1528Z" fill="white"/>
<path d="M30.2621 77.4287L13.3553 94.3332H14.6901L30.9272 78.0938L30.2621 77.4287Z" fill="white"/>
<path d="M31.5356 78.7023L15.9046 94.3333H17.2394L32.203 79.3697L31.5356 78.7023Z" fill="white"/>
<path d="M32.8115 79.9781L18.4539 94.3333H19.7888L33.4765 80.6432L32.8115 79.9781Z" fill="white"/>
<path d="M34.085 81.2516L21.0033 94.3332H22.3381L34.7524 81.919L34.085 81.2516Z" fill="white"/>
<path d="M35.3609 82.5275L23.5527 94.3333H24.8875L36.0283 83.1949L35.3609 82.5275Z" fill="white"/>
<path d="M36.6344 83.801L26.1044 94.3333H27.4369L37.3018 84.4684L36.6344 83.801Z" fill="white"/>
<path d="M37.9102 85.0768L28.6537 94.3332H29.9862L38.5776 85.7442L37.9102 85.0768Z" fill="white"/>
<path d="M39.1837 86.3503L31.2031 94.3333H32.5356L39.8511 87.0178L39.1837 86.3503Z" fill="white"/>
<path d="M40.4596 87.6261L33.7525 94.3332H35.0849L41.127 88.2935L40.4596 87.6261Z" fill="white"/>
<path d="M41.7331 88.8998L36.3018 94.3334H37.6366L42.4005 89.5672L41.7331 88.8998Z" fill="white"/>
<path d="M43.0089 90.1755L38.8512 94.3333H40.186L43.6763 90.8429L43.0089 90.1755Z" fill="white"/>
<path d="M44.2848 91.449L41.4005 94.3332H42.7354L44.9498 92.1164L44.2848 91.449Z" fill="white"/>
<path d="M45.5583 92.725L43.9499 94.3333H45.2847L46.2257 93.3924L45.5583 92.725Z" fill="white"/>
<path d="M46.4993 94.3333H47.1667L46.8341 94.0007L46.4993 94.3333Z" fill="white"/>
<path d="M94.3333 47.1666H47.1667V94.3333H94.3333V47.1666Z" fill="#F8F4F4"/>
<path d="M93.6659 47.1666L47.1667 93.6659V94.3333H47.8341L94.3333 47.834V47.1666H93.6659Z" fill="white"/>
<path d="M91.185 47.1666L47.1667 91.1849V92.5174L92.5174 47.1666H91.185Z" fill="white"/>
<path d="M88.7016 47.1666L47.1667 88.7015V90.0364L90.0364 47.1666H88.7016Z" fill="white"/>
<path d="M86.2183 47.1666L47.1667 86.2183V87.5531L87.5531 47.1666H86.2183Z" fill="white"/>
<path d="M83.7373 47.1666L47.1667 83.7373V85.0698L85.0698 47.1666H83.7373Z" fill="white"/>
<path d="M81.254 47.1666L47.1667 81.254V82.5888L82.5888 47.1666H81.254Z" fill="white"/>
<path d="M78.7707 47.1666L47.1667 78.7706V80.1055L80.1055 47.1666H78.7707Z" fill="white"/>
<path d="M76.2897 47.1666L47.1667 76.2897V77.6221L77.6222 47.1666H76.2897Z" fill="white"/>
<path d="M73.8064 47.1666L47.1667 73.8064V75.1412L75.1412 47.1666H73.8064Z" fill="white"/>
<path d="M71.3231 47.1666L47.1667 71.323V72.6579L72.6579 47.1666H71.3231Z" fill="white"/>
<path d="M68.8421 47.1666L47.1667 68.8421V70.1745L70.1746 47.1666H68.8421Z" fill="white"/>
<path d="M66.3588 47.1666L47.1667 66.3587V67.6936L67.6936 47.1666H66.3588Z" fill="white"/>
<path d="M63.8778 47.1666L47.1667 63.8778V65.2102L65.2103 47.1666H63.8778Z" fill="white"/>
<path d="M61.3945 47.1666L47.1667 61.3944V62.7293L62.7293 47.1666H61.3945Z" fill="white"/>
<path d="M58.9112 47.1666L47.1667 58.9111V60.2459L60.246 47.1666H58.9112Z" fill="white"/>
<path d="M56.4302 47.1666L47.1667 56.4302V57.7626L57.7627 47.1666H56.4302Z" fill="white"/>
<path d="M53.9469 47.1666L47.1667 53.9468V55.2816L55.2817 47.1666H53.9469Z" fill="white"/>
<path d="M51.4636 47.1666L47.1667 51.4635V52.7983L52.7984 47.1666H51.4636Z" fill="white"/>
<path d="M48.9826 47.1666L47.1667 48.9825V50.315L50.315 47.1666H48.9826Z" fill="white"/>
<path d="M47.1667 47.1666V47.834L47.8341 47.1666H47.1667Z" fill="white"/>
<path d="M94.3333 0H47.1667V47.1667H94.3333V0Z" fill="#F8F4F4"/>
<path d="M94.3333 47.1667V46.4993L94.0008 46.8342L94.3333 47.1667Z" fill="white"/>
<path d="M93.3924 46.2257L94.3333 45.2848V43.95L92.725 45.5583L93.3924 46.2257Z" fill="white"/>
<path d="M92.1165 44.9498L94.3333 42.7353V41.4005L91.4514 44.2824L92.1165 44.9498Z" fill="white"/>
<path d="M90.843 43.6763L94.3333 40.186V38.8512L90.1756 43.0089L90.843 43.6763Z" fill="white"/>
<path d="M89.5671 42.4005L94.3333 37.6343V36.3019L88.8997 41.7331L89.5671 42.4005Z" fill="white"/>
<path d="M88.2936 41.127L94.3333 35.0849V33.7524L87.6262 40.4595L88.2936 41.127Z" fill="white"/>
<path d="M87.0178 39.8511L94.3333 32.5356V31.2031L86.3504 39.1837L87.0178 39.8511Z" fill="white"/>
<path d="M85.7443 38.5776L94.3333 29.9861V28.6537L85.0769 37.9101L85.7443 38.5776Z" fill="white"/>
<path d="M84.4685 37.3017L94.3333 27.4368V26.1044L83.801 36.6343L84.4685 37.3017Z" fill="white"/>
<path d="M83.1949 36.0283L94.3333 24.8876V23.5527L82.5275 35.3609L83.1949 36.0283Z" fill="white"/>
<path d="M81.9191 34.7524L94.3333 22.3381V21.0033L81.2517 34.085L81.9191 34.7524Z" fill="white"/>
<path d="M80.6432 33.4766L94.3333 19.7888V18.454L79.9782 32.8115L80.6432 33.4766Z" fill="white"/>
<path d="M79.3697 32.203L94.3333 17.2394V15.9045L78.7023 31.5356L79.3697 32.203Z" fill="white"/>
<path d="M78.0939 30.9272L94.3333 14.69V13.3552L77.4288 30.2621L78.0939 30.9272Z" fill="white"/>
<path d="M76.8203 29.6537L94.3333 12.1407V10.8059L76.1529 28.9863L76.8203 29.6537Z" fill="white"/>
<path d="M75.5445 28.3778L94.3333 9.59129V8.25647L74.8771 27.7104L75.5445 28.3778Z" fill="white"/>
<path d="M74.271 27.1043L94.3333 7.04197V5.70715L73.6036 26.4369L74.271 27.1043Z" fill="white"/>
<path d="M72.9951 25.8285L94.3333 4.4903V3.15784L72.3277 25.1611L72.9951 25.8285Z" fill="white"/>
<path d="M71.7216 24.555L94.3333 1.94098V0.608521L71.0542 23.8876L71.7216 24.555Z" fill="white"/>
<path d="M70.4458 23.2791L93.7249 0H92.3924L69.7784 22.6117L70.4458 23.2791Z" fill="white"/>
<path d="M69.1723 22.0056L91.1755 0H89.8431L68.5049 21.3382L69.1723 22.0056Z" fill="white"/>
<path d="M67.8964 20.7298L88.6262 0H87.2913L67.229 20.0623L67.8964 20.7298Z" fill="white"/>
<path d="M66.6206 19.4563L86.0768 0H84.742L65.9555 18.7888L66.6206 19.4563Z" fill="white"/>
<path d="M65.3471 18.1804L83.5275 0H82.1926L64.6797 17.513L65.3471 18.1804Z" fill="white"/>
<path d="M64.0712 16.9045L80.9781 0H79.6433L63.4062 16.2395L64.0712 16.9045Z" fill="white"/>
<path d="M62.7977 15.631L78.4287 0H77.0939L62.1303 14.9636L62.7977 15.631Z" fill="white"/>
<path d="M61.5218 14.3552L75.8794 0H74.5446L60.8568 13.6901L61.5218 14.3552Z" fill="white"/>
<path d="M60.2483 13.0817L73.33 0H71.9952L59.5809 12.4143L60.2483 13.0817Z" fill="white"/>
<path d="M58.9725 11.8058L70.7807 0H69.4458L58.3051 11.1384L58.9725 11.8058Z" fill="white"/>
<path d="M57.699 10.5323L68.229 0H66.8965L57.0316 9.86491L57.699 10.5323Z" fill="white"/>
<path d="M56.4231 9.25646L65.6796 0H64.3471L55.7557 8.58905L56.4231 9.25646Z" fill="white"/>
<path d="M55.1496 7.98296L63.1302 0H61.7978L54.4822 7.31555L55.1496 7.98296Z" fill="white"/>
<path d="M53.8738 6.7071L60.5809 0H59.2484L53.2064 6.03969L53.8738 6.7071Z" fill="white"/>
<path d="M52.6003 5.4336L58.0315 0H56.6967L51.9329 4.76619L52.6003 5.4336Z" fill="white"/>
<path d="M51.3244 4.15774L55.4822 0H54.1473L50.657 3.49033L51.3244 4.15774Z" fill="white"/>
<path d="M50.0509 2.88424L52.9328 0H51.598L49.3835 2.21683L50.0509 2.88424Z" fill="white"/>
<path d="M48.7751 1.60838L50.3834 0H49.0486L48.1077 0.940975L48.7751 1.60838Z" fill="white"/>
<path d="M47.8341 0H47.1667L47.4992 0.332525L47.8341 0Z" fill="white"/>
<path d="M141.5 0H94.3333V47.1667H141.5V0Z" fill="#F8F4F4"/>
<path d="M95.0007 47.1667L141.5 0.667408V0H140.833L94.3333 46.4993V47.1667H95.0007Z" fill="white"/>
<path d="M97.4817 47.1666L141.5 3.14838V1.81592L96.1493 47.1666H97.4817Z" fill="white"/>
<path d="M99.965 47.1667L141.5 5.63169V4.29688L98.6302 47.1667H99.965Z" fill="white"/>
<path d="M102.448 47.1666L141.5 8.11497V6.78015L101.114 47.1666H102.448Z" fill="white"/>
<path d="M104.929 47.1667L141.5 10.596V9.26355L103.597 47.1667H104.929Z" fill="white"/>
<path d="M107.413 47.1667L141.5 13.0793V11.7445L106.078 47.1667H107.413Z" fill="white"/>
<path d="M109.896 47.1666L141.5 15.5626V14.2278L108.561 47.1666H109.896Z" fill="white"/>
<path d="M112.377 47.1667L141.5 18.0436V16.7112L111.045 47.1667H112.377Z" fill="white"/>
<path d="M114.86 47.1667L141.5 20.527V19.1921L113.525 47.1667H114.86Z" fill="white"/>
<path d="M117.344 47.1666L141.5 23.0102V21.6754L116.009 47.1666H117.344Z" fill="white"/>
<path d="M119.825 47.1667L141.5 25.4913V24.1588L118.492 47.1667H119.825Z" fill="white"/>
<path d="M122.308 47.1667L141.5 27.9746V26.6398L120.973 47.1667H122.308Z" fill="white"/>
<path d="M124.789 47.1667L141.5 30.4555V29.123L123.456 47.1667H124.789Z" fill="white"/>
<path d="M127.272 47.1666L141.5 32.9388V31.604L125.937 47.1666H127.272Z" fill="white"/>
<path d="M129.756 47.1667L141.5 35.4222V34.0874L128.421 47.1667H129.756Z" fill="white"/>
<path d="M132.236 47.1667L141.5 37.9031V36.5707L130.904 47.1667H132.236Z" fill="white"/>
<path d="M134.72 47.1667L141.5 40.3865V39.0516L133.385 47.1667H134.72Z" fill="white"/>
<path d="M137.203 47.1666L141.5 42.8697V41.5349L135.868 47.1666H137.203Z" fill="white"/>
<path d="M139.684 47.1667L141.5 45.3508V44.0183L138.352 47.1667H139.684Z" fill="white"/>
<path d="M141.5 47.1667V46.4993L140.833 47.1667H141.5Z" fill="white"/>
<path d="M141.5 47.1666H94.3333V94.3333H141.5V47.1666Z" fill="#F8F4F4"/>
<path d="M94.3333 47.1666V47.834L94.6659 47.4992L94.3333 47.1666Z" fill="white"/>
<path d="M95.2743 48.1077L94.3333 49.0486V50.3835L95.9417 48.7751L95.2743 48.1077Z" fill="white"/>
<path d="M96.5502 49.3834L94.3333 51.5979V52.9327L97.2152 50.0508L96.5502 49.3834Z" fill="white"/>
<path d="M97.8237 50.657L94.3333 54.1473V55.4821L98.4911 51.3244L97.8237 50.657Z" fill="white"/>
<path d="M99.0995 51.9329L94.3333 56.699V58.0315L99.767 52.6003L99.0995 51.9329Z" fill="white"/>
<path d="M100.373 53.2063L94.3333 59.2484V60.5808L101.04 53.8737L100.373 53.2063Z" fill="white"/>
<path d="M101.649 54.4822L94.3333 61.7977V63.1302L102.316 55.1496L101.649 54.4822Z" fill="white"/>
<path d="M102.922 55.7557L94.3333 64.3471V65.6796L103.59 56.4231L102.922 55.7557Z" fill="white"/>
<path d="M104.198 57.0315L94.3333 66.8964V68.2289L104.866 57.6989L104.198 57.0315Z" fill="white"/>
<path d="M105.472 58.3051L94.3333 69.4458V70.7806L106.139 58.9725L105.472 58.3051Z" fill="white"/>
<path d="M106.748 59.5808L94.3333 71.9951V73.3299L107.415 60.2482L106.748 59.5808Z" fill="white"/>
<path d="M108.023 60.8567L94.3333 74.5445V75.8793L108.689 61.5217L108.023 60.8567Z" fill="white"/>
<path d="M109.297 62.1302L94.3333 77.0938V78.4287L109.964 62.7977L109.297 62.1302Z" fill="white"/>
<path d="M110.573 63.4061L94.3333 79.6433V80.9781L111.238 64.0712L110.573 63.4061Z" fill="white"/>
<path d="M111.846 64.6796L94.3333 82.1925V83.5274L112.514 65.347L111.846 64.6796Z" fill="white"/>
<path d="M113.122 65.9554L94.3333 84.7419V86.0767L113.79 66.6228L113.122 65.9554Z" fill="white"/>
<path d="M114.396 67.229L94.3333 87.2914V88.6262L115.063 67.8964L114.396 67.229Z" fill="white"/>
<path d="M115.672 68.5049L94.3333 89.8431V91.1755L116.339 69.1723L115.672 68.5049Z" fill="white"/>
<path d="M116.945 69.7783L94.3333 92.3924V93.7248L117.612 70.4457L116.945 69.7783Z" fill="white"/>
<path d="M118.221 71.0542L94.9418 94.3333H96.2743L118.888 71.7216L118.221 71.0542Z" fill="white"/>
<path d="M119.494 72.3276L97.4911 94.3332H98.8236L120.162 72.995L119.494 72.3276Z" fill="white"/>
<path d="M120.77 73.6035L100.041 94.3333H101.375L121.438 74.2709L120.77 73.6035Z" fill="white"/>
<path d="M122.046 74.8771L102.59 94.3333H103.925L122.711 75.5445L122.046 74.8771Z" fill="white"/>
<path d="M123.32 76.1528L105.139 94.3332H106.474L123.987 76.8202L123.32 76.1528Z" fill="white"/>
<path d="M124.595 77.4287L107.689 94.3332H109.023L125.261 78.0938L124.595 77.4287Z" fill="white"/>
<path d="M125.869 78.7023L110.238 94.3333H111.573L126.536 79.3697L125.869 78.7023Z" fill="white"/>
<path d="M127.145 79.9781L112.787 94.3333H114.122L127.81 80.6432L127.145 79.9781Z" fill="white"/>
<path d="M128.418 81.2516L115.337 94.3332H116.671L129.086 81.919L128.418 81.2516Z" fill="white"/>
<path d="M129.694 82.5275L117.886 94.3333H119.221L130.362 83.1949L129.694 82.5275Z" fill="white"/>
<path d="M130.968 83.801L120.438 94.3333H121.77L131.635 84.4684L130.968 83.801Z" fill="white"/>
<path d="M132.244 85.0768L122.987 94.3332H124.32L132.911 85.7442L132.244 85.0768Z" fill="white"/>
<path d="M133.517 86.3503L125.536 94.3333H126.869L134.184 87.0178L133.517 86.3503Z" fill="white"/>
<path d="M134.793 87.6261L128.086 94.3332H129.418L135.46 88.2935L134.793 87.6261Z" fill="white"/>
<path d="M136.066 88.8998L130.635 94.3334H131.97L136.734 89.5672L136.066 88.8998Z" fill="white"/>
<path d="M137.342 90.1755L133.185 94.3333H134.519L138.01 90.8429L137.342 90.1755Z" fill="white"/>
<path d="M138.618 91.449L135.734 94.3332H137.069L139.283 92.1164L138.618 91.449Z" fill="white"/>
<path d="M139.892 92.725L138.283 94.3333H139.618L140.559 93.3924L139.892 92.725Z" fill="white"/>
<path d="M140.833 94.3333H141.5L141.167 94.0007L140.833 94.3333Z" fill="white"/>
<path d="M188.667 47.1666H141.5V94.3333H188.667V47.1666Z" fill="#F8F4F4"/>
<path d="M187.999 47.1666L141.5 93.6659V94.3333H142.167L188.667 47.834V47.1666H187.999Z" fill="white"/>
<path d="M185.518 47.1666L141.5 91.1849V92.5174L186.851 47.1666H185.518Z" fill="white"/>
<path d="M183.035 47.1666L141.5 88.7015V90.0364L184.37 47.1666H183.035Z" fill="white"/>
<path d="M180.552 47.1666L141.5 86.2183V87.5531L181.886 47.1666H180.552Z" fill="white"/>
<path d="M178.071 47.1666L141.5 83.7373V85.0698L179.403 47.1666H178.071Z" fill="white"/>
<path d="M175.587 47.1666L141.5 81.254V82.5888L176.922 47.1666H175.587Z" fill="white"/>
<path d="M173.104 47.1666L141.5 78.7706V80.1055L174.439 47.1666H173.104Z" fill="white"/>
<path d="M170.623 47.1666L141.5 76.2897V77.6221L171.956 47.1666H170.623Z" fill="white"/>
<path d="M168.14 47.1666L141.5 73.8064V75.1412L169.475 47.1666H168.14Z" fill="white"/>
<path d="M165.656 47.1666L141.5 71.323V72.6579L166.991 47.1666H165.656Z" fill="white"/>
<path d="M163.175 47.1666L141.5 68.8421V70.1745L164.508 47.1666H163.175Z" fill="white"/>
<path d="M160.692 47.1666L141.5 66.3587V67.6936L162.027 47.1666H160.692Z" fill="white"/>
<path d="M158.211 47.1666L141.5 63.8778V65.2102L159.544 47.1666H158.211Z" fill="white"/>
<path d="M155.728 47.1666L141.5 61.3944V62.7293L157.063 47.1666H155.728Z" fill="white"/>
<path d="M153.244 47.1666L141.5 58.9111V60.2459L154.579 47.1666H153.244Z" fill="white"/>
<path d="M150.764 47.1666L141.5 56.4302V57.7626L152.096 47.1666H150.764Z" fill="white"/>
<path d="M148.28 47.1666L141.5 53.9468V55.2816L149.615 47.1666H148.28Z" fill="white"/>
<path d="M145.797 47.1666L141.5 51.4635V52.7983L147.132 47.1666H145.797Z" fill="white"/>
<path d="M143.316 47.1666L141.5 48.9825V50.315L144.648 47.1666H143.316Z" fill="white"/>
<path d="M141.5 47.1666V47.834L142.167 47.1666H141.5Z" fill="white"/>
<path d="M188.667 0H141.5V47.1667H188.667V0Z" fill="#F8F4F4"/>
<path d="M188.667 47.1667V46.4993L188.334 46.8342L188.667 47.1667Z" fill="white"/>
<path d="M187.726 46.2257L188.667 45.2848V43.95L187.058 45.5583L187.726 46.2257Z" fill="white"/>
<path d="M186.45 44.9498L188.667 42.7353V41.4005L185.785 44.2824L186.45 44.9498Z" fill="white"/>
<path d="M185.176 43.6763L188.667 40.186V38.8512L184.509 43.0089L185.176 43.6763Z" fill="white"/>
<path d="M183.901 42.4005L188.667 37.6343V36.3019L183.233 41.7331L183.901 42.4005Z" fill="white"/>
<path d="M182.627 41.127L188.667 35.0849V33.7524L181.96 40.4595L182.627 41.127Z" fill="white"/>
<path d="M181.351 39.8511L188.667 32.5356V31.2031L180.684 39.1837L181.351 39.8511Z" fill="white"/>
<path d="M180.078 38.5776L188.667 29.9861V28.6537L179.41 37.9101L180.078 38.5776Z" fill="white"/>
<path d="M178.802 37.3017L188.667 27.4368V26.1044L178.134 36.6343L178.802 37.3017Z" fill="white"/>
<path d="M177.528 36.0283L188.667 24.8876V23.5527L176.861 35.3609L177.528 36.0283Z" fill="white"/>
<path d="M176.252 34.7524L188.667 22.3381V21.0033L175.585 34.085L176.252 34.7524Z" fill="white"/>
<path d="M174.977 33.4766L188.667 19.7888V18.454L174.312 32.8115L174.977 33.4766Z" fill="white"/>
<path d="M173.703 32.203L188.667 17.2394V15.9045L173.036 31.5356L173.703 32.203Z" fill="white"/>
<path d="M172.427 30.9272L188.667 14.69V13.3552L171.762 30.2621L172.427 30.9272Z" fill="white"/>
<path d="M171.154 29.6537L188.667 12.1407V10.8059L170.486 28.9863L171.154 29.6537Z" fill="white"/>
<path d="M169.878 28.3778L188.667 9.59129V8.25647L169.21 27.7104L169.878 28.3778Z" fill="white"/>
<path d="M168.604 27.1043L188.667 7.04197V5.70715L167.937 26.4369L168.604 27.1043Z" fill="white"/>
<path d="M167.328 25.8285L188.667 4.4903V3.15784L166.661 25.1611L167.328 25.8285Z" fill="white"/>
<path d="M166.055 24.555L188.667 1.94098V0.608521L165.387 23.8876L166.055 24.555Z" fill="white"/>
<path d="M164.779 23.2791L188.058 0H186.726L164.112 22.6117L164.779 23.2791Z" fill="white"/>
<path d="M163.506 22.0056L185.509 0H184.176L162.838 21.3382L163.506 22.0056Z" fill="white"/>
<path d="M162.23 20.7298L182.959 0H181.625L161.562 20.0623L162.23 20.7298Z" fill="white"/>
<path d="M160.954 19.4563L180.41 0H179.075L160.289 18.7888L160.954 19.4563Z" fill="white"/>
<path d="M159.68 18.1804L177.861 0H176.526L159.013 17.513L159.68 18.1804Z" fill="white"/>
<path d="M158.405 16.9045L175.311 0H173.977L157.739 16.2395L158.405 16.9045Z" fill="white"/>
<path d="M157.131 15.631L172.762 0H171.427L156.464 14.9636L157.131 15.631Z" fill="white"/>
<path d="M155.855 14.3552L170.213 0H168.878L155.19 13.6901L155.855 14.3552Z" fill="white"/>
<path d="M154.582 13.0817L167.663 0H166.329L153.914 12.4143L154.582 13.0817Z" fill="white"/>
<path d="M153.306 11.8058L165.114 0H163.779L152.638 11.1384L153.306 11.8058Z" fill="white"/>
<path d="M152.032 10.5323L162.562 0H161.23L151.365 9.86491L152.032 10.5323Z" fill="white"/>
<path d="M150.756 9.25646L160.013 0H158.68L150.089 8.58905L150.756 9.25646Z" fill="white"/>
<path d="M149.483 7.98296L157.464 0H156.131L148.816 7.31555L149.483 7.98296Z" fill="white"/>
<path d="M148.207 6.7071L154.914 0H153.582L147.54 6.03969L148.207 6.7071Z" fill="white"/>
<path d="M146.934 5.4336L152.365 0H151.03L146.266 4.76619L146.934 5.4336Z" fill="white"/>
<path d="M145.658 4.15774L149.815 0H148.481L144.99 3.49033L145.658 4.15774Z" fill="white"/>
<path d="M144.382 2.88424L147.266 0H145.931L143.717 2.21683L144.382 2.88424Z" fill="white"/>
<path d="M143.108 1.60838L144.717 0H143.382L142.441 0.940975L143.108 1.60838Z" fill="white"/>
<path d="M142.167 0H141.5L141.832 0.332525L142.167 0Z" fill="white"/>
<path d="M235.833 0H188.667V47.1667H235.833V0Z" fill="#F8F4F4"/>
<path d="M189.334 47.1667L235.833 0.667408V0H235.166L188.667 46.4993V47.1667H189.334Z" fill="white"/>
<path d="M191.815 47.1666L235.833 3.14838V1.81592L190.483 47.1666H191.815Z" fill="white"/>
<path d="M194.298 47.1667L235.833 5.63169V4.29688L192.964 47.1667H194.298Z" fill="white"/>
<path d="M196.782 47.1666L235.833 8.11497V6.78015L195.447 47.1666H196.782Z" fill="white"/>
<path d="M199.263 47.1667L235.833 10.596V9.26355L197.93 47.1667H199.263Z" fill="white"/>
<path d="M201.746 47.1667L235.833 13.0793V11.7445L200.411 47.1667H201.746Z" fill="white"/>
<path d="M204.229 47.1666L235.833 15.5626V14.2278L202.895 47.1666H204.229Z" fill="white"/>
<path d="M206.71 47.1667L235.833 18.0436V16.7112L205.378 47.1667H206.71Z" fill="white"/>
<path d="M209.194 47.1667L235.833 20.527V19.1921L207.859 47.1667H209.194Z" fill="white"/>
<path d="M211.677 47.1666L235.833 23.0102V21.6754L210.342 47.1666H211.677Z" fill="white"/>
<path d="M214.158 47.1667L235.833 25.4913V24.1588L212.825 47.1667H214.158Z" fill="white"/>
<path d="M216.641 47.1667L235.833 27.9746V26.6398L215.306 47.1667H216.641Z" fill="white"/>
<path d="M219.122 47.1667L235.833 30.4555V29.123L217.79 47.1667H219.122Z" fill="white"/>
<path d="M221.606 47.1666L235.833 32.9388V31.604L220.271 47.1666H221.606Z" fill="white"/>
<path d="M224.089 47.1667L235.833 35.4222V34.0874L222.754 47.1667H224.089Z" fill="white"/>
<path d="M226.57 47.1667L235.833 37.9031V36.5707L225.237 47.1667H226.57Z" fill="white"/>
<path d="M229.053 47.1667L235.833 40.3865V39.0516L227.718 47.1667H229.053Z" fill="white"/>
<path d="M231.536 47.1666L235.833 42.8697V41.5349L230.202 47.1666H231.536Z" fill="white"/>
<path d="M234.017 47.1667L235.833 45.3508V44.0183L232.685 47.1667H234.017Z" fill="white"/>
<path d="M235.833 47.1667V46.4993L235.166 47.1667H235.833Z" fill="white"/>
<path d="M235.833 47.1666H188.667V94.3333H235.833V47.1666Z" fill="#F8F4F4"/>
<path d="M188.667 47.1666V47.834L188.999 47.4992L188.667 47.1666Z" fill="white"/>
<path d="M189.608 48.1077L188.667 49.0486V50.3835L190.275 48.7751L189.608 48.1077Z" fill="white"/>
<path d="M190.884 49.3834L188.667 51.5979V52.9327L191.549 50.0508L190.884 49.3834Z" fill="white"/>
<path d="M192.157 50.657L188.667 54.1473V55.4821L192.824 51.3244L192.157 50.657Z" fill="white"/>
<path d="M193.433 51.9329L188.667 56.699V58.0315L194.1 52.6003L193.433 51.9329Z" fill="white"/>
<path d="M194.706 53.2063L188.667 59.2484V60.5808L195.374 53.8737L194.706 53.2063Z" fill="white"/>
<path d="M195.982 54.4822L188.667 61.7977V63.1302L196.65 55.1496L195.982 54.4822Z" fill="white"/>
<path d="M197.256 55.7557L188.667 64.3471V65.6796L197.923 56.4231L197.256 55.7557Z" fill="white"/>
<path d="M198.532 57.0315L188.667 66.8964V68.2289L199.199 57.6989L198.532 57.0315Z" fill="white"/>
<path d="M199.805 58.3051L188.667 69.4458V70.7806L200.472 58.9725L199.805 58.3051Z" fill="white"/>
<path d="M201.081 59.5808L188.667 71.9951V73.3299L201.748 60.2482L201.081 59.5808Z" fill="white"/>
<path d="M202.357 60.8567L188.667 74.5445V75.8793L203.022 61.5217L202.357 60.8567Z" fill="white"/>
<path d="M203.63 62.1302L188.667 77.0938V78.4287L204.298 62.7977L203.63 62.1302Z" fill="white"/>
<path d="M204.906 63.4061L188.667 79.6433V80.9781L205.571 64.0712L204.906 63.4061Z" fill="white"/>
<path d="M206.18 64.6796L188.667 82.1925V83.5274L206.847 65.347L206.18 64.6796Z" fill="white"/>
<path d="M207.455 65.9554L188.667 84.7419V86.0767L208.123 66.6228L207.455 65.9554Z" fill="white"/>
<path d="M208.729 67.229L188.667 87.2914V88.6262L209.396 67.8964L208.729 67.229Z" fill="white"/>
<path d="M210.005 68.5049L188.667 89.8431V91.1755L210.672 69.1723L210.005 68.5049Z" fill="white"/>
<path d="M211.278 69.7783L188.667 92.3924V93.7248L211.946 70.4457L211.278 69.7783Z" fill="white"/>
<path d="M212.554 71.0542L189.275 94.3333H190.608L213.222 71.7216L212.554 71.0542Z" fill="white"/>
<path d="M213.828 72.3276L191.825 94.3332H193.157L214.495 72.995L213.828 72.3276Z" fill="white"/>
<path d="M215.104 73.6035L194.374 94.3333H195.709L215.771 74.2709L215.104 73.6035Z" fill="white"/>
<path d="M216.379 74.8771L196.923 94.3333H198.258L217.044 75.5445L216.379 74.8771Z" fill="white"/>
<path d="M217.653 76.1528L199.473 94.3332H200.807L218.32 76.8202L217.653 76.1528Z" fill="white"/>
<path d="M218.929 77.4287L202.022 94.3332H203.357L219.594 78.0938L218.929 77.4287Z" fill="white"/>
<path d="M220.202 78.7023L204.571 94.3333H205.906L220.87 79.3697L220.202 78.7023Z" fill="white"/>
<path d="M221.478 79.9781L207.121 94.3333H208.455L222.143 80.6432L221.478 79.9781Z" fill="white"/>
<path d="M222.752 81.2516L209.67 94.3332H211.005L223.419 81.919L222.752 81.2516Z" fill="white"/>
<path d="M224.028 82.5275L212.219 94.3333H213.554L224.695 83.1949L224.028 82.5275Z" fill="white"/>
<path d="M225.301 83.801L214.771 94.3333H216.104L225.968 84.4684L225.301 83.801Z" fill="white"/>
<path d="M226.577 85.0768L217.32 94.3332H218.653L227.244 85.7442L226.577 85.0768Z" fill="white"/>
<path d="M227.85 86.3503L219.87 94.3333H221.202L228.518 87.0178L227.85 86.3503Z" fill="white"/>
<path d="M229.126 87.6261L222.419 94.3332H223.752L229.794 88.2935L229.126 87.6261Z" fill="white"/>
<path d="M230.4 88.8998L224.968 94.3334H226.303L231.067 89.5672L230.4 88.8998Z" fill="white"/>
<path d="M231.676 90.1755L227.518 94.3333H228.853L232.343 90.8429L231.676 90.1755Z" fill="white"/>
<path d="M232.951 91.449L230.067 94.3332H231.402L233.617 92.1164L232.951 91.449Z" fill="white"/>
<path d="M234.225 92.725L232.617 94.3333H233.951L234.892 93.3924L234.225 92.725Z" fill="white"/>
<path d="M235.166 94.3333H235.833L235.501 94.0007L235.166 94.3333Z" fill="white"/>
<path d="M283 47.1666H235.833V94.3333H283V47.1666Z" fill="#F8F4F4"/>
<path d="M282.333 47.1666L235.833 93.6659V94.3333H236.501L283 47.834V47.1666H282.333Z" fill="white"/>
<path d="M279.852 47.1666L235.833 91.1849V92.5174L281.184 47.1666H279.852Z" fill="white"/>
<path d="M277.368 47.1666L235.833 88.7015V90.0364L278.703 47.1666H277.368Z" fill="white"/>
<path d="M274.885 47.1666L235.833 86.2183V87.5531L276.22 47.1666H274.885Z" fill="white"/>
<path d="M272.404 47.1666L235.833 83.7373V85.0698L273.736 47.1666H272.404Z" fill="white"/>
<path d="M269.921 47.1666L235.833 81.254V82.5888L271.255 47.1666H269.921Z" fill="white"/>
<path d="M267.437 47.1666L235.833 78.7706V80.1055L268.772 47.1666H267.437Z" fill="white"/>
<path d="M264.956 47.1666L235.833 76.2897V77.6221L266.289 47.1666H264.956Z" fill="white"/>
<path d="M262.473 47.1666L235.833 73.8064V75.1412L263.808 47.1666H262.473Z" fill="white"/>
<path d="M259.99 47.1666L235.833 71.323V72.6579L261.325 47.1666H259.99Z" fill="white"/>
<path d="M257.509 47.1666L235.833 68.8421V70.1745L258.841 47.1666H257.509Z" fill="white"/>
<path d="M255.025 47.1666L235.833 66.3587V67.6936L256.36 47.1666H255.025Z" fill="white"/>
<path d="M252.544 47.1666L235.833 63.8778V65.2102L253.877 47.1666H252.544Z" fill="white"/>
<path d="M250.061 47.1666L235.833 61.3944V62.7293L251.396 47.1666H250.061Z" fill="white"/>
<path d="M247.578 47.1666L235.833 58.9111V60.2459L248.913 47.1666H247.578Z" fill="white"/>
<path d="M245.097 47.1666L235.833 56.4302V57.7626L246.429 47.1666H245.097Z" fill="white"/>
<path d="M242.614 47.1666L235.833 53.9468V55.2816L243.948 47.1666H242.614Z" fill="white"/>
<path d="M240.13 47.1666L235.833 51.4635V52.7983L241.465 47.1666H240.13Z" fill="white"/>
<path d="M237.649 47.1666L235.833 48.9825V50.315L238.982 47.1666H237.649Z" fill="white"/>
<path d="M235.833 47.1666V47.834L236.501 47.1666H235.833Z" fill="white"/>
<path d="M283 0H235.833V47.1667H283V0Z" fill="#F8F4F4"/>
<path d="M279.51 43.6763L283 40.186V38.8512L278.842 43.0089L279.51 43.6763Z" fill="white"/>
<path d="M278.234 42.4005L283 37.6343V36.3019L277.566 41.7331L278.234 42.4005Z" fill="white"/>
<path d="M276.96 41.127L283 35.0849V33.7524L276.293 40.4595L276.96 41.127Z" fill="white"/>
<path d="M275.684 39.8511L283 32.5356V31.2031L275.017 39.1837L275.684 39.8511Z" fill="white"/>
<path d="M274.411 38.5776L283 29.9861V28.6537L273.743 37.9101L274.411 38.5776Z" fill="white"/>
<path d="M273.135 37.3017L283 27.4368V26.1044L272.468 36.6343L273.135 37.3017Z" fill="white"/>
<path d="M271.862 36.0283L283 24.8876V23.5527L271.194 35.3609L271.862 36.0283Z" fill="white"/>
<path d="M270.586 34.7524L283 22.3381V21.0033L269.918 34.085L270.586 34.7524Z" fill="white"/>
<path d="M269.31 33.4766L283 19.7888V18.454L268.645 32.8115L269.31 33.4766Z" fill="white"/>
<path d="M268.036 32.203L283 17.2394V15.9045L267.369 31.5356L268.036 32.203Z" fill="white"/>
<path d="M266.761 30.9272L283 14.69V13.3552L266.095 30.2621L266.761 30.9272Z" fill="white"/>
<path d="M265.487 29.6537L283 12.1407V10.8059L264.82 28.9863L265.487 29.6537Z" fill="white"/>
<path d="M264.211 28.3778L283 9.59129V8.25647L263.544 27.7104L264.211 28.3778Z" fill="white"/>
<path d="M262.938 27.1043L283 7.04197V5.70715L262.27 26.4369L262.938 27.1043Z" fill="white"/>
<path d="M261.662 25.8285L283 4.4903V3.15784L260.994 25.1611L261.662 25.8285Z" fill="white"/>
<path d="M260.388 24.555L283 1.94098V0.608521L259.721 23.8876L260.388 24.555Z" fill="white"/>
<path d="M259.112 23.2791L282.392 0H281.059L258.445 22.6117L259.112 23.2791Z" fill="white"/>
<path d="M257.839 22.0056L279.842 0H278.51L257.172 21.3382L257.839 22.0056Z" fill="white"/>
<path d="M256.563 20.7298L277.293 0H275.958L255.896 20.0623L256.563 20.7298Z" fill="white"/>
<path d="M255.287 19.4563L274.743 0H273.409L254.622 18.7888L255.287 19.4563Z" fill="white"/>
<path d="M254.014 18.1804L272.194 0H270.859L253.346 17.513L254.014 18.1804Z" fill="white"/>
<path d="M252.738 16.9045L269.645 0H268.31L252.073 16.2395L252.738 16.9045Z" fill="white"/>
<path d="M251.464 15.631L267.095 0H265.761L250.797 14.9636L251.464 15.631Z" fill="white"/>
<path d="M250.189 14.3552L264.546 0H263.211L249.523 13.6901L250.189 14.3552Z" fill="white"/>
<path d="M248.915 13.0817L261.997 0H260.662L248.248 12.4143L248.915 13.0817Z" fill="white"/>
<path d="M247.639 11.8058L259.447 0H258.113L246.972 11.1384L247.639 11.8058Z" fill="white"/>
<path d="M246.366 10.5323L256.896 0H255.563L245.698 9.86491L246.366 10.5323Z" fill="white"/>
<path d="M245.09 9.25646L254.346 0H253.014L244.422 8.58905L245.09 9.25646Z" fill="white"/>
<path d="M243.816 7.98296L251.797 0H250.464L243.149 7.31555L243.816 7.98296Z" fill="white"/>
<path d="M242.54 6.7071L249.248 0H247.915L241.873 6.03969L242.54 6.7071Z" fill="white"/>
<path d="M241.267 5.4336L246.698 0H245.363L240.6 4.76619L241.267 5.4336Z" fill="white"/>
<path d="M239.991 4.15774L244.149 0H242.814L239.324 3.49033L239.991 4.15774Z" fill="white"/>
<path d="M238.715 2.88424L241.599 0H240.265L238.05 2.21683L238.715 2.88424Z" fill="white"/>
<path d="M237.442 1.60838L239.05 0H237.715L236.774 0.940975L237.442 1.60838Z" fill="white"/>
<path d="M236.501 0H235.833L236.166 0.332525L236.501 0Z" fill="white"/>
<path d="M47.1667 94.3334H0V141.5H47.1667V94.3334Z" fill="#F8F4F4"/>
<path d="M0.667408 141.5L47.1667 95.0008V94.3334H46.4993L0 140.833V141.5H0.667408Z" fill="white"/>
<path d="M3.14838 141.5L47.1667 97.4817V96.1493L1.81592 141.5H3.14838Z" fill="white"/>
<path d="M5.63169 141.5L47.1667 99.9651V98.6302L4.29688 141.5H5.63169Z" fill="white"/>
<path d="M8.11503 141.5L47.1667 102.448V101.114L6.78021 141.5H8.11503Z" fill="white"/>
<path d="M10.596 141.5L47.1666 104.929V103.597L9.26352 141.5H10.596Z" fill="white"/>
<path d="M13.0793 141.5L47.1667 107.413V106.078L11.7445 141.5H13.0793Z" fill="white"/>
<path d="M15.5626 141.5L47.1667 109.896V108.561L14.2278 141.5H15.5626Z" fill="white"/>
<path d="M18.0436 141.5L47.1667 112.377V111.045L16.7112 141.5H18.0436Z" fill="white"/>
<path d="M20.5269 141.5L47.1667 114.86V113.525L19.1921 141.5H20.5269Z" fill="white"/>
<path d="M23.0103 141.5L47.1667 117.344V116.009L21.6754 141.5H23.0103Z" fill="white"/>
<path d="M25.4912 141.5L47.1667 119.825V118.492L24.1588 141.5H25.4912Z" fill="white"/>
<path d="M27.9746 141.5L47.1667 122.308V120.973L26.6397 141.5H27.9746Z" fill="white"/>
<path d="M30.4555 141.5L47.1667 124.789V123.456L29.1231 141.5H30.4555Z" fill="white"/>
<path d="M32.9389 141.5L47.1667 127.272V125.937L31.604 141.5H32.9389Z" fill="white"/>
<path d="M35.4222 141.5L47.1667 129.755V128.421L34.0873 141.5H35.4222Z" fill="white"/>
<path d="M37.9031 141.5L47.1667 132.237V130.904L36.5707 141.5H37.9031Z" fill="white"/>
<path d="M40.3865 141.5L47.1667 134.72V133.385L39.0516 141.5H40.3865Z" fill="white"/>
<path d="M42.8698 141.5L47.1667 137.203V135.868L41.535 141.5H42.8698Z" fill="white"/>
<path d="M45.3507 141.5L47.1667 139.684V138.352L44.0183 141.5H45.3507Z" fill="white"/>
<path d="M47.1667 141.5V140.833L46.4993 141.5H47.1667Z" fill="white"/>
<path d="M47.1667 141.5H0V188.667H47.1667V141.5Z" fill="#F8F4F4"/>
<path d="M0 141.5V142.167L0.332525 141.832L0 141.5Z" fill="white"/>
<path d="M0.940975 142.441L0 143.382V144.717L1.60838 143.108L0.940975 142.441Z" fill="white"/>
<path d="M2.21683 143.717L0 145.931V147.266L2.88188 144.384L2.21683 143.717Z" fill="white"/>
<path d="M3.49033 144.99L0 148.481V149.815L4.15774 145.658L3.49033 144.99Z" fill="white"/>
<path d="M4.76619 146.266L0 151.032V152.365L5.4336 146.934L4.76619 146.266Z" fill="white"/>
<path d="M6.03969 147.54L0 153.582V154.914L6.7071 148.207L6.03969 147.54Z" fill="white"/>
<path d="M7.31555 148.816L0 156.131V157.464L7.98296 149.483L7.31555 148.816Z" fill="white"/>
<path d="M8.58905 150.089L0 158.681V160.013L9.25646 150.757L8.58905 150.089Z" fill="white"/>
<path d="M9.86491 151.365L0 161.23V162.562L10.5323 152.032L9.86491 151.365Z" fill="white"/>
<path d="M11.1384 152.638L0 163.779V165.114L11.8058 153.306L11.1384 152.638Z" fill="white"/>
<path d="M12.4143 153.914L0 166.329V167.663L13.0817 154.582L12.4143 153.914Z" fill="white"/>
<path d="M13.6901 155.19L0 168.878V170.213L14.3552 155.855L13.6901 155.19Z" fill="white"/>
<path d="M14.9636 156.464L0 171.427V172.762L15.631 157.131L14.9636 156.464Z" fill="white"/>
<path d="M16.2395 157.74L0 173.977V175.311L16.9045 158.405L16.2395 157.74Z" fill="white"/>
<path d="M17.513 159.013L0 176.526V177.861L18.1804 159.68L17.513 159.013Z" fill="white"/>
<path d="M18.7888 160.289L0 179.075V180.41L19.4563 160.956L18.7888 160.289Z" fill="white"/>
<path d="M20.0623 161.562L0 181.625V182.959L20.7298 162.23L20.0623 161.562Z" fill="white"/>
<path d="M21.3382 162.838L0 184.176V185.509L22.0056 163.506L21.3382 162.838Z" fill="white"/>
<path d="M22.6117 164.112L0 186.726V188.058L23.2791 164.779L22.6117 164.112Z" fill="white"/>
<path d="M23.8876 165.387L0.608459 188.666H1.94092L24.555 166.055L23.8876 165.387Z" fill="white"/>
<path d="M25.1611 166.661L3.15781 188.667H4.49026L25.8285 167.329L25.1611 166.661Z" fill="white"/>
<path d="M26.4369 167.937L5.70715 188.667H7.04197L27.1043 168.604L26.4369 167.937Z" fill="white"/>
<path d="M27.7104 169.21L8.25653 188.667H9.59135L28.3778 169.878L27.7104 169.21Z" fill="white"/>
<path d="M28.9863 170.486L10.8059 188.667H12.1407L29.6537 171.154L28.9863 170.486Z" fill="white"/>
<path d="M30.2621 171.762L13.3553 188.667H14.6901L30.9272 172.427L30.2621 171.762Z" fill="white"/>
<path d="M31.5356 173.036L15.9046 188.667H17.2394L32.203 173.703L31.5356 173.036Z" fill="white"/>
<path d="M32.8115 174.312L18.4539 188.667H19.7888L33.4765 174.977L32.8115 174.312Z" fill="white"/>
<path d="M34.085 175.585L21.0033 188.667H22.3381L34.7524 176.252L34.085 175.585Z" fill="white"/>
<path d="M35.3609 176.861L23.5527 188.667H24.8875L36.0283 177.528L35.3609 176.861Z" fill="white"/>
<path d="M36.6344 178.134L26.1044 188.667H27.4369L37.3018 178.802L36.6344 178.134Z" fill="white"/>
<path d="M37.9102 179.41L28.6537 188.667H29.9862L38.5776 180.078L37.9102 179.41Z" fill="white"/>
<path d="M39.1837 180.684L31.2031 188.667H32.5356L39.8511 181.351L39.1837 180.684Z" fill="white"/>
<path d="M40.4596 181.96L33.7525 188.667H35.0849L41.127 182.627L40.4596 181.96Z" fill="white"/>
<path d="M41.7331 183.233L36.3018 188.667H37.6366L42.4005 183.901L41.7331 183.233Z" fill="white"/>
<path d="M43.0089 184.509L38.8512 188.667H40.186L43.6763 185.176L43.0089 184.509Z" fill="white"/>
<path d="M44.2848 185.782L41.4005 188.667H42.7354L44.9498 186.45L44.2848 185.782Z" fill="white"/>
<path d="M45.5583 187.058L43.9499 188.667H45.2847L46.2257 187.726L45.5583 187.058Z" fill="white"/>
<path d="M94.3333 141.5H47.1667V188.667H94.3333V141.5Z" fill="#F8F4F4"/>
<path d="M93.6659 141.5L47.1667 187.999V188.667H47.8341L94.3333 142.167V141.5H93.6659Z" fill="white"/>
<path d="M91.185 141.5L47.1667 185.518V186.851L92.5174 141.5H91.185Z" fill="white"/>
<path d="M88.7016 141.5L47.1667 183.035V184.37L90.0364 141.5H88.7016Z" fill="white"/>
<path d="M86.2183 141.5L47.1667 180.552V181.886L87.5531 141.5H86.2183Z" fill="white"/>
<path d="M83.7373 141.5L47.1667 178.071V179.403L85.0698 141.5H83.7373Z" fill="white"/>
<path d="M81.254 141.5L47.1667 175.587V176.922L82.5888 141.5H81.254Z" fill="white"/>
<path d="M78.7707 141.5L47.1667 173.104V174.439L80.1055 141.5H78.7707Z" fill="white"/>
<path d="M76.2897 141.5L47.1667 170.623V171.956L77.6222 141.5H76.2897Z" fill="white"/>
<path d="M73.8064 141.5L47.1667 168.14V169.475L75.1412 141.5H73.8064Z" fill="white"/>
<path d="M71.3231 141.5L47.1667 165.656V166.991L72.6579 141.5H71.3231Z" fill="white"/>
<path d="M68.8421 141.5L47.1667 163.175V164.508L70.1746 141.5H68.8421Z" fill="white"/>
<path d="M66.3588 141.5L47.1667 160.692V162.027L67.6936 141.5H66.3588Z" fill="white"/>
<path d="M63.8778 141.5L47.1667 158.211V159.544L65.2103 141.5H63.8778Z" fill="white"/>
<path d="M61.3945 141.5L47.1667 155.728V157.063L62.7293 141.5H61.3945Z" fill="white"/>
<path d="M58.9112 141.5L47.1667 153.244V154.579L60.246 141.5H58.9112Z" fill="white"/>
<path d="M56.4302 141.5L47.1667 150.764V152.096L57.7627 141.5H56.4302Z" fill="white"/>
<path d="M53.9469 141.5L47.1667 148.28V149.615L55.2817 141.5H53.9469Z" fill="white"/>
<path d="M51.4636 141.5L47.1667 145.797V147.132L52.7984 141.5H51.4636Z" fill="white"/>
<path d="M48.9826 141.5L47.1667 143.316V144.648L50.315 141.5H48.9826Z" fill="white"/>
<path d="M47.1667 141.5V142.167L47.8341 141.5H47.1667Z" fill="white"/>
<path d="M94.3333 94.3334H47.1667V141.5H94.3333V94.3334Z" fill="#F8F4F4"/>
<path d="M94.3333 141.5V140.833L94.0008 141.168L94.3333 141.5Z" fill="white"/>
<path d="M93.3924 140.559L94.3333 139.618V138.283L92.725 139.892L93.3924 140.559Z" fill="white"/>
<path d="M92.1165 139.283L94.3333 137.069V135.734L91.4514 138.616L92.1165 139.283Z" fill="white"/>
<path d="M90.843 138.01L94.3333 134.519V133.185L90.1756 137.342L90.843 138.01Z" fill="white"/>
<path d="M89.5671 136.734L94.3333 131.968V130.635L88.8997 136.066L89.5671 136.734Z" fill="white"/>
<path d="M88.2936 135.46L94.3333 129.418V128.086L87.6262 134.793L88.2936 135.46Z" fill="white"/>
<path d="M87.0178 134.184L94.3333 126.869V125.536L86.3504 133.517L87.0178 134.184Z" fill="white"/>
<path d="M85.7443 132.911L94.3333 124.32V122.987L85.0769 132.243L85.7443 132.911Z" fill="white"/>
<path d="M84.4685 131.635L94.3333 121.77V120.438L83.801 130.968L84.4685 131.635Z" fill="white"/>
<path d="M83.1949 130.362L94.3333 119.221V117.886L82.5275 129.694L83.1949 130.362Z" fill="white"/>
<path d="M81.9191 129.086L94.3333 116.671V115.337L81.2517 128.418L81.9191 129.086Z" fill="white"/>
<path d="M80.6432 127.81L94.3333 114.122V112.787L79.9782 127.145L80.6432 127.81Z" fill="white"/>
<path d="M79.3697 126.536L94.3333 111.573V110.238L78.7023 125.869L79.3697 126.536Z" fill="white"/>
<path d="M78.0939 125.261L94.3333 109.023V107.689L77.4288 124.595L78.0939 125.261Z" fill="white"/>
<path d="M76.8203 123.987L94.3333 106.474V105.139L76.1529 123.32L76.8203 123.987Z" fill="white"/>
<path d="M75.5445 122.711L94.3333 103.925V102.59L74.8771 122.044L75.5445 122.711Z" fill="white"/>
<path d="M74.271 121.438L94.3333 101.375V100.041L73.6036 120.77L74.271 121.438Z" fill="white"/>
<path d="M72.9951 120.162L94.3333 98.8237V97.4912L72.3277 119.494L72.9951 120.162Z" fill="white"/>
<path d="M71.7216 118.888L94.3333 96.2744V94.9419L71.0542 118.221L71.7216 118.888Z" fill="white"/>
<path d="M70.4458 117.612L93.7249 94.3334H92.3924L69.7784 116.945L70.4458 117.612Z" fill="white"/>
<path d="M69.1723 116.339L91.1755 94.3334H89.8431L68.5049 115.672L69.1723 116.339Z" fill="white"/>
<path d="M67.8964 115.063L88.6262 94.3334H87.2913L67.229 114.396L67.8964 115.063Z" fill="white"/>
<path d="M66.6206 113.79L86.0768 94.3334H84.742L65.9555 113.122L66.6206 113.79Z" fill="white"/>
<path d="M65.3471 112.514L83.5275 94.3334H82.1926L64.6797 111.846L65.3471 112.514Z" fill="white"/>
<path d="M64.0712 111.238L80.9781 94.3334H79.6433L63.4062 110.573L64.0712 111.238Z" fill="white"/>
<path d="M62.7977 109.964L78.4287 94.3334H77.0939L62.1303 109.297L62.7977 109.964Z" fill="white"/>
<path d="M61.5218 108.689L75.8794 94.3334H74.5446L60.8568 108.023L61.5218 108.689Z" fill="white"/>
<path d="M60.2483 107.415L73.33 94.3334H71.9952L59.5809 106.748L60.2483 107.415Z" fill="white"/>
<path d="M58.9725 106.139L70.7807 94.3334H69.4458L58.3051 105.472L58.9725 106.139Z" fill="white"/>
<path d="M57.699 104.866L68.229 94.3334H66.8965L57.0316 104.198L57.699 104.866Z" fill="white"/>
<path d="M56.4231 103.59L65.6796 94.3334H64.3471L55.7557 102.922L56.4231 103.59Z" fill="white"/>
<path d="M55.1496 102.316L63.1302 94.3334H61.7978L54.4822 101.649L55.1496 102.316Z" fill="white"/>
<path d="M53.8738 101.04L60.5809 94.3334H59.2484L53.2064 100.373L53.8738 101.04Z" fill="white"/>
<path d="M52.6003 99.767L58.0315 94.3334H56.6967L51.9329 99.0996L52.6003 99.767Z" fill="white"/>
<path d="M51.3244 98.4911L55.4822 94.3334H54.1473L50.657 97.8237L51.3244 98.4911Z" fill="white"/>
<path d="M50.0509 97.2176L52.9328 94.3334H51.598L49.3835 96.5502L50.0509 97.2176Z" fill="white"/>
<path d="M48.7751 95.9417L50.3834 94.3334H49.0486L48.1077 95.2743L48.7751 95.9417Z" fill="white"/>
<path d="M47.8341 94.3334H47.1667L47.4992 94.6659L47.8341 94.3334Z" fill="white"/>
<path d="M141.5 94.3334H94.3333V141.5H141.5V94.3334Z" fill="#F8F4F4"/>
<path d="M95.0007 141.5L141.5 95.0008V94.3334H140.833L94.3333 140.833V141.5H95.0007Z" fill="white"/>
<path d="M97.4817 141.5L141.5 97.4817V96.1493L96.1493 141.5H97.4817Z" fill="white"/>
<path d="M99.965 141.5L141.5 99.9651V98.6302L98.6302 141.5H99.965Z" fill="white"/>
<path d="M102.448 141.5L141.5 102.448V101.114L101.114 141.5H102.448Z" fill="white"/>
<path d="M104.929 141.5L141.5 104.929V103.597L103.597 141.5H104.929Z" fill="white"/>
<path d="M107.413 141.5L141.5 107.413V106.078L106.078 141.5H107.413Z" fill="white"/>
<path d="M109.896 141.5L141.5 109.896V108.561L108.561 141.5H109.896Z" fill="white"/>
<path d="M112.377 141.5L141.5 112.377V111.045L111.045 141.5H112.377Z" fill="white"/>
<path d="M114.86 141.5L141.5 114.86V113.525L113.525 141.5H114.86Z" fill="white"/>
<path d="M117.344 141.5L141.5 117.344V116.009L116.009 141.5H117.344Z" fill="white"/>
<path d="M119.825 141.5L141.5 119.825V118.492L118.492 141.5H119.825Z" fill="white"/>
<path d="M122.308 141.5L141.5 122.308V120.973L120.973 141.5H122.308Z" fill="white"/>
<path d="M124.789 141.5L141.5 124.789V123.456L123.456 141.5H124.789Z" fill="white"/>
<path d="M127.272 141.5L141.5 127.272V125.937L125.937 141.5H127.272Z" fill="white"/>
<path d="M129.756 141.5L141.5 129.755V128.421L128.421 141.5H129.756Z" fill="white"/>
<path d="M132.236 141.5L141.5 132.237V130.904L130.904 141.5H132.236Z" fill="white"/>
<path d="M134.72 141.5L141.5 134.72V133.385L133.385 141.5H134.72Z" fill="white"/>
<path d="M137.203 141.5L141.5 137.203V135.868L135.868 141.5H137.203Z" fill="white"/>
<path d="M139.684 141.5L141.5 139.684V138.352L138.352 141.5H139.684Z" fill="white"/>
<path d="M141.5 141.5V140.833L140.833 141.5H141.5Z" fill="white"/>
<path d="M141.5 141.5H94.3333V188.667H141.5V141.5Z" fill="#F8F4F4"/>
<path d="M94.3333 141.5V142.167L94.6659 141.832L94.3333 141.5Z" fill="white"/>
<path d="M95.2743 142.441L94.3333 143.382V144.717L95.9417 143.108L95.2743 142.441Z" fill="white"/>
<path d="M96.5502 143.717L94.3333 145.931V147.266L97.2152 144.384L96.5502 143.717Z" fill="white"/>
<path d="M97.8237 144.99L94.3333 148.481V149.815L98.4911 145.658L97.8237 144.99Z" fill="white"/>
<path d="M99.0995 146.266L94.3333 151.032V152.365L99.767 146.934L99.0995 146.266Z" fill="white"/>
<path d="M100.373 147.54L94.3333 153.582V154.914L101.04 148.207L100.373 147.54Z" fill="white"/>
<path d="M101.649 148.816L94.3333 156.131V157.464L102.316 149.483L101.649 148.816Z" fill="white"/>
<path d="M102.922 150.089L94.3333 158.681V160.013L103.59 150.757L102.922 150.089Z" fill="white"/>
<path d="M104.198 151.365L94.3333 161.23V162.562L104.866 152.032L104.198 151.365Z" fill="white"/>
<path d="M105.472 152.638L94.3333 163.779V165.114L106.139 153.306L105.472 152.638Z" fill="white"/>
<path d="M106.748 153.914L94.3333 166.329V167.663L107.415 154.582L106.748 153.914Z" fill="white"/>
<path d="M108.023 155.19L94.3333 168.878V170.213L108.689 155.855L108.023 155.19Z" fill="white"/>
<path d="M109.297 156.464L94.3333 171.427V172.762L109.964 157.131L109.297 156.464Z" fill="white"/>
<path d="M110.573 157.74L94.3333 173.977V175.311L111.238 158.405L110.573 157.74Z" fill="white"/>
<path d="M111.846 159.013L94.3333 176.526V177.861L112.514 159.68L111.846 159.013Z" fill="white"/>
<path d="M113.122 160.289L94.3333 179.075V180.41L113.79 160.956L113.122 160.289Z" fill="white"/>
<path d="M114.396 161.562L94.3333 181.625V182.959L115.063 162.23L114.396 161.562Z" fill="white"/>
<path d="M115.672 162.838L94.3333 184.176V185.509L116.339 163.506L115.672 162.838Z" fill="white"/>
<path d="M116.945 164.112L94.3333 186.726V188.058L117.612 164.779L116.945 164.112Z" fill="white"/>
<path d="M118.221 165.387L94.9418 188.666H96.2743L118.888 166.055L118.221 165.387Z" fill="white"/>
<path d="M119.494 166.661L97.4911 188.667H98.8236L120.162 167.329L119.494 166.661Z" fill="white"/>
<path d="M120.77 167.937L100.041 188.667H101.375L121.438 168.604L120.77 167.937Z" fill="white"/>
<path d="M122.046 169.21L102.59 188.667H103.925L122.711 169.878L122.046 169.21Z" fill="white"/>
<path d="M123.32 170.486L105.139 188.667H106.474L123.987 171.154L123.32 170.486Z" fill="white"/>
<path d="M124.595 171.762L107.689 188.667H109.023L125.261 172.427L124.595 171.762Z" fill="white"/>
<path d="M125.869 173.036L110.238 188.667H111.573L126.536 173.703L125.869 173.036Z" fill="white"/>
<path d="M127.145 174.312L112.787 188.667H114.122L127.81 174.977L127.145 174.312Z" fill="white"/>
<path d="M128.418 175.585L115.337 188.667H116.671L129.086 176.252L128.418 175.585Z" fill="white"/>
<path d="M129.694 176.861L117.886 188.667H119.221L130.362 177.528L129.694 176.861Z" fill="white"/>
<path d="M130.968 178.134L120.438 188.667H121.77L131.635 178.802L130.968 178.134Z" fill="white"/>
<path d="M132.244 179.41L122.987 188.667H124.32L132.911 180.078L132.244 179.41Z" fill="white"/>
<path d="M133.517 180.684L125.536 188.667H126.869L134.184 181.351L133.517 180.684Z" fill="white"/>
<path d="M134.793 181.96L128.086 188.667H129.418L135.46 182.627L134.793 181.96Z" fill="white"/>
<path d="M136.066 183.233L130.635 188.667H131.97L136.734 183.901L136.066 183.233Z" fill="white"/>
<path d="M137.342 184.509L133.185 188.667H134.519L138.01 185.176L137.342 184.509Z" fill="white"/>
<path d="M138.618 185.782L135.734 188.667H137.069L139.283 186.45L138.618 185.782Z" fill="white"/>
<path d="M139.892 187.058L138.283 188.667H139.618L140.559 187.726L139.892 187.058Z" fill="white"/>
<path d="M188.667 141.5H141.5V188.667H188.667V141.5Z" fill="#F8F4F4"/>
<path d="M187.999 141.5L141.5 187.999V188.667H142.167L188.667 142.167V141.5H187.999Z" fill="white"/>
<path d="M185.518 141.5L141.5 185.518V186.851L186.851 141.5H185.518Z" fill="white"/>
<path d="M183.035 141.5L141.5 183.035V184.37L184.37 141.5H183.035Z" fill="white"/>
<path d="M180.552 141.5L141.5 180.552V181.886L181.886 141.5H180.552Z" fill="white"/>
<path d="M178.071 141.5L141.5 178.071V179.403L179.403 141.5H178.071Z" fill="white"/>
<path d="M175.587 141.5L141.5 175.587V176.922L176.922 141.5H175.587Z" fill="white"/>
<path d="M173.104 141.5L141.5 173.104V174.439L174.439 141.5H173.104Z" fill="white"/>
<path d="M170.623 141.5L141.5 170.623V171.956L171.956 141.5H170.623Z" fill="white"/>
<path d="M168.14 141.5L141.5 168.14V169.475L169.475 141.5H168.14Z" fill="white"/>
<path d="M165.656 141.5L141.5 165.656V166.991L166.991 141.5H165.656Z" fill="white"/>
<path d="M163.175 141.5L141.5 163.175V164.508L164.508 141.5H163.175Z" fill="white"/>
<path d="M160.692 141.5L141.5 160.692V162.027L162.027 141.5H160.692Z" fill="white"/>
<path d="M158.211 141.5L141.5 158.211V159.544L159.544 141.5H158.211Z" fill="white"/>
<path d="M155.728 141.5L141.5 155.728V157.063L157.063 141.5H155.728Z" fill="white"/>
<path d="M153.244 141.5L141.5 153.244V154.579L154.579 141.5H153.244Z" fill="white"/>
<path d="M150.764 141.5L141.5 150.764V152.096L152.096 141.5H150.764Z" fill="white"/>
<path d="M148.28 141.5L141.5 148.28V149.615L149.615 141.5H148.28Z" fill="white"/>
<path d="M145.797 141.5L141.5 145.797V147.132L147.132 141.5H145.797Z" fill="white"/>
<path d="M143.316 141.5L141.5 143.316V144.648L144.648 141.5H143.316Z" fill="white"/>
<path d="M141.5 141.5V142.167L142.167 141.5H141.5Z" fill="white"/>
<path d="M188.667 94.3334H141.5V141.5H188.667V94.3334Z" fill="#F8F4F4"/>
<path d="M188.667 141.5V140.833L188.334 141.168L188.667 141.5Z" fill="white"/>
<path d="M187.726 140.559L188.667 139.618V138.283L187.058 139.892L187.726 140.559Z" fill="white"/>
<path d="M186.45 139.283L188.667 137.069V135.734L185.785 138.616L186.45 139.283Z" fill="white"/>
<path d="M185.176 138.01L188.667 134.519V133.185L184.509 137.342L185.176 138.01Z" fill="white"/>
<path d="M183.901 136.734L188.667 131.968V130.635L183.233 136.066L183.901 136.734Z" fill="white"/>
<path d="M182.627 135.46L188.667 129.418V128.086L181.96 134.793L182.627 135.46Z" fill="white"/>
<path d="M181.351 134.184L188.667 126.869V125.536L180.684 133.517L181.351 134.184Z" fill="white"/>
<path d="M180.078 132.911L188.667 124.32V122.987L179.41 132.243L180.078 132.911Z" fill="white"/>
<path d="M178.802 131.635L188.667 121.77V120.438L178.134 130.968L178.802 131.635Z" fill="white"/>
<path d="M177.528 130.362L188.667 119.221V117.886L176.861 129.694L177.528 130.362Z" fill="white"/>
<path d="M176.252 129.086L188.667 116.671V115.337L175.585 128.418L176.252 129.086Z" fill="white"/>
<path d="M174.977 127.81L188.667 114.122V112.787L174.312 127.145L174.977 127.81Z" fill="white"/>
<path d="M173.703 126.536L188.667 111.573V110.238L173.036 125.869L173.703 126.536Z" fill="white"/>
<path d="M172.427 125.261L188.667 109.023V107.689L171.762 124.595L172.427 125.261Z" fill="white"/>
<path d="M171.154 123.987L188.667 106.474V105.139L170.486 123.32L171.154 123.987Z" fill="white"/>
<path d="M169.878 122.711L188.667 103.925V102.59L169.21 122.044L169.878 122.711Z" fill="white"/>
<path d="M168.604 121.438L188.667 101.375V100.041L167.937 120.77L168.604 121.438Z" fill="white"/>
<path d="M167.328 120.162L188.667 98.8237V97.4912L166.661 119.494L167.328 120.162Z" fill="white"/>
<path d="M166.055 118.888L188.667 96.2744V94.9419L165.387 118.221L166.055 118.888Z" fill="white"/>
<path d="M164.779 117.612L188.058 94.3334H186.726L164.112 116.945L164.779 117.612Z" fill="white"/>
<path d="M163.506 116.339L185.509 94.3334H184.176L162.838 115.672L163.506 116.339Z" fill="white"/>
<path d="M162.23 115.063L182.959 94.3334H181.625L161.562 114.396L162.23 115.063Z" fill="white"/>
<path d="M160.954 113.79L180.41 94.3334H179.075L160.289 113.122L160.954 113.79Z" fill="white"/>
<path d="M159.68 112.514L177.861 94.3334H176.526L159.013 111.846L159.68 112.514Z" fill="white"/>
<path d="M158.405 111.238L175.311 94.3334H173.977L157.739 110.573L158.405 111.238Z" fill="white"/>
<path d="M157.131 109.964L172.762 94.3334H171.427L156.464 109.297L157.131 109.964Z" fill="white"/>
<path d="M155.855 108.689L170.213 94.3334H168.878L155.19 108.023L155.855 108.689Z" fill="white"/>
<path d="M154.582 107.415L167.663 94.3334H166.329L153.914 106.748L154.582 107.415Z" fill="white"/>
<path d="M153.306 106.139L165.114 94.3334H163.779L152.638 105.472L153.306 106.139Z" fill="white"/>
<path d="M152.032 104.866L162.562 94.3334H161.23L151.365 104.198L152.032 104.866Z" fill="white"/>
<path d="M150.756 103.59L160.013 94.3334H158.68L150.089 102.922L150.756 103.59Z" fill="white"/>
<path d="M149.483 102.316L157.464 94.3334H156.131L148.816 101.649L149.483 102.316Z" fill="white"/>
<path d="M148.207 101.04L154.914 94.3334H153.582L147.54 100.373L148.207 101.04Z" fill="white"/>
<path d="M146.934 99.767L152.365 94.3334H151.03L146.266 99.0996L146.934 99.767Z" fill="white"/>
<path d="M145.658 98.4911L149.815 94.3334H148.481L144.99 97.8237L145.658 98.4911Z" fill="white"/>
<path d="M144.382 97.2176L147.266 94.3334H145.931L143.717 96.5502L144.382 97.2176Z" fill="white"/>
<path d="M143.108 95.9417L144.717 94.3334H143.382L142.441 95.2743L143.108 95.9417Z" fill="white"/>
<path d="M142.167 94.3334H141.5L141.832 94.6659L142.167 94.3334Z" fill="white"/>
<path d="M235.833 94.3334H188.667V141.5H235.833V94.3334Z" fill="#F8F4F4"/>
<path d="M189.334 141.5L235.833 95.0008V94.3334H235.166L188.667 140.833V141.5H189.334Z" fill="white"/>
<path d="M191.815 141.5L235.833 97.4817V96.1493L190.483 141.5H191.815Z" fill="white"/>
<path d="M194.298 141.5L235.833 99.9651V98.6302L192.964 141.5H194.298Z" fill="white"/>
<path d="M196.782 141.5L235.833 102.448V101.114L195.447 141.5H196.782Z" fill="white"/>
<path d="M199.263 141.5L235.833 104.929V103.597L197.93 141.5H199.263Z" fill="white"/>
<path d="M201.746 141.5L235.833 107.413V106.078L200.411 141.5H201.746Z" fill="white"/>
<path d="M204.229 141.5L235.833 109.896V108.561L202.895 141.5H204.229Z" fill="white"/>
<path d="M206.71 141.5L235.833 112.377V111.045L205.378 141.5H206.71Z" fill="white"/>
<path d="M209.194 141.5L235.833 114.86V113.525L207.859 141.5H209.194Z" fill="white"/>
<path d="M211.677 141.5L235.833 117.344V116.009L210.342 141.5H211.677Z" fill="white"/>
<path d="M214.158 141.5L235.833 119.825V118.492L212.825 141.5H214.158Z" fill="white"/>
<path d="M216.641 141.5L235.833 122.308V120.973L215.306 141.5H216.641Z" fill="white"/>
<path d="M219.122 141.5L235.833 124.789V123.456L217.79 141.5H219.122Z" fill="white"/>
<path d="M221.606 141.5L235.833 127.272V125.937L220.271 141.5H221.606Z" fill="white"/>
<path d="M224.089 141.5L235.833 129.755V128.421L222.754 141.5H224.089Z" fill="white"/>
<path d="M226.57 141.5L235.833 132.237V130.904L225.237 141.5H226.57Z" fill="white"/>
<path d="M229.053 141.5L235.833 134.72V133.385L227.718 141.5H229.053Z" fill="white"/>
<path d="M231.536 141.5L235.833 137.203V135.868L230.202 141.5H231.536Z" fill="white"/>
<path d="M234.017 141.5L235.833 139.684V138.352L232.685 141.5H234.017Z" fill="white"/>
<path d="M235.833 141.5V140.833L235.166 141.5H235.833Z" fill="white"/>
<path d="M235.833 141.5H188.667V188.667H235.833V141.5Z" fill="#F8F4F4"/>
<path d="M188.667 141.5V142.167L188.999 141.832L188.667 141.5Z" fill="white"/>
<path d="M189.608 142.441L188.667 143.382V144.717L190.275 143.108L189.608 142.441Z" fill="white"/>
<path d="M190.884 143.717L188.667 145.931V147.266L191.549 144.384L190.884 143.717Z" fill="white"/>
<path d="M192.157 144.99L188.667 148.481V149.815L192.824 145.658L192.157 144.99Z" fill="white"/>
<path d="M193.433 146.266L188.667 151.032V152.365L194.1 146.934L193.433 146.266Z" fill="white"/>
<path d="M194.706 147.54L188.667 153.582V154.914L195.374 148.207L194.706 147.54Z" fill="white"/>
<path d="M195.982 148.816L188.667 156.131V157.464L196.65 149.483L195.982 148.816Z" fill="white"/>
<path d="M197.256 150.089L188.667 158.681V160.013L197.923 150.757L197.256 150.089Z" fill="white"/>
<path d="M198.532 151.365L188.667 161.23V162.562L199.199 152.032L198.532 151.365Z" fill="white"/>
<path d="M199.805 152.638L188.667 163.779V165.114L200.472 153.306L199.805 152.638Z" fill="white"/>
<path d="M201.081 153.914L188.667 166.329V167.663L201.748 154.582L201.081 153.914Z" fill="white"/>
<path d="M202.357 155.19L188.667 168.878V170.213L203.022 155.855L202.357 155.19Z" fill="white"/>
<path d="M203.63 156.464L188.667 171.427V172.762L204.298 157.131L203.63 156.464Z" fill="white"/>
<path d="M204.906 157.74L188.667 173.977V175.311L205.571 158.405L204.906 157.74Z" fill="white"/>
<path d="M206.18 159.013L188.667 176.526V177.861L206.847 159.68L206.18 159.013Z" fill="white"/>
<path d="M207.455 160.289L188.667 179.075V180.41L208.123 160.956L207.455 160.289Z" fill="white"/>
<path d="M208.729 161.562L188.667 181.625V182.959L209.396 162.23L208.729 161.562Z" fill="white"/>
<path d="M210.005 162.838L188.667 184.176V185.509L210.672 163.506L210.005 162.838Z" fill="white"/>
<path d="M211.278 164.112L188.667 186.726V188.058L211.946 164.779L211.278 164.112Z" fill="white"/>
<path d="M212.554 165.387L189.275 188.666H190.608L213.222 166.055L212.554 165.387Z" fill="white"/>
<path d="M213.828 166.661L191.825 188.667H193.157L214.495 167.329L213.828 166.661Z" fill="white"/>
<path d="M215.104 167.937L194.374 188.667H195.709L215.771 168.604L215.104 167.937Z" fill="white"/>
<path d="M216.379 169.21L196.923 188.667H198.258L217.044 169.878L216.379 169.21Z" fill="white"/>
<path d="M217.653 170.486L199.473 188.667H200.807L218.32 171.154L217.653 170.486Z" fill="white"/>
<path d="M218.929 171.762L202.022 188.667H203.357L219.594 172.427L218.929 171.762Z" fill="white"/>
<path d="M220.202 173.036L204.571 188.667H205.906L220.87 173.703L220.202 173.036Z" fill="white"/>
<path d="M221.478 174.312L207.121 188.667H208.455L222.143 174.977L221.478 174.312Z" fill="white"/>
<path d="M222.752 175.585L209.67 188.667H211.005L223.419 176.252L222.752 175.585Z" fill="white"/>
<path d="M224.028 176.861L212.219 188.667H213.554L224.695 177.528L224.028 176.861Z" fill="white"/>
<path d="M225.301 178.134L214.771 188.667H216.104L225.968 178.802L225.301 178.134Z" fill="white"/>
<path d="M226.577 179.41L217.32 188.667H218.653L227.244 180.078L226.577 179.41Z" fill="white"/>
<path d="M227.85 180.684L219.87 188.667H221.202L228.518 181.351L227.85 180.684Z" fill="white"/>
<path d="M229.126 181.96L222.419 188.667H223.752L229.794 182.627L229.126 181.96Z" fill="white"/>
<path d="M230.4 183.233L224.968 188.667H226.303L231.067 183.901L230.4 183.233Z" fill="white"/>
<path d="M231.676 184.509L227.518 188.667H228.853L232.343 185.176L231.676 184.509Z" fill="white"/>
<path d="M232.951 185.782L230.067 188.667H231.402L233.617 186.45L232.951 185.782Z" fill="white"/>
<path d="M234.225 187.058L232.617 188.667H233.951L234.892 187.726L234.225 187.058Z" fill="white"/>
<path d="M283 141.5H235.833V188.667H283V141.5Z" fill="#F8F4F4"/>
<path d="M282.333 141.5L235.833 187.999V188.667H236.501L283 142.167V141.5H282.333Z" fill="white"/>
<path d="M279.852 141.5L235.833 185.518V186.851L281.184 141.5H279.852Z" fill="white"/>
<path d="M277.368 141.5L235.833 183.035V184.37L278.703 141.5H277.368Z" fill="white"/>
<path d="M274.885 141.5L235.833 180.552V181.886L276.22 141.5H274.885Z" fill="white"/>
<path d="M272.404 141.5L235.833 178.071V179.403L273.736 141.5H272.404Z" fill="white"/>
<path d="M269.921 141.5L235.833 175.587V176.922L271.255 141.5H269.921Z" fill="white"/>
<path d="M267.437 141.5L235.833 173.104V174.439L268.772 141.5H267.437Z" fill="white"/>
<path d="M264.956 141.5L235.833 170.623V171.956L266.289 141.5H264.956Z" fill="white"/>
<path d="M262.473 141.5L235.833 168.14V169.475L263.808 141.5H262.473Z" fill="white"/>
<path d="M259.99 141.5L235.833 165.656V166.991L261.325 141.5H259.99Z" fill="white"/>
<path d="M257.509 141.5L235.833 163.175V164.508L258.841 141.5H257.509Z" fill="white"/>
<path d="M255.025 141.5L235.833 160.692V162.027L256.36 141.5H255.025Z" fill="white"/>
<path d="M252.544 141.5L235.833 158.211V159.544L253.877 141.5H252.544Z" fill="white"/>
<path d="M250.061 141.5L235.833 155.728V157.063L251.396 141.5H250.061Z" fill="white"/>
<path d="M247.578 141.5L235.833 153.244V154.579L248.913 141.5H247.578Z" fill="white"/>
<path d="M245.097 141.5L235.833 150.764V152.096L246.429 141.5H245.097Z" fill="white"/>
<path d="M242.614 141.5L235.833 148.28V149.615L243.948 141.5H242.614Z" fill="white"/>
<path d="M240.13 141.5L235.833 145.797V147.132L241.465 141.5H240.13Z" fill="white"/>
<path d="M237.649 141.5L235.833 143.316V144.648L238.982 141.5H237.649Z" fill="white"/>
<path d="M235.833 141.5V142.167L236.501 141.5H235.833Z" fill="white"/>
<path d="M283 94.3334H235.833V141.5H283V94.3334Z" fill="#F8F4F4"/>
<path d="M279.51 138.01L283 134.519V133.185L278.842 137.342L279.51 138.01Z" fill="white"/>
<path d="M278.234 136.734L283 131.968V130.635L277.566 136.066L278.234 136.734Z" fill="white"/>
<path d="M276.96 135.46L283 129.418V128.086L276.293 134.793L276.96 135.46Z" fill="white"/>
<path d="M275.684 134.184L283 126.869V125.536L275.017 133.517L275.684 134.184Z" fill="white"/>
<path d="M274.411 132.911L283 124.32V122.987L273.743 132.243L274.411 132.911Z" fill="white"/>
<path d="M273.135 131.635L283 121.77V120.438L272.468 130.968L273.135 131.635Z" fill="white"/>
<path d="M271.862 130.362L283 119.221V117.886L271.194 129.694L271.862 130.362Z" fill="white"/>
<path d="M270.586 129.086L283 116.671V115.337L269.918 128.418L270.586 129.086Z" fill="white"/>
<path d="M269.31 127.81L283 114.122V112.787L268.645 127.145L269.31 127.81Z" fill="white"/>
<path d="M268.036 126.536L283 111.573V110.238L267.369 125.869L268.036 126.536Z" fill="white"/>
<path d="M266.761 125.261L283 109.023V107.689L266.095 124.595L266.761 125.261Z" fill="white"/>
<path d="M265.487 123.987L283 106.474V105.139L264.82 123.32L265.487 123.987Z" fill="white"/>
<path d="M264.211 122.711L283 103.925V102.59L263.544 122.044L264.211 122.711Z" fill="white"/>
<path d="M262.938 121.438L283 101.375V100.041L262.27 120.77L262.938 121.438Z" fill="white"/>
<path d="M261.662 120.162L283 98.8237V97.4912L260.994 119.494L261.662 120.162Z" fill="white"/>
<path d="M260.388 118.888L283 96.2744V94.9419L259.721 118.221L260.388 118.888Z" fill="white"/>
<path d="M259.112 117.612L282.392 94.3334H281.059L258.445 116.945L259.112 117.612Z" fill="white"/>
<path d="M257.839 116.339L279.842 94.3334H278.51L257.172 115.672L257.839 116.339Z" fill="white"/>
<path d="M256.563 115.063L277.293 94.3334H275.958L255.896 114.396L256.563 115.063Z" fill="white"/>
<path d="M255.287 113.79L274.743 94.3334H273.409L254.622 113.122L255.287 113.79Z" fill="white"/>
<path d="M254.014 112.514L272.194 94.3334H270.859L253.346 111.846L254.014 112.514Z" fill="white"/>
<path d="M252.738 111.238L269.645 94.3334H268.31L252.073 110.573L252.738 111.238Z" fill="white"/>
<path d="M251.464 109.964L267.095 94.3334H265.761L250.797 109.297L251.464 109.964Z" fill="white"/>
<path d="M250.189 108.689L264.546 94.3334H263.211L249.523 108.023L250.189 108.689Z" fill="white"/>
<path d="M248.915 107.415L261.997 94.3334H260.662L248.248 106.748L248.915 107.415Z" fill="white"/>
<path d="M247.639 106.139L259.447 94.3334H258.113L246.972 105.472L247.639 106.139Z" fill="white"/>
<path d="M246.366 104.866L256.896 94.3334H255.563L245.698 104.198L246.366 104.866Z" fill="white"/>
<path d="M245.09 103.59L254.346 94.3334H253.014L244.422 102.922L245.09 103.59Z" fill="white"/>
<path d="M243.816 102.316L251.797 94.3334H250.464L243.149 101.649L243.816 102.316Z" fill="white"/>
<path d="M242.54 101.04L249.248 94.3334H247.915L241.873 100.373L242.54 101.04Z" fill="white"/>
<path d="M241.267 99.767L246.698 94.3334H245.363L240.6 99.0996L241.267 99.767Z" fill="white"/>
<path d="M239.991 98.4911L244.149 94.3334H242.814L239.324 97.8237L239.991 98.4911Z" fill="white"/>
<path d="M238.715 97.2176L241.599 94.3334H240.265L238.05 96.5502L238.715 97.2176Z" fill="white"/>
<path d="M237.442 95.9417L239.05 94.3334H237.715L236.774 95.2743L237.442 95.9417Z" fill="white"/>
<path d="M236.501 94.3334H235.833L236.166 94.6659L236.501 94.3334Z" fill="white"/>
</g>
<defs>
<clipPath id="clip0">
<rect width="280" height="188" fill="white"/>
</clipPath>
</defs>
</svg>
