<svg width="1440" height="1055" viewBox="0 0 1440 1055" fill="none" xmlns="http://www.w3.org/2000/svg">
<line x1="-276.042" y1="498.091" x2="859.99" y2="608.102" stroke="#F8F4F4"/>
<line x1="859.444" y1="608.552" x2="918.282" y2="0.963456" stroke="#F8F4F4"/>
<line x1="-278.399" y1="522.443" x2="881.985" y2="634.813" stroke="#F8F4F4"/>
<line x1="881.438" y1="635.262" x2="942.634" y2="3.32161" stroke="#F8F4F4"/>
<line x1="-280.756" y1="546.795" x2="903.979" y2="661.523" stroke="#F8F4F4"/>
<line x1="903.432" y1="661.972" x2="966.986" y2="5.67982" stroke="#F8F4F4"/>
<line x1="-283.116" y1="571.147" x2="925.972" y2="688.233" stroke="#F8F4F4"/>
<line x1="925.424" y1="688.683" x2="991.337" y2="8.03812" stroke="#F8F4F4"/>
<line x1="-285.475" y1="595.5" x2="947.966" y2="714.944" stroke="#F8F4F4"/>
<line x1="947.537" y1="714.176" x2="1015.69" y2="10.3963" stroke="#F8F4F4"/>
<line x1="-287.831" y1="619.852" x2="969.962" y2="741.654" stroke="#F8F4F4"/>
<line x1="969.414" y1="742.104" x2="1040.04" y2="12.7546" stroke="#F8F4F4"/>
<line x1="-290.19" y1="644.204" x2="991.955" y2="768.365" stroke="#F8F4F4"/>
<line x1="991.407" y1="768.814" x2="1064.39" y2="15.1126" stroke="#F8F4F4"/>
<line x1="-300.803" y1="753.789" x2="1145.72" y2="893.868" stroke="#F8F4F4"/>
<line x1="1147.61" y1="894.553" x2="1231.21" y2="31.2667" stroke="url(#paint0_linear)"/>
<line x1="-303.161" y1="778.141" x2="1168.93" y2="920.696" stroke="#F8F4F4"/>
<line x1="1169.6" y1="921.264" x2="1255.56" y2="33.6249" stroke="url(#paint1_linear)"/>
<line x1="-305.518" y1="802.494" x2="1190.93" y2="947.407" stroke="#F8F4F4"/>
<line x1="1191.6" y1="947.974" x2="1279.91" y2="35.983" stroke="url(#paint2_linear)"/>
<line x1="-307.878" y1="826.846" x2="1212.92" y2="974.117" stroke="#F8F4F4"/>
<line x1="1213.59" y1="974.685" x2="1304.26" y2="38.3413" stroke="url(#paint3_linear)"/>
<line x1="-310.233" y1="851.198" x2="1234.92" y2="1000.83" stroke="#F8F4F4"/>
<line x1="1235.59" y1="1001.39" x2="1328.62" y2="40.6995" stroke="url(#paint4_linear)"/>
<line x1="-312.592" y1="875.55" x2="1258.13" y2="1027.66" stroke="#F8F4F4"/>
<line x1="1257.58" y1="1028.11" x2="1352.97" y2="43.0577" stroke="url(#paint5_linear)"/>
<line x1="-314.95" y1="899.903" x2="1280.12" y2="1054.37" stroke="#F8F4F4"/>
<line x1="1279.57" y1="1054.82" x2="1377.32" y2="45.416" stroke="url(#paint6_linear)"/>
<path d="M846.048 668.935L831.128 660.306L841.976 654.031C847.615 650.767 848.475 646.136 848.475 643.631C848.475 641.151 847.615 636.521 841.976 633.256L814.944 617.644C811.935 615.923 808.395 615.037 804.349 615.037C800.328 615.037 796.763 615.923 793.779 617.644L775.547 628.17L681.352 573.792C678.368 572.071 674.803 571.186 670.782 571.186C666.761 571.186 663.196 572.071 660.187 573.792L621.674 596.034C618.362 597.957 616.162 599.855 614.771 602.056C613.102 604.713 612.596 608.003 613.279 612.001L633.231 711.775C634.394 716.785 638.136 721.163 644.382 724.756L671.414 740.368C674.424 742.089 677.964 742.975 681.959 742.975H681.984C686.005 742.975 689.571 742.089 692.554 740.368L769.175 696.086L791.478 708.966C794.487 710.687 798.027 711.572 802.073 711.572C806.068 711.572 809.634 710.687 812.643 708.966L846.022 689.684C851.687 686.42 852.546 681.79 852.546 679.284C852.572 676.855 851.712 672.199 846.048 668.935ZM697.688 673.211L693.212 650.741L714.908 663.267L697.688 673.211Z" fill="#F8F4F4"/>
<path d="M996.104 513.644C989.352 509.342 981.892 504.838 973.901 500.233C965.987 495.653 958.021 491.25 950.132 487.1C940.042 481.888 928.916 477.586 917.081 474.322C905.146 471.032 892.553 469.286 879.631 469.109H877.886C865.571 469.109 852.801 470.703 839.93 473.816C826.376 477.105 812.772 482.672 799.471 490.364C785.714 498.31 776.029 506.255 769.91 514.656C763.512 523.462 760.402 532.369 760.731 541.15C761.034 549.93 764.498 558.331 770.972 566.15C776.864 573.26 784.526 579.915 793.857 585.963C800.836 590.391 808.473 594.997 816.565 599.678C824.657 604.359 832.445 608.661 839.804 612.507C849.918 617.745 861.045 622.047 872.854 625.286C884.789 628.575 897.382 630.321 910.304 630.473H912.049C924.389 630.473 937.159 628.879 950.005 625.766C963.559 622.477 977.163 616.91 990.465 609.217C1004.25 601.247 1013.91 593.327 1020.03 584.926C1026.45 576.12 1029.53 567.213 1029.2 558.432C1028.9 549.677 1025.44 541.276 1018.96 533.432C1013.1 526.296 1005.43 519.667 996.104 513.644ZM950.283 566.504C949.6 567.567 947.628 569.769 942.318 572.856C937.918 575.411 933.568 577.157 929.396 578.068C926.058 578.802 922.746 579.182 919.534 579.182C918.649 579.182 917.789 579.156 916.904 579.106C912.833 578.853 908.812 578.068 904.943 576.752C900.822 575.361 896.674 573.564 892.553 571.363C877.557 563.67 863.371 555.472 850.247 546.919C846.707 544.718 843.85 542.465 841.725 540.264C840.158 538.645 839.197 537.076 838.893 535.785C838.843 535.532 838.666 534.773 839.753 533.103C840.436 532.065 842.383 529.839 847.718 526.752C852.144 524.196 856.493 522.45 860.64 521.539C863.852 520.83 867.013 520.476 870.072 520.476C871.033 520.476 871.994 520.502 872.93 520.577C876.976 520.881 880.996 521.691 884.865 523.007C889.063 524.424 893.362 526.22 897.433 528.219C911.973 535.861 926.21 544.085 939.789 552.688C943.38 554.94 946.338 557.218 948.589 559.419C950.081 560.912 951.017 562.329 951.244 563.544C951.269 563.822 951.446 564.708 950.283 566.504Z" fill="#F8F4F4"/>
<path d="M1218.5 453.775L1203.58 445.146L1214.43 438.871C1220.07 435.607 1220.93 430.976 1220.93 428.496C1220.93 426.016 1220.09 421.386 1214.43 418.121L1187.4 402.509C1184.41 400.788 1180.85 399.903 1176.8 399.877C1172.78 399.877 1169.22 400.763 1166.23 402.484L1148 413.01L1053.78 358.606C1050.8 356.886 1047.23 356 1043.21 356C1039.19 356 1035.65 356.886 1032.62 358.606L994.103 380.849C990.79 382.772 988.59 384.669 987.2 386.871C985.531 389.528 985.025 392.817 985.733 396.79L1005.66 496.589C1006.82 501.599 1010.56 505.977 1016.81 509.57L1043.84 525.183C1046.85 526.929 1050.39 527.789 1054.41 527.789H1054.44C1058.46 527.789 1062.02 526.903 1065.01 525.183L1141.63 480.926L1163.93 493.806C1166.94 495.552 1170.48 496.412 1174.53 496.412C1178.55 496.412 1182.09 495.526 1185.1 493.806L1218.48 474.524C1224.14 471.285 1225 466.629 1225 464.099C1225 461.644 1224.14 457.039 1218.5 453.775ZM1070.12 458.051L1065.64 435.556L1087.34 448.081L1070.12 458.051Z" fill="#F8F4F4"/>
<path d="M844.451 646.731L811.732 665.581C809.899 666.644 807.645 667.164 804.995 667.164C802.32 667.164 800.091 666.644 798.283 665.581L772.797 650.887L694.133 696.255C692.3 697.294 690.046 697.838 687.396 697.838C684.721 697.838 682.492 697.294 680.659 696.255L654.182 680.992C649.847 678.494 647.346 675.822 646.677 672.928L627.16 575.586C627.036 574.943 627.011 574.374 627.011 573.854C627.011 575.734 626.986 600.026 627.011 601.214C627.011 601.684 627.061 602.179 627.16 602.723L646.652 700.065C647.321 702.959 649.798 705.655 654.157 708.129L680.634 723.392C682.492 724.431 684.721 724.975 687.371 724.975C690.046 724.975 692.3 724.431 694.108 723.392L772.772 678.024L798.258 692.718C800.091 693.781 802.32 694.301 804.97 694.301C807.645 694.301 809.899 693.781 811.707 692.718L844.426 673.868C846.259 672.804 847.176 671.518 847.176 669.959V642.822C847.2 644.356 846.284 645.667 844.451 646.731Z" fill="#EE4343"/>
<path d="M843.212 635.104V607.967C843.212 609.501 842.295 610.812 840.462 611.876L818.988 624.244L842.171 637.603C842.815 636.86 843.212 636.019 843.212 635.104Z" fill="#EE4343"/>
<path d="M694.256 631.295L710.529 640.719L734.083 627.163L688.113 600.645L694.231 631.295H694.256Z" fill="#EE4343"/>
<path opacity="0.35" d="M694.256 631.295L710.529 640.719L734.083 627.163L688.113 600.645L694.231 631.295H694.256Z" fill="#3F3F3F"/>
<path opacity="0.2" d="M843.212 635.104V607.967C843.212 609.501 842.295 610.812 840.462 611.876L818.988 624.244L842.171 637.603C842.815 636.86 843.212 636.019 843.212 635.104Z" fill="#3F3F3F"/>
<path opacity="0.2" d="M844.452 646.731L811.733 665.581C809.9 666.644 807.646 667.164 804.996 667.164V694.301C807.671 694.301 809.925 693.781 811.733 692.718L844.452 673.868C846.285 672.804 847.201 671.518 847.201 669.959V642.822C847.201 644.356 846.285 645.667 844.452 646.731Z" fill="#3F3F3F"/>
<path opacity="0.25" d="M646.652 672.928L627.16 575.586C627.036 574.943 627.011 574.374 627.011 573.854C627.011 575.734 626.986 600.026 627.011 601.214C627.011 601.684 627.061 602.179 627.16 602.723L646.652 700.065C646.776 700.609 646.974 701.153 647.271 701.722V674.585C646.974 674.041 646.776 673.472 646.652 672.928Z" fill="#3F3F3F"/>
<path opacity="0.35" d="M687.369 697.863C684.694 697.863 682.465 697.319 680.632 696.28L654.155 681.017C650.663 679.013 648.335 676.886 647.27 674.585V701.722C648.335 703.998 650.663 706.15 654.155 708.154L680.632 723.417C682.49 724.456 684.719 725 687.369 725C687.642 725 687.865 725 688.112 724.95V697.813C687.865 697.863 687.617 697.863 687.369 697.863Z" fill="#3F3F3F"/>
<path opacity="0.2" d="M694.107 696.28C692.448 697.245 690.466 697.764 688.113 697.813V724.95C690.466 724.901 692.448 724.381 694.107 723.417L772.771 678.048V650.911L694.107 696.28Z" fill="#3F3F3F"/>
<path opacity="0.35" d="M798.256 665.581L772.77 650.887V678.024L798.256 692.718C800.089 693.781 802.318 694.301 804.968 694.301V667.189C802.318 667.189 800.089 666.644 798.256 665.581Z" fill="#3F3F3F"/>
<path d="M811.731 665.581C809.898 666.644 807.644 667.164 804.994 667.164C802.319 667.164 800.09 666.644 798.257 665.581L772.77 650.887L694.106 696.255C692.274 697.319 690.045 697.838 687.37 697.838C684.695 697.838 682.465 697.319 680.633 696.255L654.155 680.992C649.821 678.494 647.319 675.797 646.651 672.928L627.183 575.586C626.861 573.656 627.009 572.172 627.678 571.133C628.347 570.069 629.759 568.931 631.938 567.67L669.636 545.926C671.468 544.862 673.722 544.342 676.372 544.342C679.047 544.342 681.277 544.862 683.109 545.926L779.012 601.214L800.486 588.82C802.319 587.757 804.573 587.237 807.223 587.237C809.898 587.237 812.127 587.757 813.96 588.82L840.437 604.083C842.27 605.147 843.186 606.433 843.186 607.967C843.186 609.501 842.27 610.812 840.437 611.851L818.963 624.244L844.425 638.938C846.258 640.002 847.174 641.288 847.174 642.822C847.174 644.356 846.258 645.667 844.425 646.706L811.731 665.581ZM734.058 627.139L688.113 600.645L697.599 648.165L734.058 627.139Z" fill="#EE4343"/>
<path d="M1020.26 526.284C1020.13 532.815 1017.56 539.494 1012.6 546.297C1007.28 553.594 998.387 560.842 985.879 568.041C973.396 575.24 960.838 580.36 948.182 583.452C935.525 586.52 923.166 588.004 911.079 587.856C899.042 587.707 887.401 586.099 876.255 583.032C865.109 579.964 854.781 575.982 845.27 571.059C838.112 567.324 830.657 563.192 822.805 558.69C814.978 554.188 807.672 549.785 800.836 545.456C792.34 539.989 785.43 534.027 780.13 527.62C774.78 521.163 771.981 514.484 771.758 507.533C771.906 511.837 771.585 529.921 771.758 534.67C771.981 541.646 774.78 548.325 780.13 554.757C785.43 561.189 792.34 567.126 800.836 572.593C807.672 576.922 815.003 581.325 822.805 585.827C830.657 590.329 838.112 594.485 845.27 598.245C854.756 603.143 865.109 607.126 876.255 610.194C887.401 613.261 899.042 614.869 911.079 615.017C923.166 615.166 935.525 613.682 948.182 610.614C960.838 607.522 973.396 602.401 985.879 595.203C998.387 588.004 1007.28 580.731 1012.6 573.458C1017.93 566.161 1020.48 559.037 1020.21 552.085C1020.08 548.053 1020.36 532.444 1020.26 526.284Z" fill="#EE4343"/>
<path opacity="0.35" d="M917.765 587.707C915.536 587.781 913.307 587.88 911.102 587.856C899.065 587.707 887.424 586.099 876.278 583.032C865.133 579.964 854.804 575.982 845.293 571.059C838.135 567.324 830.68 563.192 822.829 558.69C815.002 554.188 807.695 549.785 800.859 545.456C792.364 539.989 785.453 534.027 780.153 527.62C774.803 521.163 772.004 514.484 771.781 507.533C771.93 511.837 771.608 529.921 771.781 534.67C772.004 541.646 774.803 548.325 780.153 554.757C785.453 561.189 792.364 567.126 800.859 572.593C807.695 576.922 815.027 581.325 822.829 585.827C830.68 590.329 838.135 594.485 845.293 598.245C854.78 603.143 865.133 607.126 876.278 610.194C887.424 613.261 899.065 614.869 911.102 615.017C913.307 615.042 915.536 614.968 917.765 614.869V587.707Z" fill="#3F3F3F"/>
<path opacity="0.2" d="M1020.26 526.284C1020.13 532.815 1017.56 539.494 1012.6 546.297C1007.28 553.594 998.386 560.842 985.878 568.041C973.395 575.24 960.838 580.36 948.181 583.452C937.853 585.951 927.698 587.336 917.766 587.707V614.844C927.722 614.473 937.853 613.088 948.181 610.589C960.838 607.497 973.395 602.376 985.878 595.178C998.386 587.979 1007.28 580.706 1012.6 573.434C1017.93 566.136 1020.48 559.012 1020.21 552.061C1020.08 548.053 1020.36 532.444 1020.26 526.284Z" fill="#3F3F3F"/>
<path d="M838.583 511.887C839.97 513.322 841.605 514.781 843.438 516.167C844.28 515.622 845.122 515.078 846.039 514.509C851.042 511.64 855.946 509.685 860.776 508.622C865.606 507.583 870.336 507.212 874.894 507.558C879.476 507.904 883.959 508.795 888.392 510.279C892.801 511.788 897.259 513.643 901.742 515.82C916.232 523.415 930.201 531.454 943.7 540.013C945.458 541.102 947.093 542.24 948.554 543.328C952.121 541.028 954.697 538.752 956.183 536.476C958.016 533.705 958.684 530.959 958.189 528.263C957.694 525.591 956.158 522.969 953.582 520.421C950.982 517.873 947.712 515.35 943.7 512.876C930.201 504.317 916.232 496.253 901.742 488.683C897.259 486.482 892.801 484.626 888.392 483.142C883.959 481.658 879.476 480.767 874.894 480.421C870.312 480.075 865.606 480.446 860.776 481.485C855.946 482.548 851.042 484.527 846.039 487.372C841.06 490.266 837.642 493.086 835.809 495.882C833.977 498.652 833.357 501.374 833.927 503.996C834.546 506.667 836.082 509.265 838.583 511.887Z" fill="#EE4343"/>
<path opacity="0.35" d="M838.583 511.887C839.97 513.322 841.605 514.781 843.438 516.167C844.28 515.622 845.122 515.078 846.039 514.509C851.042 511.64 855.946 509.685 860.776 508.622C865.606 507.583 870.336 507.212 874.894 507.558C879.476 507.904 883.959 508.795 888.392 510.279C892.801 511.788 897.259 513.643 901.742 515.82C916.232 523.415 930.201 531.454 943.7 540.013C945.458 541.102 947.093 542.24 948.554 543.328C952.121 541.028 954.697 538.752 956.183 536.476C958.016 533.705 958.684 530.959 958.189 528.263C957.694 525.591 956.158 522.969 953.582 520.421C950.982 517.873 947.712 515.35 943.7 512.876C930.201 504.317 916.232 496.253 901.742 488.683C897.259 486.482 892.801 484.626 888.392 483.142C883.959 481.658 879.476 480.767 874.894 480.421C870.312 480.075 865.606 480.446 860.776 481.485C855.946 482.548 851.042 484.527 846.039 487.372C841.06 490.266 837.642 493.086 835.809 495.882C833.977 498.652 833.357 501.374 833.927 503.996C834.546 506.667 836.082 509.265 838.583 511.887Z" fill="#3F3F3F"/>
<path d="M806.085 464.342C818.568 457.143 831.15 451.998 843.807 448.93C856.463 445.863 868.823 444.403 880.885 444.527C892.947 444.675 904.563 446.283 915.709 449.351C926.854 452.418 937.183 456.401 946.669 461.299C954.149 465.232 961.827 469.462 969.654 473.964C977.481 478.467 984.639 482.796 991.128 486.927C999.623 492.394 1006.53 498.356 1011.86 504.787C1017.18 511.219 1019.98 517.923 1020.23 524.874C1020.48 531.825 1017.95 538.974 1012.63 546.247C1007.3 553.545 998.385 560.793 985.902 567.991C973.419 575.19 960.836 580.335 948.18 583.403C935.523 586.47 923.164 587.93 911.102 587.806C899.04 587.658 887.424 586.05 876.278 582.982C865.107 579.915 854.804 575.932 845.293 571.034C838.135 567.299 830.655 563.168 822.828 558.641C815.001 554.139 807.67 549.711 800.834 545.381C792.338 539.914 785.428 533.953 780.103 527.521C774.778 521.089 771.979 514.385 771.731 507.434C771.484 500.483 774.035 493.359 779.335 486.061C784.71 478.813 793.602 471.54 806.085 464.342ZM943.697 512.876C930.198 504.342 916.229 496.278 901.74 488.683C897.257 486.482 892.798 484.626 888.389 483.142C883.981 481.658 879.473 480.743 874.891 480.396C870.309 480.075 865.603 480.421 860.773 481.485C855.943 482.548 851.039 484.503 846.036 487.397C841.057 490.266 837.639 493.111 835.807 495.882C833.974 498.677 833.355 501.374 833.924 504.02C834.519 506.667 836.054 509.265 838.556 511.862C841.057 514.46 844.302 517.008 848.29 519.506C861.268 527.966 875.262 536.031 890.247 543.699C894.582 546 898.941 547.905 903.349 549.389C907.758 550.873 912.291 551.764 916.947 552.061C921.604 552.357 926.359 551.962 931.189 550.898C936.019 549.834 940.923 547.88 945.926 544.986C950.929 542.116 954.322 539.271 956.155 536.501C957.988 533.73 958.657 530.984 958.161 528.288C957.666 525.592 956.131 522.994 953.555 520.446C950.979 517.898 947.685 515.375 943.697 512.876Z" fill="#EE4343"/>
<path d="M1209.23 436.364L1176.52 455.213C1174.68 456.277 1172.43 456.797 1169.78 456.797C1167.1 456.797 1164.88 456.277 1163.07 455.213L1137.58 440.519L1058.92 485.888C1057.08 486.927 1054.83 487.471 1052.18 487.471C1049.5 487.471 1047.28 486.927 1045.44 485.888L1018.97 470.625C1014.63 468.126 1012.13 465.455 1011.46 462.56L991.968 365.219C991.844 364.575 991.82 364.007 991.82 363.487C991.82 365.367 991.795 389.659 991.82 390.847C991.82 391.317 991.869 391.811 991.968 392.356L1011.46 489.697C1012.13 492.592 1014.61 495.288 1018.97 497.762L1045.44 513.025C1047.3 514.064 1049.53 514.608 1052.18 514.608C1054.85 514.608 1057.11 514.064 1058.92 513.025L1137.58 467.656L1163.07 482.35C1164.9 483.414 1167.13 483.934 1169.78 483.934C1172.45 483.934 1174.71 483.414 1176.52 482.35L1209.23 463.501C1211.07 462.437 1211.98 461.15 1211.98 459.592V432.48C1211.98 434.013 1211.07 435.3 1209.23 436.364Z" fill="#EE4343"/>
<path d="M1207.99 424.737V397.625C1207.99 399.158 1207.08 400.469 1205.25 401.533L1183.77 413.902L1206.95 427.26C1207.62 426.518 1207.99 425.677 1207.99 424.737Z" fill="#EE4343"/>
<path d="M1059.04 420.927L1075.31 430.352L1098.87 416.796L1052.92 390.278L1059.01 420.927H1059.04Z" fill="#EE4343"/>
<path opacity="0.35" d="M1059.04 420.927L1075.31 430.352L1098.87 416.796L1052.92 390.278L1059.01 420.927H1059.04Z" fill="#3F3F3F"/>
<path opacity="0.2" d="M1207.99 424.737V397.625C1207.99 399.158 1207.08 400.47 1205.25 401.533L1183.77 413.902L1206.95 427.26C1207.62 426.518 1207.99 425.677 1207.99 424.737Z" fill="#3F3F3F"/>
<path opacity="0.2" d="M1209.23 436.364L1176.51 455.214C1174.68 456.277 1172.43 456.797 1169.78 456.797V483.934C1172.45 483.934 1174.71 483.414 1176.51 482.35L1209.23 463.501C1211.07 462.437 1211.98 461.15 1211.98 459.592V432.48C1211.98 434.014 1211.07 435.3 1209.23 436.364Z" fill="#3F3F3F"/>
<path opacity="0.25" d="M1011.46 462.585L991.968 365.243C991.844 364.6 991.82 364.031 991.82 363.512C991.82 365.392 991.795 389.684 991.82 390.871C991.82 391.341 991.869 391.836 991.968 392.38L1011.46 489.722C1011.58 490.266 1011.78 490.811 1012.08 491.38V464.218C1011.76 463.674 1011.56 463.129 1011.46 462.585Z" fill="#3F3F3F"/>
<path opacity="0.35" d="M1052.15 487.496C1049.48 487.496 1047.25 486.952 1045.42 485.913L1018.94 470.65C1015.45 468.646 1013.12 466.518 1012.05 464.218V491.355C1013.12 493.631 1015.45 495.783 1018.94 497.787L1045.42 513.05C1047.28 514.089 1049.5 514.633 1052.15 514.633C1052.43 514.633 1052.65 514.633 1052.9 514.583V487.446C1052.65 487.496 1052.43 487.496 1052.15 487.496Z" fill="#3F3F3F"/>
<path opacity="0.2" d="M1058.92 485.913C1057.26 486.877 1055.27 487.397 1052.92 487.446V514.559C1055.27 514.509 1057.26 513.99 1058.92 513.025L1137.58 467.656V440.544L1058.92 485.913Z" fill="#3F3F3F"/>
<path opacity="0.35" d="M1163.06 455.238L1137.58 440.544V467.681L1163.06 482.375C1164.9 483.439 1167.13 483.958 1169.78 483.958V456.821C1167.1 456.821 1164.87 456.302 1163.06 455.238Z" fill="#3F3F3F"/>
<path d="M1176.54 455.238C1174.71 456.302 1172.45 456.821 1169.8 456.821C1167.13 456.821 1164.9 456.302 1163.07 455.238L1137.58 440.544L1058.92 485.913C1057.08 486.976 1054.85 487.496 1052.18 487.496C1049.5 487.496 1047.27 486.976 1045.44 485.913L1018.96 470.65C1014.63 468.151 1012.13 465.455 1011.46 462.585L991.991 365.243C991.669 363.314 991.818 361.83 992.487 360.791C993.156 359.727 994.567 358.589 996.747 357.327L1034.44 335.583C1036.28 334.519 1038.53 334 1041.18 334C1043.86 334 1046.09 334.519 1047.92 335.583L1143.82 390.871L1165.29 378.478C1167.13 377.414 1169.38 376.895 1172.03 376.895C1174.71 376.895 1176.94 377.414 1178.77 378.478L1205.25 393.741C1207.08 394.805 1207.99 396.091 1207.99 397.625C1207.99 399.158 1207.08 400.47 1205.25 401.508L1183.77 413.902L1209.23 428.596C1211.07 429.66 1211.98 430.946 1211.98 432.48C1211.98 434.013 1211.07 435.325 1209.23 436.364L1176.54 455.238ZM1098.87 416.771L1052.92 390.278L1062.41 437.798L1098.87 416.771Z" fill="#EE4343"/>
<path d="M817.718 889.483L809.99 885.014L815.609 881.763C818.53 880.073 818.975 877.674 818.975 876.377C818.975 875.092 818.53 872.694 815.609 871.003L801.607 862.916C800.049 862.025 798.215 861.566 796.119 861.566C794.037 861.566 792.19 862.025 790.644 862.916L781.201 868.369L732.412 840.203C730.866 839.312 729.02 838.853 726.937 838.853C724.854 838.853 723.008 839.312 721.449 840.203L701.501 851.723C699.785 852.719 698.646 853.702 697.925 854.843C697.061 856.219 696.799 857.923 697.153 859.994L707.487 911.672C708.089 914.268 710.028 916.535 713.263 918.396L727.264 926.483C728.823 927.374 730.657 927.833 732.726 927.833H732.739C734.822 927.833 736.669 927.374 738.214 926.483L777.9 903.546L789.453 910.218C791.011 911.109 792.845 911.568 794.941 911.568C797.01 911.568 798.857 911.109 800.415 910.218L817.704 900.23C820.638 898.54 821.084 896.141 821.084 894.844C821.097 893.586 820.651 891.174 817.718 889.483ZM740.873 891.698L738.555 880.06L749.793 886.547L740.873 891.698Z" fill="#F8F4F4"/>
<path d="M895.44 809.049C891.943 806.82 888.079 804.488 883.94 802.102C879.84 799.73 875.715 797.449 871.628 795.3C866.402 792.6 860.639 790.372 854.509 788.681C848.327 786.977 841.804 786.073 835.112 785.981H834.208C827.829 785.981 821.215 786.807 814.548 788.419C807.528 790.123 800.481 793.006 793.592 796.991C786.466 801.106 781.45 805.221 778.28 809.573C774.967 814.134 773.356 818.747 773.526 823.295C773.683 827.843 775.477 832.195 778.83 836.245C781.882 839.927 785.851 843.374 790.684 846.507C794.299 848.801 798.254 851.186 802.446 853.611C806.637 856.035 810.671 858.263 814.483 860.256C819.722 862.969 825.485 865.197 831.601 866.874C837.783 868.578 844.306 869.483 850.999 869.561H851.903C858.295 869.561 864.909 868.736 871.563 867.123C878.583 865.42 885.63 862.536 892.519 858.552C899.657 854.423 904.661 850.321 907.83 845.97C911.157 841.408 912.755 836.795 912.585 832.247C912.428 827.712 910.633 823.361 907.28 819.298C904.241 815.602 900.273 812.168 895.44 809.049ZM871.707 836.428C871.353 836.979 870.331 838.119 867.581 839.718C865.302 841.042 863.049 841.946 860.888 842.418C859.159 842.798 857.443 842.994 855.78 842.994C855.321 842.994 854.876 842.981 854.418 842.955C852.309 842.824 850.226 842.418 848.222 841.736C846.087 841.015 843.939 840.085 841.804 838.944C834.038 834.96 826.69 830.714 819.892 826.284C818.058 825.143 816.578 823.977 815.478 822.837C814.666 821.998 814.168 821.185 814.011 820.517C813.985 820.386 813.893 819.992 814.456 819.127C814.81 818.59 815.819 817.437 818.582 815.838C820.874 814.514 823.127 813.61 825.275 813.138C826.939 812.771 828.576 812.587 830.161 812.587C830.658 812.587 831.156 812.6 831.641 812.64C833.736 812.797 835.819 813.216 837.823 813.898C839.997 814.632 842.224 815.562 844.332 816.598C851.864 820.556 859.238 824.816 866.271 829.272C868.131 830.438 869.663 831.618 870.829 832.758C871.602 833.531 872.086 834.265 872.204 834.895C872.217 835.039 872.309 835.497 871.707 836.428Z" fill="#F8F4F4"/>
<path d="M1010.63 778.039L1002.91 773.569L1008.53 770.319C1011.45 768.628 1011.89 766.23 1011.89 764.945C1011.89 763.661 1011.46 761.262 1008.53 759.572L994.524 751.485C992.978 750.594 991.132 750.135 989.036 750.122C986.953 750.122 985.107 750.581 983.561 751.472L974.118 756.924L925.315 728.745C923.77 727.854 921.923 727.395 919.841 727.395C917.758 727.395 915.924 727.854 914.353 728.745L894.405 740.266C892.689 741.262 891.549 742.245 890.829 743.385C889.965 744.761 889.703 746.465 890.069 748.523L900.39 800.215C900.993 802.81 902.931 805.077 906.166 806.938L920.168 815.025C921.727 815.929 923.56 816.375 925.643 816.375H925.656C927.738 816.375 929.585 815.916 931.131 815.025L970.817 792.102L982.369 798.773C983.928 799.677 985.761 800.123 987.857 800.123C989.94 800.123 991.773 799.664 993.332 798.773L1010.62 788.786C1013.55 787.108 1014 784.697 1014 783.386C1014 782.115 1013.55 779.729 1010.63 778.039ZM933.777 780.254L931.458 768.602L942.696 775.09L933.777 780.254Z" fill="#F8F4F4"/>
<path d="M816.891 877.982L799.944 887.746C798.994 888.297 797.827 888.566 796.454 888.566C795.069 888.566 793.914 888.297 792.978 887.746L779.777 880.135L739.032 903.634C738.083 904.172 736.915 904.454 735.542 904.454C734.157 904.454 733.002 904.172 732.053 903.634L718.339 895.728C716.094 894.434 714.798 893.05 714.452 891.551L704.342 841.132C704.278 840.799 704.265 840.504 704.265 840.235C704.265 841.209 704.253 853.791 704.265 854.406C704.265 854.65 704.291 854.906 704.342 855.188L714.439 905.607C714.785 907.106 716.068 908.503 718.326 909.784L732.04 917.69C733.002 918.228 734.157 918.51 735.53 918.51C736.915 918.51 738.083 918.228 739.019 917.69L779.764 894.191L792.965 901.802C793.914 902.353 795.069 902.622 796.441 902.622C797.827 902.622 798.994 902.353 799.931 901.802L816.878 892.038C817.827 891.487 818.302 890.821 818.302 890.014V875.958C818.315 876.752 817.84 877.431 816.891 877.982Z" fill="#EE4343"/>
<path d="M816.248 871.96V857.904C816.248 858.699 815.773 859.378 814.824 859.929L803.701 866.335L815.709 873.254C816.043 872.87 816.248 872.434 816.248 871.96Z" fill="#EE4343"/>
<path d="M739.096 869.987L747.524 874.869L759.725 867.847L735.914 854.112L739.083 869.987H739.096Z" fill="#EE4343"/>
<path opacity="0.35" d="M739.096 869.987L747.524 874.869L759.725 867.847L735.914 854.112L739.083 869.987H739.096Z" fill="#3F3F3F"/>
<path opacity="0.2" d="M816.248 871.96V857.904C816.248 858.699 815.773 859.378 814.824 859.929L803.701 866.335L815.709 873.254C816.043 872.87 816.248 872.434 816.248 871.96Z" fill="#3F3F3F"/>
<path opacity="0.2" d="M816.89 877.982L799.943 887.746C798.993 888.297 797.826 888.566 796.453 888.566V902.622C797.839 902.622 799.006 902.353 799.943 901.802L816.89 892.038C817.839 891.487 818.314 890.821 818.314 890.014V875.958C818.314 876.752 817.839 877.431 816.89 877.982Z" fill="#3F3F3F"/>
<path opacity="0.25" d="M714.439 891.551L704.342 841.132C704.278 840.799 704.265 840.504 704.265 840.235C704.265 841.209 704.253 853.791 704.265 854.406C704.265 854.65 704.291 854.906 704.342 855.188L714.439 905.607C714.503 905.889 714.606 906.171 714.76 906.466V892.41C714.606 892.128 714.503 891.833 714.439 891.551Z" fill="#3F3F3F"/>
<path opacity="0.35" d="M735.528 904.467C734.142 904.467 732.988 904.185 732.038 903.647L718.324 895.741C716.515 894.703 715.309 893.601 714.758 892.41V906.466C715.309 907.644 716.515 908.759 718.324 909.797L732.038 917.703C733.001 918.241 734.155 918.523 735.528 918.523C735.669 918.523 735.784 918.523 735.913 918.497V904.441C735.784 904.467 735.656 904.467 735.528 904.467Z" fill="#3F3F3F"/>
<path opacity="0.2" d="M739.019 903.647C738.159 904.146 737.133 904.415 735.914 904.441V918.497C737.133 918.471 738.159 918.202 739.019 917.703L779.763 894.203V880.148L739.019 903.647Z" fill="#3F3F3F"/>
<path opacity="0.35" d="M792.965 887.746L779.764 880.135V894.191L792.965 901.802C793.914 902.353 795.069 902.622 796.441 902.622V888.579C795.069 888.579 793.914 888.297 792.965 887.746Z" fill="#3F3F3F"/>
<path d="M799.943 887.746C798.993 888.297 797.826 888.566 796.453 888.566C795.068 888.566 793.913 888.297 792.964 887.746L779.763 880.135L739.018 903.634C738.069 904.185 736.914 904.454 735.528 904.454C734.143 904.454 732.988 904.185 732.039 903.634L718.325 895.728C716.08 894.434 714.784 893.037 714.438 891.551L704.354 841.132C704.187 840.133 704.264 839.364 704.611 838.826C704.957 838.275 705.688 837.685 706.817 837.032L726.343 825.769C727.292 825.218 728.46 824.949 729.832 824.949C731.218 824.949 732.373 825.218 733.322 825.769L782.996 854.406L794.118 847.987C795.068 847.436 796.235 847.167 797.608 847.167C798.993 847.167 800.148 847.436 801.097 847.987L814.811 855.893C815.761 856.443 816.235 857.11 816.235 857.904C816.235 858.699 815.761 859.378 814.811 859.916L803.689 866.335L816.877 873.946C817.826 874.497 818.301 875.163 818.301 875.958C818.301 876.752 817.826 877.431 816.877 877.969L799.943 887.746ZM759.711 867.834L735.913 854.112L740.827 878.725L759.711 867.834Z" fill="#EE4343"/>
<path d="M907.951 815.596C907.887 818.978 906.553 822.438 903.987 825.961C901.229 829.741 896.623 833.495 890.145 837.224C883.679 840.953 877.174 843.605 870.619 845.206C864.063 846.795 857.662 847.564 851.401 847.487C845.166 847.41 839.137 846.577 833.364 844.989C827.591 843.4 822.241 841.337 817.315 838.787C813.607 836.852 809.746 834.713 805.679 832.381C801.625 830.049 797.84 827.768 794.299 825.526C789.899 822.694 786.32 819.606 783.574 816.287C780.803 812.943 779.354 809.484 779.238 805.883C779.315 808.113 779.148 817.479 779.238 819.939C779.354 823.552 780.803 827.012 783.574 830.343C786.32 833.675 789.899 836.75 794.299 839.582C797.84 841.824 801.638 844.105 805.679 846.437C809.746 848.768 813.607 850.921 817.315 852.869C822.228 855.406 827.591 857.469 833.364 859.057C839.137 860.646 845.166 861.479 851.401 861.556C857.662 861.633 864.063 860.864 870.619 859.275C877.174 857.674 883.679 855.021 890.145 851.293C896.623 847.564 901.229 843.797 903.987 840.03C906.745 836.25 908.067 832.56 907.925 828.96C907.861 826.871 908.002 818.786 907.951 815.596Z" fill="#EE4343"/>
<path opacity="0.35" d="M854.864 847.41C853.709 847.449 852.555 847.5 851.413 847.487C845.178 847.41 839.148 846.577 833.375 844.989C827.602 843.4 822.253 841.337 817.326 838.787C813.619 836.852 809.757 834.713 805.69 832.381C801.637 830.049 797.852 827.768 794.311 825.526C789.911 822.694 786.332 819.606 783.586 816.287C780.815 812.943 779.365 809.484 779.25 805.883C779.327 808.113 779.16 817.479 779.25 819.939C779.365 823.552 780.815 827.012 783.586 830.343C786.332 833.675 789.911 836.75 794.311 839.582C797.852 841.824 801.649 844.104 805.69 846.436C809.757 848.768 813.619 850.921 817.326 852.869C822.24 855.406 827.602 857.468 833.375 859.057C839.148 860.646 845.178 861.479 851.413 861.556C852.555 861.569 853.709 861.53 854.864 861.479V847.41Z" fill="#3F3F3F"/>
<path opacity="0.2" d="M907.949 815.596C907.885 818.978 906.551 822.438 903.985 825.961C901.227 829.741 896.622 833.495 890.143 837.224C883.677 840.952 877.173 843.605 870.617 845.206C865.268 846.501 860.008 847.218 854.863 847.41V861.466C860.021 861.274 865.268 860.556 870.617 859.262C877.173 857.661 883.677 855.008 890.143 851.28C896.622 847.551 901.227 843.784 903.985 840.017C906.744 836.237 908.065 832.547 907.924 828.947C907.86 826.871 908.001 818.786 907.949 815.596Z" fill="#3F3F3F"/>
<path d="M813.852 808.138C814.57 808.882 815.417 809.637 816.366 810.355C816.802 810.073 817.239 809.791 817.713 809.497C820.305 808.01 822.845 806.998 825.346 806.447C827.848 805.909 830.298 805.717 832.659 805.896C835.032 806.075 837.354 806.537 839.651 807.306C841.934 808.087 844.243 809.048 846.566 810.176C854.07 814.109 861.306 818.273 868.298 822.707C869.209 823.271 870.055 823.86 870.812 824.424C872.66 823.232 873.994 822.053 874.764 820.875C875.713 819.439 876.059 818.017 875.803 816.621C875.546 815.237 874.751 813.879 873.417 812.559C872.069 811.239 870.376 809.932 868.298 808.651C861.306 804.218 854.07 800.041 846.566 796.12C844.243 794.979 841.934 794.018 839.651 793.25C837.354 792.481 835.032 792.02 832.659 791.84C830.286 791.661 827.848 791.853 825.346 792.391C822.845 792.942 820.305 793.967 817.713 795.441C815.135 796.94 813.364 798.4 812.415 799.848C811.466 801.283 811.145 802.693 811.44 804.051C811.761 805.435 812.556 806.78 813.852 808.138Z" fill="#EE4343"/>
<path opacity="0.35" d="M813.852 808.138C814.57 808.882 815.417 809.637 816.366 810.355C816.802 810.073 817.239 809.791 817.713 809.497C820.305 808.01 822.845 806.998 825.346 806.447C827.848 805.909 830.298 805.717 832.659 805.896C835.032 806.075 837.354 806.537 839.651 807.306C841.934 808.087 844.243 809.048 846.566 810.176C854.07 814.109 861.306 818.273 868.298 822.707C869.209 823.271 870.055 823.86 870.812 824.424C872.66 823.232 873.994 822.053 874.764 820.875C875.713 819.439 876.059 818.017 875.803 816.621C875.546 815.237 874.751 813.879 873.417 812.559C872.069 811.239 870.376 809.932 868.298 808.651C861.306 804.218 854.07 800.041 846.566 796.12C844.243 794.979 841.934 794.018 839.651 793.25C837.354 792.481 835.032 792.02 832.659 791.84C830.286 791.661 827.848 791.853 825.346 792.391C822.845 792.942 820.305 793.967 817.713 795.441C815.135 796.94 813.364 798.4 812.415 799.848C811.466 801.283 811.145 802.693 811.44 804.051C811.761 805.435 812.556 806.78 813.852 808.138Z" fill="#3F3F3F"/>
<path d="M797.019 783.512C803.485 779.783 810.002 777.118 816.558 775.529C823.113 773.94 829.515 773.184 835.762 773.249C842.01 773.325 848.027 774.158 853.8 775.747C859.573 777.336 864.923 779.399 869.836 781.936C873.711 783.973 877.687 786.164 881.741 788.496C885.795 790.828 889.503 793.07 892.864 795.21C897.264 798.042 900.844 801.13 903.602 804.461C906.36 807.792 907.81 811.265 907.938 814.865C908.066 818.466 906.758 822.169 904 825.936C901.241 829.716 896.623 833.47 890.157 837.198C883.691 840.927 877.174 843.592 870.619 845.181C864.063 846.77 857.662 847.526 851.414 847.462C845.166 847.385 839.149 846.552 833.376 844.963C827.59 843.374 822.254 841.311 817.327 838.774C813.62 836.84 809.745 834.7 805.691 832.355C801.637 830.023 797.84 827.73 794.299 825.487C789.899 822.656 786.32 819.568 783.562 816.236C780.803 812.905 779.354 809.433 779.225 805.832C779.097 802.232 780.418 798.541 783.164 794.762C785.948 791.007 790.553 787.24 797.019 783.512ZM868.297 808.651C861.305 804.23 854.069 800.053 846.564 796.12C844.242 794.979 841.933 794.018 839.65 793.25C837.366 792.481 835.031 792.007 832.658 791.827C830.285 791.661 827.847 791.84 825.345 792.391C822.844 792.942 820.304 793.954 817.712 795.454C815.134 796.94 813.363 798.413 812.414 799.848C811.464 801.296 811.144 802.693 811.439 804.064C811.747 805.435 812.542 806.78 813.838 808.126C815.134 809.471 816.814 810.791 818.88 812.085C825.602 816.467 832.85 820.644 840.612 824.616C842.857 825.808 845.115 826.794 847.398 827.563C849.682 828.332 852.03 828.793 854.441 828.947C856.853 829.101 859.316 828.896 861.818 828.345C864.32 827.794 866.86 826.781 869.451 825.282C872.043 823.796 873.8 822.322 874.75 820.887C875.699 819.452 876.045 818.03 875.789 816.633C875.532 815.237 874.737 813.891 873.403 812.572C872.068 811.252 870.362 809.945 868.297 808.651Z" fill="#EE4343"/>
<path d="M1005.83 769.02L988.886 778.784C987.937 779.335 986.769 779.604 985.397 779.604C984.011 779.604 982.856 779.335 981.92 778.784L968.719 771.173L927.974 794.672C927.025 795.21 925.857 795.492 924.485 795.492C923.099 795.492 921.945 795.21 920.995 794.672L907.281 786.766C905.036 785.472 903.74 784.088 903.394 782.589L893.298 732.17C893.233 731.837 893.221 731.542 893.221 731.273C893.221 732.247 893.208 744.829 893.221 745.444C893.221 745.688 893.246 745.944 893.298 746.226L903.394 796.645C903.74 798.144 905.023 799.541 907.281 800.822L920.995 808.728C921.957 809.266 923.112 809.548 924.485 809.548C925.87 809.548 927.038 809.266 927.974 808.728L968.719 785.229L981.92 792.84C982.869 793.391 984.024 793.66 985.397 793.66C986.782 793.66 987.95 793.391 988.886 792.84L1005.83 783.076C1006.78 782.525 1007.26 781.859 1007.26 781.052V767.009C1007.26 767.803 1006.78 768.469 1005.83 769.02Z" fill="#EE4343"/>
<path d="M1005.19 762.998V748.955C1005.19 749.749 1004.72 750.429 1003.77 750.98L992.645 757.386L1004.65 764.305C1005 763.921 1005.19 763.485 1005.19 762.998Z" fill="#EE4343"/>
<path d="M928.04 761.025L936.468 765.907L948.669 758.885L924.871 745.15L928.027 761.025H928.04Z" fill="#EE4343"/>
<path opacity="0.35" d="M928.04 761.025L936.468 765.907L948.669 758.885L924.871 745.15L928.027 761.025H928.04Z" fill="#3F3F3F"/>
<path opacity="0.2" d="M1005.19 762.998V748.955C1005.19 749.749 1004.72 750.429 1003.77 750.98L992.645 757.386L1004.65 764.305C1005 763.921 1005.19 763.485 1005.19 762.998Z" fill="#3F3F3F"/>
<path opacity="0.2" d="M1005.83 769.02L988.886 778.784C987.937 779.335 986.769 779.604 985.396 779.604V793.66C986.782 793.66 987.949 793.391 988.886 792.84L1005.83 783.076C1006.78 782.525 1007.26 781.859 1007.26 781.052V767.009C1007.26 767.803 1006.78 768.469 1005.83 769.02Z" fill="#3F3F3F"/>
<path opacity="0.25" d="M903.394 782.602L893.298 732.183C893.233 731.85 893.221 731.555 893.221 731.286C893.221 732.26 893.208 744.842 893.221 745.457C893.221 745.701 893.246 745.957 893.298 746.239L903.394 796.658C903.458 796.94 903.561 797.222 903.715 797.516V783.448C903.548 783.166 903.445 782.884 903.394 782.602Z" fill="#3F3F3F"/>
<path opacity="0.35" d="M924.471 795.505C923.086 795.505 921.931 795.223 920.982 794.685L907.268 786.779C905.459 785.741 904.253 784.639 903.701 783.448V797.504C904.253 798.682 905.459 799.797 907.268 800.835L920.982 808.741C921.944 809.279 923.099 809.561 924.471 809.561C924.612 809.561 924.728 809.561 924.856 809.535V795.479C924.728 795.505 924.612 795.505 924.471 795.505Z" fill="#3F3F3F"/>
<path opacity="0.2" d="M927.976 794.685C927.116 795.184 926.09 795.454 924.871 795.479V809.522C926.09 809.497 927.116 809.228 927.976 808.728L968.72 785.229V771.186L927.976 794.685Z" fill="#3F3F3F"/>
<path opacity="0.35" d="M981.92 778.797L968.719 771.186V785.242L981.92 792.852C982.869 793.403 984.024 793.673 985.396 793.673V779.617C984.011 779.617 982.856 779.348 981.92 778.797Z" fill="#3F3F3F"/>
<path d="M988.9 778.797C987.95 779.348 986.783 779.617 985.41 779.617C984.025 779.617 982.87 779.348 981.921 778.797L968.72 771.186L927.975 794.685C927.026 795.236 925.871 795.505 924.485 795.505C923.1 795.505 921.945 795.236 920.996 794.685L907.282 786.779C905.037 785.485 903.741 784.088 903.395 782.602L893.311 732.183C893.144 731.183 893.221 730.415 893.568 729.877C893.914 729.326 894.645 728.736 895.774 728.083L915.3 716.82C916.249 716.269 917.417 716 918.789 716C920.175 716 921.33 716.269 922.279 716.82L971.953 745.457L983.075 739.038C984.025 738.487 985.192 738.218 986.565 738.218C987.95 738.218 989.105 738.487 990.054 739.038L1003.77 746.943C1004.72 747.494 1005.19 748.161 1005.19 748.955C1005.19 749.749 1004.72 750.429 1003.77 750.967L992.646 757.386L1005.83 764.997C1006.78 765.548 1007.26 766.214 1007.26 767.009C1007.26 767.803 1006.78 768.482 1005.83 769.02L988.9 778.797ZM948.668 758.872L924.87 745.15L929.784 769.763L948.668 758.872Z" fill="#EE4343"/>
<path d="M341.506 890.106L338.337 888.273L340.641 886.94C341.839 886.247 342.021 885.263 342.021 884.731C342.021 884.204 341.839 883.221 340.641 882.527L334.899 879.211C334.26 878.845 333.508 878.657 332.648 878.657C331.794 878.657 331.037 878.845 330.403 879.211L326.53 881.447L306.522 869.896C305.888 869.531 305.131 869.343 304.277 869.343C303.423 869.343 302.666 869.531 302.026 869.896L293.846 874.621C293.142 875.029 292.675 875.432 292.38 875.9C292.025 876.464 291.918 877.163 292.063 878.012L296.301 899.205C296.548 900.27 297.343 901.2 298.669 901.963L304.411 905.279C305.05 905.645 305.802 905.833 306.651 905.833H306.656C307.511 905.833 308.268 905.645 308.902 905.279L325.177 895.873L329.914 898.609C330.553 898.974 331.305 899.162 332.165 899.162C333.014 899.162 333.771 898.974 334.41 898.609L341.5 894.513C342.703 893.82 342.886 892.836 342.886 892.304C342.891 891.788 342.709 890.799 341.506 890.106ZM309.992 891.014L309.041 886.241L313.65 888.902L309.992 891.014Z" fill="#F8F4F4"/>
<path d="M373.378 857.12C371.944 856.206 370.36 855.25 368.662 854.271C366.981 853.298 365.289 852.363 363.613 851.482C361.47 850.374 359.107 849.461 356.593 848.767C354.058 848.069 351.383 847.698 348.638 847.66H348.267C345.651 847.66 342.939 847.999 340.205 848.66C337.326 849.359 334.436 850.541 331.611 852.175C328.689 853.863 326.632 855.551 325.332 857.335C323.973 859.205 323.312 861.097 323.382 862.963C323.446 864.828 324.182 866.612 325.557 868.273C326.809 869.783 328.436 871.197 330.418 872.481C331.901 873.422 333.523 874.4 335.242 875.395C336.961 876.389 338.615 877.303 340.178 878.12C342.327 879.232 344.69 880.146 347.198 880.834C349.734 881.533 352.409 881.904 355.153 881.936H355.524C358.145 881.936 360.858 881.597 363.586 880.936C366.465 880.237 369.355 879.055 372.18 877.421C375.108 875.728 377.16 874.046 378.459 872.261C379.824 870.391 380.479 868.499 380.409 866.634C380.345 864.774 379.609 862.989 378.234 861.323C376.988 859.807 375.36 858.399 373.378 857.12ZM363.645 868.348C363.5 868.574 363.081 869.042 361.953 869.697C361.019 870.24 360.095 870.611 359.209 870.804C358.5 870.96 357.796 871.041 357.114 871.041C356.926 871.041 356.743 871.036 356.555 871.025C355.69 870.971 354.836 870.804 354.015 870.525C353.139 870.229 352.258 869.848 351.383 869.38C348.197 867.746 345.184 866.005 342.396 864.188C341.644 863.72 341.037 863.242 340.586 862.774C340.253 862.43 340.049 862.097 339.985 861.823C339.974 861.769 339.936 861.608 340.167 861.253C340.312 861.033 340.726 860.56 341.859 859.904C342.799 859.361 343.723 858.99 344.604 858.797C345.286 858.646 345.958 858.571 346.608 858.571C346.812 858.571 347.016 858.577 347.215 858.593C348.074 858.657 348.928 858.829 349.75 859.109C350.641 859.41 351.555 859.791 352.419 860.216C355.508 861.839 358.532 863.586 361.416 865.413C362.179 865.892 362.807 866.376 363.285 866.843C363.602 867.16 363.801 867.461 363.849 867.719C363.855 867.778 363.892 867.967 363.645 868.348Z" fill="#F8F4F4"/>
<path d="M420.62 844.403L417.451 842.57L419.756 841.237C420.953 840.544 421.136 839.56 421.136 839.033C421.136 838.507 420.959 837.523 419.756 836.83L414.014 833.513C413.38 833.148 412.622 832.96 411.763 832.954C410.909 832.954 410.152 833.143 409.518 833.508L405.645 835.744L385.632 824.188C384.998 823.822 384.24 823.634 383.386 823.634C382.532 823.634 381.78 823.822 381.136 824.188L372.955 828.912C372.252 829.321 371.784 829.724 371.489 830.192C371.134 830.756 371.027 831.455 371.177 832.299L375.41 853.497C375.657 854.562 376.452 855.491 377.779 856.255L383.521 859.571C384.16 859.942 384.912 860.125 385.766 860.125H385.771C386.625 860.125 387.383 859.936 388.016 859.571L404.292 850.17L409.029 852.906C409.668 853.277 410.42 853.46 411.28 853.46C412.134 853.46 412.886 853.272 413.525 852.906L420.615 848.81C421.818 848.122 422.001 847.133 422.001 846.596C422.001 846.075 421.818 845.096 420.62 844.403ZM389.101 845.311L388.151 840.533L392.759 843.194L389.101 845.311Z" fill="#F8F4F4"/>
<path d="M341.168 885.389L334.218 889.393C333.829 889.619 333.35 889.73 332.787 889.73C332.219 889.73 331.745 889.619 331.361 889.393L325.948 886.272L309.238 895.909C308.849 896.13 308.37 896.245 307.807 896.245C307.239 896.245 306.766 896.13 306.376 895.909L300.752 892.667C299.832 892.136 299.3 891.569 299.158 890.954L295.012 870.277C294.986 870.141 294.981 870.02 294.981 869.909C294.981 870.309 294.976 875.469 294.981 875.721C294.981 875.821 294.991 875.926 295.012 876.041L299.153 896.718C299.295 897.333 299.821 897.906 300.747 898.431L306.371 901.673C306.766 901.894 307.239 902.009 307.802 902.009C308.37 902.009 308.849 901.894 309.233 901.673L325.942 892.036L331.356 895.158C331.745 895.383 332.219 895.494 332.782 895.494C333.35 895.494 333.829 895.383 334.213 895.158L341.163 891.154C341.552 890.928 341.747 890.654 341.747 890.323V884.559C341.752 884.885 341.557 885.163 341.168 885.389Z" fill="#EE4343"/>
<path d="M340.905 882.92V877.155C340.905 877.481 340.71 877.76 340.321 877.986L335.76 880.613L340.684 883.45C340.821 883.293 340.905 883.114 340.905 882.92Z" fill="#EE4343"/>
<path d="M309.266 882.111L312.722 884.113L317.726 881.233L307.961 875.6L309.26 882.111H309.266Z" fill="#EE4343"/>
<path opacity="0.35" d="M309.266 882.111L312.722 884.113L317.726 881.233L307.961 875.6L309.26 882.111H309.266Z" fill="#3F3F3F"/>
<path opacity="0.2" d="M340.905 882.92V877.155C340.905 877.481 340.71 877.76 340.321 877.986L335.76 880.613L340.684 883.45C340.821 883.293 340.905 883.114 340.905 882.92Z" fill="#3F3F3F"/>
<path opacity="0.2" d="M341.168 885.389L334.218 889.393C333.829 889.619 333.35 889.73 332.787 889.73V895.494C333.355 895.494 333.834 895.384 334.218 895.158L341.168 891.154C341.557 890.928 341.752 890.654 341.752 890.323V884.559C341.752 884.885 341.557 885.163 341.168 885.389Z" fill="#3F3F3F"/>
<path opacity="0.25" d="M299.153 890.954L295.012 870.277C294.986 870.141 294.981 870.02 294.981 869.909C294.981 870.309 294.976 875.469 294.981 875.721C294.981 875.821 294.991 875.926 295.012 876.041L299.153 896.718C299.179 896.834 299.221 896.949 299.284 897.07V891.306C299.221 891.19 299.179 891.069 299.153 890.954Z" fill="#3F3F3F"/>
<path opacity="0.35" d="M307.803 896.251C307.235 896.251 306.761 896.135 306.372 895.914L300.748 892.672C300.006 892.247 299.511 891.795 299.285 891.306V897.07C299.511 897.554 300.006 898.011 300.748 898.436L306.372 901.678C306.766 901.899 307.24 902.015 307.803 902.015C307.861 902.015 307.908 902.015 307.961 902.004V896.24C307.908 896.251 307.855 896.251 307.803 896.251Z" fill="#3F3F3F"/>
<path opacity="0.2" d="M309.234 895.914C308.882 896.119 308.461 896.229 307.961 896.24V902.004C308.461 901.994 308.882 901.883 309.234 901.678L325.943 892.042V886.277L309.234 895.914Z" fill="#3F3F3F"/>
<path opacity="0.35" d="M331.357 889.393L325.943 886.272V892.036L331.357 895.158C331.746 895.383 332.22 895.494 332.783 895.494V889.735C332.22 889.735 331.746 889.619 331.357 889.393Z" fill="#3F3F3F"/>
<path d="M334.217 889.393C333.828 889.619 333.349 889.73 332.786 889.73C332.218 889.73 331.745 889.619 331.355 889.393L325.942 886.272L309.233 895.909C308.843 896.135 308.37 896.245 307.802 896.245C307.233 896.245 306.76 896.135 306.371 895.909L300.746 892.667C299.826 892.136 299.294 891.563 299.152 890.954L295.017 870.277C294.949 869.867 294.98 869.552 295.122 869.331C295.264 869.105 295.564 868.864 296.027 868.596L304.035 863.977C304.424 863.751 304.903 863.641 305.466 863.641C306.034 863.641 306.507 863.751 306.897 863.977L327.268 875.721L331.829 873.088C332.218 872.862 332.697 872.752 333.26 872.752C333.828 872.752 334.302 872.862 334.691 873.088L340.315 876.33C340.704 876.556 340.899 876.83 340.899 877.155C340.899 877.481 340.704 877.76 340.315 877.98L335.754 880.613L341.162 883.734C341.551 883.96 341.746 884.233 341.746 884.559C341.746 884.885 341.551 885.163 341.162 885.384L334.217 889.393ZM317.719 881.228L307.959 875.6L309.974 885.694L317.719 881.228Z" fill="#EE4343"/>
<path d="M378.509 859.805C378.482 861.192 377.935 862.611 376.883 864.056C375.752 865.606 373.863 867.145 371.206 868.675C368.555 870.204 365.887 871.291 363.199 871.948C360.51 872.6 357.885 872.915 355.318 872.883C352.761 872.852 350.288 872.51 347.921 871.859C345.553 871.207 343.359 870.361 341.339 869.316C339.819 868.522 338.235 867.645 336.567 866.688C334.905 865.732 333.353 864.797 331.901 863.877C330.096 862.716 328.628 861.45 327.502 860.089C326.366 858.717 325.771 857.298 325.724 855.822C325.756 856.736 325.687 860.577 325.724 861.586C325.771 863.068 326.366 864.487 327.502 865.853C328.628 867.219 330.096 868.48 331.901 869.641C333.353 870.561 334.91 871.496 336.567 872.453C338.235 873.409 339.819 874.292 341.339 875.09C343.354 876.131 345.553 876.977 347.921 877.628C350.288 878.28 352.761 878.621 355.318 878.653C357.885 878.684 360.51 878.369 363.199 877.718C365.887 877.061 368.555 875.973 371.206 874.444C373.863 872.915 375.752 871.37 376.883 869.825C378.014 868.275 378.556 866.762 378.498 865.285C378.472 864.429 378.53 861.113 378.509 859.805Z" fill="#EE4343"/>
<path opacity="0.35" d="M356.737 872.852C356.263 872.868 355.79 872.889 355.322 872.883C352.765 872.852 350.292 872.51 347.925 871.859C345.557 871.207 343.363 870.361 341.343 869.316C339.822 868.522 338.239 867.645 336.571 866.688C334.909 865.732 333.357 864.797 331.905 863.877C330.1 862.716 328.632 861.45 327.506 860.089C326.37 858.717 325.775 857.298 325.728 855.822C325.76 856.736 325.691 860.577 325.728 861.586C325.775 863.068 326.37 864.487 327.506 865.853C328.632 867.219 330.1 868.48 331.905 869.641C333.357 870.561 334.914 871.496 336.571 872.453C338.239 873.409 339.822 874.292 341.343 875.09C343.358 876.131 345.557 876.977 347.925 877.628C350.292 878.28 352.765 878.621 355.322 878.653C355.79 878.658 356.263 878.642 356.737 878.621V872.852Z" fill="#3F3F3F"/>
<path opacity="0.2" d="M378.507 859.805C378.48 861.192 377.933 862.611 376.881 864.056C375.75 865.606 373.861 867.145 371.204 868.675C368.553 870.204 365.885 871.291 363.197 871.948C361.003 872.479 358.846 872.773 356.736 872.852V878.616C358.851 878.537 361.003 878.243 363.197 877.712C365.885 877.056 368.553 875.968 371.204 874.439C373.861 872.91 375.75 871.365 376.881 869.82C378.012 868.27 378.554 866.757 378.496 865.28C378.47 864.429 378.528 861.113 378.507 859.805Z" fill="#3F3F3F"/>
<path d="M339.919 856.747C340.214 857.051 340.561 857.361 340.95 857.656C341.129 857.54 341.308 857.425 341.503 857.304C342.566 856.694 343.607 856.279 344.633 856.053C345.659 855.832 346.664 855.754 347.632 855.827C348.605 855.901 349.558 856.09 350.499 856.405C351.436 856.726 352.383 857.12 353.335 857.582C356.413 859.195 359.38 860.903 362.247 862.721C362.621 862.952 362.968 863.194 363.278 863.425C364.036 862.937 364.583 862.453 364.899 861.97C365.288 861.381 365.43 860.798 365.325 860.225C365.22 859.658 364.894 859.101 364.346 858.56C363.794 858.018 363.1 857.482 362.247 856.957C359.38 855.139 356.413 853.426 353.335 851.818C352.383 851.35 351.436 850.956 350.499 850.641C349.558 850.326 348.605 850.136 347.632 850.063C346.659 849.989 345.659 850.068 344.633 850.289C343.607 850.515 342.566 850.935 341.503 851.539C340.445 852.154 339.719 852.753 339.33 853.347C338.941 853.936 338.809 854.514 338.93 855.071C339.062 855.638 339.388 856.19 339.919 856.747Z" fill="#EE4343"/>
<path opacity="0.35" d="M339.919 856.747C340.214 857.051 340.561 857.361 340.95 857.656C341.129 857.54 341.308 857.425 341.503 857.304C342.566 856.694 343.607 856.279 344.633 856.053C345.659 855.832 346.664 855.754 347.632 855.827C348.605 855.901 349.558 856.09 350.499 856.405C351.436 856.726 352.383 857.12 353.335 857.582C356.413 859.195 359.38 860.903 362.247 862.721C362.621 862.952 362.968 863.194 363.278 863.425C364.036 862.937 364.583 862.453 364.899 861.97C365.288 861.381 365.43 860.798 365.325 860.225C365.22 859.658 364.894 859.101 364.346 858.56C363.794 858.018 363.1 857.482 362.247 856.957C359.38 855.139 356.413 853.426 353.335 851.818C352.383 851.35 351.436 850.956 350.499 850.641C349.558 850.326 348.605 850.136 347.632 850.063C346.659 849.989 345.659 850.068 344.633 850.289C343.607 850.515 342.566 850.935 341.503 851.539C340.445 852.154 339.719 852.753 339.33 853.347C338.941 853.936 338.809 854.514 338.93 855.071C339.062 855.638 339.388 856.19 339.919 856.747Z" fill="#3F3F3F"/>
<path d="M333.015 846.648C335.667 845.118 338.34 844.025 341.028 843.374C343.717 842.722 346.342 842.412 348.904 842.439C351.466 842.47 353.934 842.812 356.301 843.463C358.668 844.115 360.862 844.961 362.877 846.001C364.466 846.837 366.097 847.735 367.76 848.692C369.422 849.648 370.943 850.567 372.321 851.445C374.126 852.606 375.593 853.873 376.725 855.239C377.856 856.605 378.45 858.029 378.503 859.505C378.555 860.982 378.019 862.5 376.888 864.045C375.757 865.595 373.863 867.135 371.211 868.664C368.559 870.193 365.887 871.286 363.198 871.938C360.51 872.589 357.885 872.899 355.322 872.873C352.76 872.841 350.293 872.5 347.925 871.848C345.553 871.197 343.364 870.351 341.344 869.31C339.823 868.517 338.234 867.639 336.572 866.678C334.909 865.722 333.352 864.781 331.9 863.861C330.096 862.7 328.628 861.434 327.497 860.068C326.365 858.701 325.771 857.277 325.718 855.801C325.666 854.324 326.208 852.811 327.333 851.261C328.475 849.721 330.364 848.177 333.015 846.648ZM362.246 856.957C359.379 855.144 356.411 853.431 353.334 851.818C352.382 851.35 351.435 850.956 350.498 850.641C349.562 850.326 348.604 850.131 347.631 850.058C346.657 849.989 345.658 850.063 344.632 850.289C343.606 850.515 342.564 850.93 341.502 851.545C340.444 852.154 339.718 852.759 339.329 853.347C338.939 853.941 338.808 854.514 338.929 855.076C339.055 855.638 339.381 856.19 339.913 856.741C340.444 857.293 341.133 857.834 341.98 858.365C344.737 860.162 347.71 861.875 350.893 863.504C351.813 863.993 352.739 864.397 353.676 864.713C354.612 865.028 355.575 865.217 356.564 865.28C357.553 865.343 358.563 865.259 359.589 865.033C360.615 864.807 361.657 864.392 362.72 863.777C363.782 863.168 364.503 862.564 364.892 861.975C365.282 861.387 365.424 860.803 365.319 860.231C365.213 859.658 364.887 859.106 364.34 858.565C363.793 858.024 363.093 857.488 362.246 856.957Z" fill="#EE4343"/>
<path d="M418.651 840.705L411.701 844.709C411.312 844.935 410.833 845.045 410.27 845.045C409.702 845.045 409.228 844.935 408.844 844.709L403.431 841.587L386.721 851.224C386.332 851.445 385.853 851.561 385.29 851.561C384.722 851.561 384.249 851.445 383.859 851.224L378.235 847.982C377.315 847.451 376.783 846.884 376.641 846.269L372.501 825.593C372.474 825.456 372.469 825.335 372.469 825.225C372.469 825.624 372.464 830.784 372.469 831.036C372.469 831.136 372.48 831.241 372.501 831.357L376.641 852.033C376.783 852.648 377.309 853.221 378.235 853.746L383.859 856.988C384.254 857.209 384.727 857.325 385.29 857.325C385.859 857.325 386.337 857.209 386.721 856.988L403.431 847.352L408.844 850.473C409.234 850.699 409.707 850.809 410.27 850.809C410.838 850.809 411.317 850.699 411.701 850.473L418.651 846.469C419.04 846.243 419.235 845.97 419.235 845.639V839.88C419.235 840.205 419.04 840.479 418.651 840.705Z" fill="#EE4343"/>
<path d="M418.388 838.235V832.476C418.388 832.802 418.193 833.08 417.804 833.306L413.242 835.934L418.167 838.771C418.309 838.613 418.388 838.435 418.388 838.235Z" fill="#EE4343"/>
<path d="M386.749 837.426L390.205 839.428L395.209 836.548L385.449 830.915L386.743 837.426H386.749Z" fill="#EE4343"/>
<path opacity="0.35" d="M386.749 837.426L390.205 839.428L395.209 836.548L385.449 830.915L386.743 837.426H386.749Z" fill="#3F3F3F"/>
<path opacity="0.2" d="M418.388 838.235V832.476C418.388 832.802 418.193 833.08 417.804 833.306L413.242 835.934L418.167 838.771C418.309 838.613 418.388 838.435 418.388 838.235Z" fill="#3F3F3F"/>
<path opacity="0.2" d="M418.65 840.705L411.701 844.709C411.311 844.935 410.832 845.045 410.27 845.045V850.809C410.838 850.809 411.316 850.699 411.701 850.473L418.65 846.469C419.04 846.243 419.234 845.97 419.234 845.639V839.88C419.234 840.205 419.04 840.479 418.65 840.705Z" fill="#3F3F3F"/>
<path opacity="0.25" d="M376.641 846.274L372.501 825.598C372.474 825.461 372.469 825.34 372.469 825.23C372.469 825.629 372.464 830.789 372.469 831.042C372.469 831.141 372.48 831.246 372.501 831.362L376.641 852.039C376.667 852.154 376.71 852.27 376.773 852.391V846.621C376.704 846.506 376.662 846.39 376.641 846.274Z" fill="#3F3F3F"/>
<path opacity="0.35" d="M385.285 851.566C384.717 851.566 384.244 851.45 383.854 851.23L378.23 847.987C377.488 847.562 376.994 847.11 376.768 846.621V852.386C376.994 852.869 377.488 853.326 378.23 853.752L383.854 856.994C384.249 857.214 384.722 857.33 385.285 857.33C385.343 857.33 385.39 857.33 385.443 857.32V851.555C385.39 851.566 385.343 851.566 385.285 851.566Z" fill="#3F3F3F"/>
<path opacity="0.2" d="M386.722 851.229C386.37 851.434 385.949 851.545 385.449 851.555V857.314C385.949 857.304 386.37 857.193 386.722 856.988L403.432 847.352V841.593L386.722 851.229Z" fill="#3F3F3F"/>
<path opacity="0.35" d="M408.843 844.714L403.43 841.593V847.357L408.843 850.478C409.233 850.704 409.706 850.814 410.269 850.814V845.05C409.701 845.05 409.227 844.94 408.843 844.714Z" fill="#3F3F3F"/>
<path d="M411.706 844.714C411.316 844.94 410.838 845.05 410.275 845.05C409.707 845.05 409.233 844.94 408.844 844.714L403.43 841.593L386.721 851.229C386.332 851.455 385.858 851.566 385.29 851.566C384.722 851.566 384.248 851.455 383.859 851.229L378.235 847.987C377.314 847.457 376.783 846.884 376.641 846.274L372.505 825.598C372.437 825.188 372.469 824.873 372.611 824.652C372.753 824.426 373.053 824.184 373.516 823.916L381.523 819.298C381.912 819.072 382.391 818.961 382.954 818.961C383.522 818.961 383.996 819.072 384.385 819.298L404.756 831.042L409.317 828.409C409.707 828.183 410.185 828.073 410.748 828.073C411.316 828.073 411.79 828.183 412.179 828.409L417.803 831.651C418.193 831.877 418.387 832.15 418.387 832.476C418.387 832.802 418.193 833.08 417.803 833.301L413.242 835.934L418.65 839.055C419.04 839.281 419.234 839.554 419.234 839.88C419.234 840.205 419.04 840.484 418.65 840.705L411.706 844.714ZM395.207 836.543L385.448 830.915L387.463 841.009L395.207 836.543Z" fill="#EE4343"/>
<rect y="129" width="1440" height="231" fill="url(#paint7_linear)"/>
<rect y="1055" width="926" height="231" transform="rotate(-90 0 1055)" fill="url(#paint8_linear)"/>
<defs>
<linearGradient id="paint0_linear" x1="1189.91" y1="462.958" x2="1190.9" y2="463.055" gradientUnits="userSpaceOnUse">
<stop stop-color="#F8F4F4"/>
<stop offset="1" stop-color="#F8F4F4" stop-opacity="0"/>
</linearGradient>
<linearGradient id="paint1_linear" x1="1213.08" y1="477.492" x2="1214.08" y2="477.589" gradientUnits="userSpaceOnUse">
<stop stop-color="#F8F4F4"/>
<stop offset="1" stop-color="#F8F4F4" stop-opacity="0"/>
</linearGradient>
<linearGradient id="paint2_linear" x1="1236.25" y1="492.027" x2="1237.25" y2="492.123" gradientUnits="userSpaceOnUse">
<stop stop-color="#F8F4F4"/>
<stop offset="1" stop-color="#F8F4F4" stop-opacity="0"/>
</linearGradient>
<linearGradient id="paint3_linear" x1="1259.42" y1="506.561" x2="1260.42" y2="506.657" gradientUnits="userSpaceOnUse">
<stop stop-color="#F8F4F4"/>
<stop offset="1" stop-color="#F8F4F4" stop-opacity="0"/>
</linearGradient>
<linearGradient id="paint4_linear" x1="1282.6" y1="521.095" x2="1283.6" y2="521.192" gradientUnits="userSpaceOnUse">
<stop stop-color="#F8F4F4"/>
<stop offset="1" stop-color="#F8F4F4" stop-opacity="0"/>
</linearGradient>
<linearGradient id="paint5_linear" x1="1305.77" y1="535.63" x2="1306.77" y2="535.726" gradientUnits="userSpaceOnUse">
<stop stop-color="#F8F4F4"/>
<stop offset="1" stop-color="#F8F4F4" stop-opacity="0"/>
</linearGradient>
<linearGradient id="paint6_linear" x1="1328.95" y1="550.164" x2="1329.94" y2="550.261" gradientUnits="userSpaceOnUse">
<stop stop-color="#F8F4F4"/>
<stop offset="1" stop-color="#F8F4F4" stop-opacity="0"/>
</linearGradient>
<linearGradient id="paint7_linear" x1="720" y1="129" x2="720" y2="360" gradientUnits="userSpaceOnUse">
<stop stop-color="white"/>
<stop offset="1" stop-color="white" stop-opacity="0"/>
</linearGradient>
<linearGradient id="paint8_linear" x1="463" y1="1055" x2="463" y2="1286" gradientUnits="userSpaceOnUse">
<stop stop-color="white"/>
<stop offset="1" stop-color="white" stop-opacity="0"/>
</linearGradient>
</defs>
</svg>
