<svg width="92" height="34" viewBox="0 0 92 34" fill="none" xmlns="http://www.w3.org/2000/svg">
<g clip-path="url(#clip0)">
<path d="M28.9988 7.18395L30.2605 6.04436C30.8846 5.48647 31.3142 4.97352 31.5385 4.52138C31.7654 4.06396 31.8789 3.57216 31.8789 3.05657C31.8789 2.46959 31.7141 1.94342 31.3872 1.49393C31.0629 1.04973 30.6117 0.706 30.0417 0.468035C29.4824 0.238001 28.8339 0.119019 28.1153 0.119019C27.2074 0.119019 26.4077 0.293527 25.7349 0.639899C25.0595 0.988915 24.5272 1.47278 24.1517 2.08356L24.0247 2.28979L26.3429 3.5563L26.4644 3.36857C26.6238 3.12532 26.8265 2.93759 27.0696 2.80803C27.3155 2.67847 27.5884 2.61501 27.8829 2.61501C28.2044 2.61501 28.4449 2.67847 28.5989 2.80274C28.7421 2.91644 28.8096 3.07772 28.8096 3.29454C28.8096 3.47433 28.761 3.65942 28.6664 3.84186C28.5665 4.03223 28.3611 4.27284 28.0558 4.5584L24.6083 7.71012L24.584 7.73392V9.64293H32.1248V7.18395H28.9988Z" fill="#EE4343"/>
<path d="M8.7161 34H32.0221V12.1124H27.864V29.9308H12.9012V24.6744H16.6541C18.7075 24.6744 20.4366 23.9975 21.8416 22.6437C23.2438 21.29 23.9463 19.6295 23.9463 17.657C23.9463 15.6872 23.2438 14.0241 21.8416 12.6703C20.4393 11.3166 18.7075 10.6397 16.6541 10.6397H8.69179V20.7823H4.15812V5.92004H22.0875V1.85083H0V24.8542H8.69179V32.1439V34H8.7161ZM12.9012 14.4921H16.6541C17.5484 14.4921 18.2914 14.7909 18.8804 15.3884C19.4694 15.986 19.7666 16.7422 19.7666 17.657C19.7666 18.5534 19.4721 19.3043 18.8804 19.9124C18.2914 20.5206 17.5484 20.822 16.6541 20.822H12.9012V14.4921Z" fill="#EE4343"/>
<path d="M53.6826 9.33353C52.5965 8.86024 51.3104 8.61963 49.8623 8.61963H42.7618V25.2508H46.9173V20.7982H49.8623C51.3077 20.7982 52.5938 20.5576 53.6826 20.0843C54.8039 19.5951 55.6793 18.8786 56.2818 17.9505C56.8843 17.0277 57.1896 15.9357 57.1896 14.7063C57.1896 13.4636 56.8843 12.3689 56.2818 11.4488C55.6766 10.5339 54.8039 9.82003 53.6826 9.33353ZM46.92 12.2473H49.7299C50.8538 12.2473 51.7022 12.4694 52.2453 12.9057C52.7613 13.3181 53.0126 13.9104 53.0126 14.7115C53.0126 15.5127 52.7613 16.1023 52.248 16.5174C51.7022 16.9537 50.8565 17.1758 49.7299 17.1758H46.92V12.2473Z" fill="#3F3F3F"/>
<path d="M74.1571 17.8554L74.2733 17.3266L70.8176 16.2214L70.6799 16.8824C70.5502 17.5064 70.3881 18.0722 70.1935 18.5772L68.0104 16.5387C68.8669 16.0046 69.5046 15.4758 69.9504 14.9311C70.5394 14.2092 70.8393 13.3711 70.8393 12.4404C70.8393 11.2135 70.3772 10.222 69.464 9.49488C68.5886 8.79949 67.4268 8.44519 66.0138 8.44519C64.4927 8.44519 63.2444 8.82858 62.3015 9.58478C61.3234 10.3701 60.8263 11.4118 60.8263 12.6836C60.8263 13.3473 60.983 13.9977 61.2937 14.6138C61.5071 15.0368 61.8178 15.481 62.2258 15.9385C61.1964 16.5651 60.4372 17.197 59.9185 17.8581C59.2673 18.6909 58.935 19.6613 58.935 20.748C58.935 21.6734 59.2295 22.5142 59.8077 23.244C60.367 23.95 61.1397 24.5052 62.1069 24.8965C63.0499 25.2773 64.1198 25.4703 65.2924 25.4703C67.2918 25.4703 69.056 24.9151 70.5475 23.8178L72.609 25.7691L74.9623 23.0642L72.917 21.1526C73.4681 20.2033 73.8842 19.0981 74.1571 17.8554ZM64.6223 12.6387C64.6223 12.332 64.725 12.1019 64.9466 11.9168C65.1951 11.708 65.5437 11.6075 66.0111 11.6075C66.4299 11.6075 66.7487 11.6947 66.9567 11.864C67.1405 12.0147 67.2215 12.205 67.2215 12.4827C67.2215 12.7497 67.1053 13.0009 66.8622 13.2468C66.6784 13.4345 66.3029 13.7386 65.5329 14.1802C65.1168 13.7465 64.9168 13.4848 64.8223 13.3314C64.6899 13.1093 64.6223 12.8819 64.6223 12.6387ZM63.3282 19.3281C63.5902 19.0082 64.0388 18.6618 64.6602 18.297L67.9564 21.3826C67.2269 21.8109 66.4164 22.0198 65.495 22.0198C64.6656 22.0198 64.0036 21.8559 63.5254 21.5307C63.1066 21.2477 62.9121 20.9067 62.9121 20.4598C62.9121 20.042 63.0472 19.6719 63.3282 19.3281Z" fill="#3F3F3F"/>
<path d="M91.2354 11.4541C90.6329 10.5339 89.7575 9.82268 88.6362 9.33353C87.5501 8.86024 86.264 8.61963 84.8158 8.61963H77.7154V25.2508H81.8708V20.7982H84.8158C86.2613 20.7982 87.5474 20.5576 88.6362 20.0843C89.7575 19.5951 90.6329 18.8786 91.2354 17.9505C91.8379 17.0277 92.1432 15.9357 92.1432 14.7063C92.1459 13.4662 91.8406 12.3716 91.2354 11.4541ZM81.8735 12.2473H84.6834C85.8074 12.2473 86.6558 12.4694 87.1988 12.9057C87.7149 13.3181 87.9662 13.9104 87.9662 14.7115C87.9662 15.5127 87.7149 16.1023 87.1988 16.5174C86.6531 16.9537 85.8074 17.1758 84.6807 17.1758H81.8708V12.2473H81.8735Z" fill="#3F3F3F"/>
</g>
<defs>
<clipPath id="clip0">
<rect width="92" height="34" fill="white"/>
</clipPath>
</defs>
</svg>
