<svg width="93" height="34" viewBox="0 0 93 34" fill="none" xmlns="http://www.w3.org/2000/svg">
<path d="M28.9987 7.06494L30.2605 5.92534C30.8846 5.36745 31.3142 4.8545 31.5384 4.40236C31.7654 3.94494 31.8789 3.45315 31.8789 2.93755C31.8789 2.35057 31.7141 1.8244 31.3871 1.37491C31.0629 0.93071 30.6117 0.586982 30.0416 0.349016C29.4823 0.118983 28.8339 0 28.1152 0C27.2074 0 26.4077 0.174508 25.7349 0.52088C25.0595 0.869897 24.5272 1.35376 24.1516 1.96454L24.0247 2.17078L26.3428 3.43728L26.4644 3.24955C26.6238 3.0063 26.8265 2.81857 27.0696 2.68901C27.3155 2.55945 27.5884 2.496 27.8829 2.496C28.2044 2.496 28.4448 2.55945 28.5989 2.68372C28.742 2.79742 28.8096 2.95871 28.8096 3.17552C28.8096 3.35532 28.761 3.5404 28.6664 3.72284C28.5664 3.91321 28.3611 4.15382 28.0558 4.43938L24.6083 7.5911L24.5839 7.6149V9.52391H32.1247V7.06494H28.9987Z" fill="#EE4343"/>
<path d="M8.7161 33.8816H32.0221V11.994H27.864V29.8124H12.9012V24.556H16.6541C18.7075 24.556 20.4366 23.8791 21.8416 22.5253C23.2438 21.1716 23.9463 19.5111 23.9463 17.5386C23.9463 15.5688 23.2438 13.9057 21.8416 12.5519C20.4393 11.1982 18.7075 10.5213 16.6541 10.5213H8.69179V20.6639H4.15812V5.80163H22.0875V1.73242H0V24.7358H8.69179V32.0254V33.8816H8.7161ZM12.9012 14.3737H16.6541C17.5484 14.3737 18.2914 14.6725 18.8804 15.27C19.4694 15.8676 19.7666 16.6238 19.7666 17.5386C19.7666 18.435 19.4721 19.1859 18.8804 19.794C18.2914 20.4021 17.5484 20.7036 16.6541 20.7036H12.9012V14.3737Z" fill="#EE4343"/>
<path d="M53.6826 9.21487C52.5965 8.74159 51.3104 8.50098 49.8623 8.50098H42.7618V25.1321H46.9173V20.6795H49.8623C51.3077 20.6795 52.5938 20.4389 53.6826 19.9656C54.8039 19.4765 55.6793 18.7599 56.2818 17.8319C56.8843 16.9091 57.1896 15.8171 57.1896 14.5876C57.1896 13.3449 56.8843 12.2503 56.2818 11.3301C55.6766 10.4153 54.8039 9.70138 53.6826 9.21487ZM46.92 12.1286H49.7299C50.8538 12.1286 51.7022 12.3507 52.2453 12.787C52.7613 13.1995 53.0126 13.7917 53.0126 14.5929C53.0126 15.394 52.7613 15.9837 52.248 16.3988C51.7022 16.8351 50.8565 17.0572 49.7299 17.0572H46.92V12.1286Z" fill="white"/>
<path d="M74.1572 17.7364L74.2733 17.2076L70.8177 16.1024L70.6799 16.7634C70.5502 17.3874 70.3881 17.9532 70.1936 18.4582L68.0105 16.4196C68.867 15.8855 69.5046 15.3567 69.9504 14.8121C70.5394 14.0902 70.8393 13.2521 70.8393 12.3213C70.8393 11.0945 70.3773 10.103 69.4641 9.37586C68.5887 8.68048 67.4269 8.32617 66.0139 8.32617C64.4927 8.32617 63.2445 8.70956 62.3015 9.46576C61.3235 10.251 60.8263 11.2928 60.8263 12.5646C60.8263 13.2283 60.983 13.8787 61.2938 14.4948C61.5072 14.9178 61.8179 15.362 62.2259 15.8194C61.1965 16.4461 60.4373 17.078 59.9185 17.739C59.2674 18.5719 58.9351 19.5423 58.9351 20.629C58.9351 21.5544 59.2296 22.3952 59.8077 23.125C60.367 23.831 61.1397 24.3862 62.107 24.7775C63.0499 25.1583 64.1199 25.3513 65.2925 25.3513C67.2918 25.3513 69.0561 24.796 70.5475 23.6988L72.609 25.6501L74.9623 22.9452L72.917 21.0335C73.4682 20.0843 73.8843 18.9791 74.1572 17.7364ZM64.6224 12.5197C64.6224 12.2129 64.7251 11.9829 64.9466 11.7978C65.1952 11.5889 65.5437 11.4885 66.0112 11.4885C66.4299 11.4885 66.7488 11.5757 66.9568 11.7449C67.1405 11.8957 67.2216 12.086 67.2216 12.3637C67.2216 12.6307 67.1054 12.8819 66.8622 13.1278C66.6785 13.3155 66.3029 13.6196 65.5329 14.0611C65.1168 13.6275 64.9169 13.3658 64.8223 13.2124C64.69 12.9903 64.6224 12.7629 64.6224 12.5197ZM63.3282 19.2091C63.5903 18.8892 64.0388 18.5428 64.6602 18.1779L67.9565 21.2636C67.227 21.6919 66.4164 21.9008 65.4951 21.9008C64.6656 21.9008 64.0037 21.7369 63.5255 21.4116C63.1067 21.1287 62.9122 20.7876 62.9122 20.3408C62.9122 19.923 63.0472 19.5529 63.3282 19.2091Z" fill="white"/>
<path d="M91.2354 11.3354C90.6329 10.4153 89.7575 9.70403 88.6362 9.21487C87.5501 8.74159 86.264 8.50098 84.8159 8.50098H77.7155V25.1321H81.8709V20.6795H84.8159C86.2613 20.6795 87.5474 20.4389 88.6362 19.9656C89.7575 19.4765 90.6329 18.7599 91.2354 17.8319C91.8379 16.9091 92.1432 15.8171 92.1432 14.5876C92.1459 13.3475 91.8406 12.2529 91.2354 11.3354ZM81.8736 12.1286H84.6835C85.8074 12.1286 86.6558 12.3507 87.1989 12.787C87.7149 13.1995 87.9662 13.7917 87.9662 14.5929C87.9662 15.394 87.7149 15.9837 87.1989 16.3988C86.6531 16.8351 85.8074 17.0572 84.6808 17.0572H81.8709V12.1286H81.8736Z" fill="white"/>
</svg>
