<svg width="68" height="32" viewBox="0 0 68 32" fill="none" xmlns="http://www.w3.org/2000/svg">
<g clip-path="url(#clip0)">
<path d="M26.4609 8.47742V10.4491H25.8512V5.23026H27.2859C27.7542 5.20098 28.2168 5.3462 28.5841 5.63784C28.7409 5.78381 28.8634 5.96255 28.943 6.16131C29.0225 6.36006 29.0572 6.57392 29.0444 6.7876C29.0518 7.01494 29.0099 7.2412 28.9216 7.45088C28.8333 7.66056 28.7008 7.84871 28.533 8.00247C28.1507 8.33242 27.6555 8.50182 27.1511 8.47518L26.4609 8.47742ZM26.4609 5.78268V7.92163H27.1016C27.4484 7.9457 27.7922 7.84294 28.0688 7.63251C28.1816 7.52978 28.2701 7.4032 28.3277 7.26198C28.3854 7.12077 28.4108 6.96849 28.402 6.81623C28.402 6.1272 27.994 5.78268 27.178 5.78268H26.4609Z" fill="white"/>
<path d="M31.2277 10.5339C30.9832 10.5452 30.7391 10.5045 30.5115 10.4145C30.284 10.3245 30.0781 10.1872 29.9076 10.0118C29.5673 9.63336 29.39 9.13615 29.4142 8.62798C29.3984 8.36176 29.4357 8.09507 29.5239 7.84335C29.612 7.59164 29.7493 7.35991 29.9278 7.16159C30.11 6.9826 30.3274 6.84334 30.5662 6.7526C30.8051 6.66186 31.0601 6.62162 31.3154 6.63443C31.5566 6.62099 31.7978 6.65984 32.0226 6.74832C32.2473 6.83679 32.4503 6.97279 32.6175 7.14699C32.9485 7.54469 33.1156 8.05329 33.085 8.56959C33.1104 9.09332 32.9287 9.60603 32.5793 9.99724C32.405 10.1774 32.1944 10.3185 31.9614 10.4111C31.7283 10.5036 31.4782 10.5455 31.2277 10.5339ZM31.2715 7.13633C31.0999 7.1287 30.9288 7.16011 30.7711 7.22819C30.6133 7.29626 30.4732 7.39923 30.3611 7.52931C30.1214 7.83599 30.0015 8.21931 30.0239 8.60777C30.002 8.9855 30.1223 9.35776 30.3611 9.65141C30.4744 9.7782 30.6146 9.87827 30.7713 9.94439C30.9281 10.0105 31.0976 10.041 31.2676 10.0337C31.4348 10.0437 31.6021 10.015 31.7565 9.94998C31.9108 9.88495 32.0482 9.78528 32.1578 9.65871C32.3837 9.3507 32.4941 8.97314 32.4697 8.59205C32.4942 8.20781 32.3839 7.82703 32.1578 7.51527C32.0492 7.38827 31.9127 7.288 31.759 7.22227C31.6053 7.15655 31.4385 7.12714 31.2715 7.13633Z" fill="white"/>
<path d="M37.2219 10.1486C37.2219 11.5162 36.5662 12.2 35.2549 12.2C34.837 12.2096 34.4227 12.1199 34.0461 11.9383V11.3404C34.4101 11.557 34.8236 11.677 35.2471 11.6891C36.165 11.6891 36.6237 11.2025 36.6234 10.2294V9.82185H36.6093C36.4861 10.0204 36.3184 10.1876 36.1194 10.3103C35.9204 10.433 35.6956 10.5077 35.4627 10.5287C35.2298 10.5496 34.9952 10.5162 34.7774 10.4311C34.5597 10.3459 34.3647 10.2113 34.208 10.038C33.9092 9.65971 33.7584 9.18581 33.7837 8.70465C33.7549 8.1636 33.9165 7.62954 34.2406 7.19504C34.3908 7.01043 34.5821 6.86351 34.7994 6.76602C35.0166 6.66854 35.2536 6.6232 35.4915 6.63364C35.7155 6.62144 35.9385 6.67142 36.1358 6.77804C36.3331 6.88466 36.497 7.04376 36.6093 7.23771H36.6234V6.72065H37.2213L37.2219 10.1486ZM36.6239 8.76248V8.21343C36.6265 8.07314 36.6012 7.93374 36.5497 7.80321C36.4982 7.67268 36.4215 7.55357 36.3238 7.45272C36.2286 7.35008 36.1126 7.26883 35.9836 7.21434C35.8545 7.15985 35.7153 7.13337 35.5753 7.13665C35.4092 7.12942 35.2437 7.16216 35.0929 7.23211C34.9421 7.30206 34.8104 7.40718 34.7087 7.53862C34.4818 7.86873 34.3718 8.26511 34.3962 8.66479C34.3778 9.02112 34.4839 9.37278 34.6963 9.6596C34.7903 9.77987 34.9113 9.8763 35.0496 9.94107C35.1879 10.0058 35.3395 10.0371 35.4921 10.0324C35.6462 10.0373 35.7996 10.0078 35.9409 9.94613C36.0822 9.88447 36.208 9.79216 36.3092 9.67588C36.5252 9.42166 36.6375 9.09561 36.6239 8.76248Z" fill="white"/>
<path d="M41.0996 10.4462H40.5027V9.86454H40.4876C40.3786 10.0729 40.213 10.2462 40.0098 10.3646C39.8066 10.483 39.574 10.5416 39.3389 10.5337C39.021 10.5524 38.7084 10.4467 38.4672 10.239C38.3619 10.1386 38.2793 10.0169 38.2249 9.88204C38.1706 9.74716 38.1457 9.60223 38.152 9.45696C38.152 8.76082 38.5624 8.35586 39.3833 8.24209L40.501 8.08545C40.501 7.45219 40.245 7.13575 39.7328 7.13612C39.285 7.13543 38.8525 7.29836 38.5167 7.59423V6.98342C38.8961 6.74684 39.3362 6.62552 39.7834 6.63423C40.6601 6.63423 41.0982 7.09738 41.0979 8.0237L41.0996 10.4462ZM40.5027 8.56209L39.6036 8.68559C39.382 8.70598 39.168 8.77622 38.9775 8.89107C38.9017 8.95374 38.8426 9.03428 38.8058 9.12543C38.7689 9.21658 38.7553 9.31546 38.7662 9.41317C38.7636 9.49727 38.7797 9.5809 38.8134 9.658C38.8471 9.7351 38.8976 9.80374 38.9612 9.85893C39.1063 9.9795 39.2914 10.0412 39.4799 10.0318C39.6174 10.0358 39.754 10.01 39.8806 9.95635C40.0072 9.90267 40.1207 9.82233 40.2133 9.72082C40.4089 9.50666 40.513 9.22461 40.5033 8.93486L40.5027 8.56209Z" fill="white"/>
<path d="M44.1719 7.32591C44.0391 7.23797 43.8813 7.19579 43.7223 7.20577C43.5939 7.20717 43.468 7.24095 43.3562 7.30396C43.2444 7.36696 43.1503 7.45717 43.0828 7.56619C42.8972 7.85888 42.8076 8.20212 42.8265 8.54808V10.4468H42.2246V6.72184H42.8231V7.48928H42.8372C42.9065 7.25234 43.0418 7.03994 43.2272 6.87679C43.3892 6.73451 43.5976 6.65608 43.8133 6.65615C43.9344 6.65102 44.0554 6.66834 44.1702 6.70724L44.1719 7.32591Z" fill="white"/>
<path d="M44.6428 10.3125V9.67194C44.9515 9.90662 45.3289 10.0333 45.7168 10.0324C46.2413 10.0324 46.5035 9.85776 46.5035 9.50857C46.5066 9.4193 46.4829 9.33114 46.4355 9.25538C46.3873 9.18302 46.3255 9.12068 46.2535 9.0718C46.1692 9.01438 46.0789 8.9662 45.9843 8.92808C45.8809 8.88598 45.7702 8.84162 45.651 8.79559C45.5024 8.73753 45.3572 8.67118 45.216 8.59685C45.1009 8.53802 44.9952 8.46233 44.9025 8.37229C44.8204 8.29101 44.7559 8.19375 44.7131 8.08654C44.6685 7.96682 44.647 7.83978 44.6496 7.71208C44.6463 7.54941 44.6879 7.38898 44.7698 7.24836C44.8505 7.11393 44.9599 6.99892 45.0902 6.91152C45.2298 6.81779 45.3842 6.74832 45.5471 6.70605C45.7199 6.65985 45.8981 6.63663 46.077 6.63699C46.3745 6.63222 46.6696 6.68959 46.9436 6.80541V7.40892C46.6616 7.22745 46.332 7.13385 45.9966 7.14001C45.8948 7.13857 45.7932 7.15142 45.6949 7.17819C45.612 7.20016 45.5336 7.23645 45.4633 7.28541C45.4016 7.32863 45.3505 7.38526 45.3138 7.45103C45.2787 7.5164 45.2607 7.5896 45.2616 7.6638C45.2588 7.74807 45.2767 7.83173 45.3138 7.90745C45.3522 7.97626 45.4051 8.03585 45.4689 8.08205C45.5454 8.13801 45.6284 8.18439 45.7162 8.22015C45.8136 8.26169 45.9241 8.30661 46.0478 8.35489C46.1993 8.41181 46.3477 8.47684 46.4923 8.54969C46.6142 8.60928 46.7276 8.68479 46.8295 8.77426C46.9199 8.85476 46.9924 8.95324 47.0425 9.06338C47.0985 9.20292 47.1233 9.353 47.1152 9.50312C47.107 9.65324 47.0661 9.79977 46.9953 9.93243C46.9135 10.0679 46.8021 10.183 46.6693 10.2693C46.5253 10.3622 46.3664 10.4298 46.1995 10.4691C46.017 10.5135 45.8298 10.5356 45.642 10.5348C45.2958 10.5434 44.9527 10.4671 44.6428 10.3125Z" fill="white"/>
<path d="M51.1281 10.4463H50.2908L48.6447 8.65655H48.6307V10.4463H48.0327V4.93164H48.6307V8.4275H48.6447L50.2104 6.7214H50.9938L49.264 8.51789L51.1281 10.4463Z" fill="white"/>
<path d="M54.4095 10.4462H53.8122V9.86454H53.7975C53.6887 10.0725 53.5233 10.2457 53.3205 10.364C53.1176 10.4824 52.8854 10.5412 52.6505 10.5337C52.3325 10.5524 52.0197 10.4467 51.7783 10.239C51.6731 10.1386 51.5906 10.0169 51.5363 9.88199C51.482 9.74711 51.4572 9.60219 51.4636 9.45696C51.4636 8.76082 51.8739 8.35586 52.6944 8.24208L53.8122 8.08545C53.8122 7.45219 53.5561 7.13574 53.0439 7.13612C52.5962 7.13553 52.1637 7.29845 51.8278 7.59422V6.98341C52.2075 6.74688 52.6477 6.62557 53.0951 6.63422C53.9718 6.63422 54.4099 7.09738 54.4095 8.02369V10.4462ZM53.8122 8.56208L52.913 8.68559C52.6914 8.70597 52.4774 8.77622 52.2869 8.89106C52.2111 8.95373 52.1521 9.03427 52.1152 9.12542C52.0783 9.21657 52.0647 9.31546 52.0756 9.41317C52.073 9.49721 52.0891 9.58077 52.1228 9.65785C52.1564 9.73493 52.2067 9.8036 52.2701 9.85892C52.4152 9.97945 52.6003 10.0412 52.7888 10.0318C52.9263 10.0357 53.063 10.0099 53.1897 9.9562C53.3163 9.90254 53.4299 9.82225 53.5227 9.72082C53.7182 9.5066 53.8221 9.22453 53.8122 8.93485V8.56208Z" fill="white"/>
<path d="M58.5025 6.72168L56.7873 11.0445C56.4816 11.8159 56.0519 12.2014 55.4982 12.201C55.3667 12.2043 55.2355 12.1884 55.1087 12.1538V11.621C55.2222 11.6618 55.3416 11.6839 55.4622 11.6867C55.6173 11.6802 55.7662 11.6245 55.8875 11.5277C56.0087 11.4309 56.096 11.298 56.1366 11.1483L56.435 10.4421L54.9789 6.72449H55.6409L56.6525 9.59101C56.6654 9.6275 56.6907 9.72182 56.7295 9.87171H56.7514C56.7634 9.81408 56.7875 9.72201 56.8239 9.5955L57.8843 6.72168H58.5025Z" fill="white"/>
<path d="M61.8126 10.4462H61.2152V9.86455H61.2C61.0911 10.0725 60.9257 10.2456 60.7229 10.364C60.52 10.4823 60.2878 10.5412 60.053 10.5337C59.735 10.5524 59.4222 10.4467 59.1808 10.239C59.0756 10.1386 58.993 10.0169 58.9388 9.882C58.8845 9.74712 58.8597 9.6022 58.8661 9.45697C58.8661 8.76083 59.2763 8.35587 60.0968 8.24209L61.2146 8.08546C61.2146 7.4522 60.9585 7.13575 60.4464 7.13613C59.9986 7.13554 59.5661 7.29846 59.2303 7.59423V6.98343C59.6099 6.74677 60.0502 6.62545 60.4975 6.63423C61.3742 6.63423 61.8124 7.09739 61.812 8.02371L61.8126 10.4462ZM61.2152 8.56209L60.316 8.6856C60.0943 8.706 59.8801 8.77624 59.6894 8.89108C59.6136 8.95374 59.5545 9.03429 59.5177 9.12543C59.4808 9.21658 59.4672 9.31547 59.4781 9.41318C59.4756 9.49726 59.4918 9.58084 59.5255 9.65791C59.5593 9.73499 59.6097 9.80364 59.6731 9.85894C59.8182 9.97946 60.0033 10.0412 60.1918 10.0318C60.3293 10.0356 60.466 10.0098 60.5927 9.95611C60.7193 9.90245 60.8329 9.82221 60.9258 9.72083C61.121 9.50649 61.2249 9.22451 61.2152 8.93487V8.56209Z" fill="white"/>
<path d="M29.8907 19.3865H29.2136L28.6611 17.924H26.4469L25.9259 19.3865H25.2443L27.2472 14.1699H27.8811L29.8907 19.3865ZM28.4599 17.3744L27.6406 15.1518C27.6039 15.0379 27.5772 14.9211 27.5608 14.8026H27.5456C27.5284 14.9213 27.5006 15.0382 27.4624 15.1518L26.6498 17.3744H28.4599Z" fill="white"/>
<path d="M31.1766 19.3873H30.5792V13.8721H31.1766V19.3873Z" fill="white"/>
<path d="M32.6911 14.7163C32.6406 14.7171 32.5905 14.708 32.5436 14.6893C32.4967 14.6706 32.454 14.6427 32.418 14.6073C32.381 14.5716 32.3519 14.5285 32.3325 14.4808C32.3131 14.4332 32.304 14.382 32.3056 14.3306C32.3046 14.2795 32.3139 14.2287 32.3329 14.1813C32.3519 14.1339 32.3803 14.0908 32.4163 14.0545C32.4523 14.0182 32.4952 13.9895 32.5425 13.9701C32.5898 13.9507 32.6405 13.941 32.6917 13.9415C32.7437 13.9403 32.7954 13.9496 32.8437 13.9689C32.892 13.9882 32.9359 14.0171 32.9727 14.0538C33.009 14.0899 33.0378 14.1329 33.0575 14.1802C33.0772 14.2275 33.0873 14.2782 33.0873 14.3294C33.0873 14.3807 33.0772 14.4314 33.0575 14.4787C33.0378 14.526 33.009 14.5689 32.9727 14.6051C32.9358 14.6418 32.8918 14.6706 32.8434 14.6897C32.795 14.7088 32.7432 14.7179 32.6911 14.7163ZM32.9828 19.3871H32.3854V15.6633H32.9828V19.3871Z" fill="white"/>
<path d="M33.9657 19.2524V18.6118C34.2744 18.8465 34.6518 18.9731 35.0396 18.9722C35.5642 18.9722 35.8264 18.7976 35.8264 18.4484C35.8294 18.3594 35.8057 18.2714 35.7584 18.1958C35.7101 18.1234 35.6483 18.0609 35.5763 18.0117C35.4921 17.9542 35.4019 17.9062 35.3071 17.8685C35.2037 17.8258 35.093 17.7815 34.9739 17.7355C34.8254 17.6773 34.6802 17.6112 34.5389 17.5373C34.4239 17.4782 34.3182 17.4026 34.2253 17.3127C34.1433 17.2316 34.0789 17.1345 34.0359 17.0275C33.9914 16.9076 33.9699 16.7804 33.9724 16.6525C33.9692 16.4898 34.0108 16.3294 34.0927 16.1888C34.1734 16.0544 34.2828 15.9394 34.413 15.8519C34.5526 15.7582 34.7071 15.6887 34.8699 15.6465C35.0428 15.6003 35.221 15.5771 35.3999 15.5774C35.6973 15.5727 35.9925 15.63 36.2665 15.7458V16.3499C35.9847 16.168 35.655 16.0741 35.3195 16.0804C35.2176 16.0793 35.1161 16.0921 35.0177 16.1186C34.9348 16.1408 34.8565 16.1773 34.7862 16.2264C34.7247 16.2696 34.6736 16.326 34.6367 16.3915C34.6016 16.4569 34.5837 16.53 34.5844 16.6042C34.5816 16.6885 34.5995 16.7722 34.6367 16.8479C34.6749 16.9168 34.7278 16.9764 34.7918 17.0225C34.8684 17.0784 34.9514 17.125 35.0391 17.1611C35.1365 17.2023 35.247 17.247 35.3707 17.2953C35.5221 17.3525 35.6705 17.4175 35.8152 17.4901C35.9371 17.5497 36.0504 17.6252 36.1524 17.7147C36.2425 17.7954 36.315 17.8938 36.3654 18.0038C36.4176 18.1267 36.4429 18.2594 36.4395 18.3929C36.4437 18.5611 36.4017 18.7273 36.3182 18.8734C36.2364 19.0089 36.125 19.1241 35.9922 19.2103C35.8482 19.3034 35.6893 19.3712 35.5224 19.4107C35.3398 19.4546 35.1527 19.4765 34.9649 19.4758C34.6185 19.4843 34.2754 19.4076 33.9657 19.2524Z" fill="white"/>
<path d="M40.0251 19.3871H39.4283V18.8072H39.4131C39.3042 19.0152 39.1389 19.1883 38.936 19.3067C38.7331 19.4251 38.5009 19.4839 38.2661 19.4764C37.9483 19.495 37.6358 19.3895 37.3945 19.1822C37.2892 19.0817 37.2066 18.9599 37.1522 18.8249C37.0979 18.69 37.073 18.545 37.0792 18.3996C37.0792 17.7035 37.4894 17.2985 38.3099 17.1848L39.4283 17.0287C39.4283 16.3954 39.1722 16.0788 38.66 16.0788C38.212 16.0782 37.7793 16.2413 37.4433 16.5375V15.9238C37.823 15.6873 38.2633 15.566 38.7106 15.5747C39.5873 15.5747 40.0255 16.0378 40.0251 16.9641V19.3871ZM39.4283 17.5025L38.5291 17.626C38.3075 17.6463 38.0933 17.7167 37.903 17.8321C37.8273 17.8946 37.7683 17.9751 37.7314 18.0661C37.6945 18.1572 37.6809 18.256 37.6917 18.3536C37.6891 18.4377 37.7052 18.5213 37.7389 18.5985C37.7726 18.6756 37.8231 18.7442 37.8868 18.7994C38.0317 18.9198 38.2166 18.9816 38.4049 18.9723C38.5424 18.9761 38.6791 18.9503 38.8058 18.8966C38.9324 18.843 39.046 18.7627 39.1388 18.6613C39.3346 18.4472 39.4386 18.1651 39.4288 17.8753L39.4283 17.5025Z" fill="white"/>
<path d="M9.52845 19.4542H5.57996L10.9463 5.29395H14.9966L20.3629 19.4542H16.4139L15.5023 16.9279H10.44L9.52845 19.4542ZM11.3521 14.2961H14.5919L12.9712 9.54377L11.3521 14.2961Z" fill="white"/>
<path opacity="0.5" d="M67.8511 0.584961H0.307983V24.1639H67.8511V0.584961Z" stroke="white" stroke-width="0.5" stroke-miterlimit="10"/>
<path d="M32.6974 31.2883C32.4372 31.4149 32.1499 31.476 31.8606 31.4663C31.6683 31.4747 31.4765 31.442 31.2979 31.3702C31.1194 31.2985 30.9583 31.1894 30.8254 31.0503C30.5579 30.7513 30.4183 30.3595 30.4365 29.9589C30.4273 29.744 30.4612 29.5294 30.5363 29.3278C30.6114 29.1262 30.7261 28.9416 30.8737 28.785C31.0174 28.6373 31.1901 28.5212 31.3811 28.4439C31.5721 28.3665 31.7771 28.3298 31.9831 28.3359C32.2272 28.3281 32.4703 28.3703 32.6974 28.4599V28.8378C32.4777 28.7163 32.2302 28.6539 31.9792 28.6564C31.8214 28.6506 31.6642 28.6787 31.5182 28.7387C31.3722 28.7987 31.2408 28.8894 31.1328 29.0045C30.9078 29.2609 30.7915 29.5947 30.8086 29.9353C30.7919 30.2571 30.9005 30.5729 31.1115 30.8167C31.2127 30.9254 31.3361 31.0109 31.4735 31.0675C31.6108 31.1241 31.7588 31.1504 31.9072 31.1446C32.1843 31.1516 32.4578 31.0817 32.6974 30.9425V31.2883Z" fill="white"/>
<path d="M35.6601 31.4148H35.2667L34.9458 30.5665H33.6628L33.361 31.4148H32.9677L34.1293 28.3877H34.4968L35.6601 31.4148ZM34.8289 30.2476L34.3535 28.9564C34.3327 28.8902 34.3173 28.8224 34.3074 28.7537H34.299C34.2887 28.8225 34.2725 28.8903 34.2507 28.9564L33.7792 30.2476H34.8289Z" fill="white"/>
<path d="M38.5476 31.4154H38.193V29.2288C38.1895 29.0897 38.1968 28.9506 38.2149 28.8127H38.202C38.1764 28.8794 38.1438 28.9432 38.1047 29.0031L36.5452 31.4171H36.1063V28.3883H36.4604V30.5217C36.4641 30.6703 36.4587 30.8189 36.4441 30.9669H36.4525C36.4879 30.8972 36.5275 30.8297 36.5711 30.7648L38.0924 28.3895H38.5481L38.5476 31.4154ZM38.098 27.4688C38.0917 27.559 38.0672 27.6471 38.0261 27.7278C37.985 27.8084 37.928 27.8799 37.8586 27.9381C37.7112 28.0559 37.5263 28.1169 37.3376 28.1099C37.1481 28.1184 36.962 28.0573 36.8144 27.9381C36.747 27.8795 36.6926 27.8075 36.6547 27.7266C36.6167 27.6458 36.5961 27.558 36.5941 27.4688H36.9358C36.932 27.5226 36.94 27.5767 36.9591 27.6272C36.9783 27.6777 37.0083 27.7234 37.047 27.7612C37.0856 27.799 37.1321 27.8279 37.183 27.8459C37.234 27.8639 37.2883 27.8707 37.3421 27.8657C37.3936 27.8676 37.4449 27.8593 37.4931 27.8413C37.5414 27.8233 37.5856 27.7959 37.6231 27.7607C37.7005 27.6819 37.7481 27.5787 37.758 27.4688H38.098Z" fill="white"/>
<path d="M41.1373 28.7094H40.2634V31.4148H39.9088V28.7094H39.036V28.3877H41.1373V28.7094Z" fill="white"/>
<path d="M43.6622 30.2714V31.415H43.307V28.3879H44.1399C44.4114 28.3708 44.6797 28.4552 44.8924 28.6248C44.9834 28.7094 45.0546 28.8131 45.1009 28.9284C45.1471 29.0437 45.1673 29.1678 45.1599 29.2918C45.164 29.4237 45.1397 29.5549 45.0886 29.6766C45.0375 29.7982 44.9608 29.9075 44.8637 29.9969C44.6417 30.1885 44.3541 30.2868 44.0612 30.2714H43.6622ZM43.6622 28.7096V29.9503H44.0336C44.2352 29.9642 44.435 29.9043 44.5956 29.7819C44.6611 29.7223 44.7125 29.6488 44.7459 29.5668C44.7794 29.4848 44.7941 29.3964 44.789 29.3081C44.789 28.9083 44.5522 28.7087 44.0786 28.709L43.6622 28.7096Z" fill="white"/>
<path d="M47.7383 31.4148H47.3449L47.0234 30.5665H45.7388L45.437 31.4148H45.0436L46.2052 28.3877H46.5733L47.7383 31.4148ZM46.9071 30.2476L46.4322 28.9564C46.4109 28.8903 46.3955 28.8225 46.3862 28.7537H46.3772C46.3672 28.8226 46.351 28.8904 46.3288 28.9564L45.8573 30.2476H46.9071Z" fill="white"/>
<path d="M47.9895 31.2878V30.9044C48.2226 31.0759 48.5053 31.1669 48.7948 31.1638C48.9815 31.1737 49.1658 31.1177 49.3152 31.0055C49.3784 30.9544 49.4288 30.8892 49.4624 30.8153C49.496 30.7413 49.5118 30.6605 49.5085 30.5793C49.5085 30.1901 49.2463 29.9959 48.7218 29.9966H48.4065V29.703H48.6965C48.8816 29.7143 49.0652 29.6628 49.2174 29.557C49.2787 29.508 49.3274 29.4451 49.3595 29.3735C49.3917 29.302 49.4063 29.2238 49.4023 29.1455C49.4051 29.0772 49.3928 29.0091 49.3663 28.946C49.3398 28.8829 49.2997 28.8265 49.2489 28.7806C49.1304 28.6837 48.9798 28.6346 48.8269 28.6431C48.5621 28.6467 48.3046 28.7299 48.0879 28.8817V28.5235C48.3237 28.3962 48.5886 28.3322 48.8566 28.3377C49.0998 28.3236 49.3401 28.396 49.535 28.542C49.615 28.6066 49.6791 28.6888 49.7221 28.7822C49.7651 28.8756 49.7859 28.9776 49.7828 29.0804C49.7957 29.2534 49.744 29.425 49.6378 29.5621C49.5315 29.6993 49.3782 29.7923 49.2073 29.8231V29.8321C49.3962 29.8463 49.5731 29.9297 49.7041 30.0662C49.8273 30.1999 49.8933 30.3764 49.8879 30.558C49.8928 30.6835 49.8687 30.8085 49.8175 30.9232C49.7662 31.0379 49.6891 31.1392 49.5923 31.2193C49.3603 31.3947 49.0735 31.4821 48.783 31.4658C48.5071 31.4819 48.2321 31.4203 47.9895 31.2878Z" fill="white"/>
<path d="M50.8758 30.2715V31.415H50.5223V28.3879H51.3546C51.6264 28.3707 51.8949 28.4552 52.1077 28.6249C52.1988 28.7094 52.27 28.8131 52.3162 28.9284C52.3625 29.0437 52.3826 29.1678 52.3752 29.2918C52.3794 29.4237 52.3551 29.5549 52.304 29.6766C52.2529 29.7982 52.1761 29.9075 52.079 29.9969C51.857 30.1885 51.5695 30.2869 51.2765 30.2715H50.8758ZM50.8758 28.7096V29.9503H51.2473C51.4489 29.9642 51.6486 29.9043 51.8093 29.7819C51.8748 29.7223 51.9261 29.6488 51.9596 29.5668C51.993 29.4849 52.0077 29.3965 52.0026 29.3081C52.0026 28.9084 51.7658 28.7087 51.2923 28.7091L50.8758 28.7096Z" fill="white"/>
<path d="M54.9518 31.4148H54.5584L54.237 30.5665H52.9523L52.6505 31.4148H52.2571L53.4187 28.3877H53.7868L54.9518 31.4148ZM54.1189 30.2476L53.6441 28.9564C53.6228 28.8903 53.6073 28.8225 53.598 28.7537H53.589C53.579 28.8226 53.5628 28.8904 53.5407 28.9564L53.0691 30.2476H54.1189Z" fill="white"/>
<path d="M55.3976 31.4148V28.3877H57.0161V28.7094H55.7528V29.6716H56.3271C56.5805 29.6559 56.8309 29.7336 57.0307 29.89C57.1163 29.9683 57.1833 30.0648 57.2268 30.1723C57.2702 30.2799 57.2891 30.3957 57.2819 30.5115C57.2881 30.634 57.2678 30.7564 57.2223 30.8703C57.1768 30.9843 57.1073 31.0871 57.0183 31.1717C56.8182 31.3423 56.56 31.4294 56.2973 31.4148H55.3976ZM55.7528 29.9922V31.0942H56.2507C56.4254 31.1053 56.5983 31.0529 56.7373 30.9466C56.7945 30.8945 56.8393 30.8303 56.8685 30.7588C56.8977 30.6872 56.9105 30.61 56.9059 30.5328C56.9059 30.1724 56.6868 29.9922 56.2484 29.9922H55.7528Z" fill="white"/>
<path d="M59.0398 31.4658C58.8473 31.474 58.6553 31.4402 58.4772 31.3669C58.299 31.2937 58.1389 31.1826 58.008 31.0414C57.7413 30.7369 57.6024 30.3413 57.6202 29.9371C57.598 29.5129 57.7387 29.0962 58.0136 28.7722C58.1505 28.626 58.3177 28.5114 58.5034 28.4364C58.6892 28.3613 58.8891 28.3276 59.0892 28.3377C59.2784 28.3303 59.467 28.3642 59.6417 28.4371C59.8164 28.51 59.9731 28.6202 60.1008 28.7598C60.3652 29.065 60.5024 29.4598 60.4841 29.863C60.5075 30.2894 60.3667 30.7086 60.0907 31.0346C59.9572 31.1782 59.7941 31.2911 59.6126 31.3656C59.4312 31.44 59.2357 31.4742 59.0398 31.4658ZM59.0656 28.6588C58.9188 28.6541 58.7727 28.6826 58.6384 28.7422C58.5042 28.8018 58.3851 28.8909 58.2901 29.0029C58.0979 29.2641 57.9936 29.5795 57.9923 29.9036C57.991 30.2278 58.0927 30.544 58.2828 30.8067C58.3748 30.9171 58.4908 31.0051 58.622 31.0641C58.7531 31.123 58.896 31.1514 59.0398 31.1469C59.1868 31.1542 59.3337 31.1289 59.4697 31.0727C59.6058 31.0165 59.7276 30.9308 59.8266 30.8219C60.0315 30.5646 60.1336 30.2405 60.1132 29.9124C60.1339 29.5799 60.0341 29.2511 59.8322 28.9861C59.7374 28.877 59.6191 28.7907 59.4861 28.734C59.3531 28.6772 59.209 28.6513 59.0645 28.6582L59.0656 28.6588Z" fill="white"/>
<path d="M62.6741 28.7094H61.7991V31.4148H61.445V28.7094H60.5723V28.3877H62.6741V28.7094Z" fill="white"/>
<path d="M65.1693 31.4148H64.7759L64.455 30.5665H63.1703L62.868 31.4148H62.4746L63.6368 28.3877H64.0043L65.1693 31.4148ZM64.3393 30.2476L63.8638 28.9564C63.8425 28.8903 63.8269 28.8225 63.8172 28.7537H63.8093C63.7989 28.8226 63.7825 28.8904 63.7604 28.9564L63.2895 30.2476H64.3393Z" fill="white"/>
<path d="M67.8932 31.4148H67.538V30.0349H65.9701V31.4153H65.6155V28.3877H65.9701V29.716H67.538V28.3877H67.8932V31.4148Z" fill="white"/>
</g>
<defs>
<clipPath id="clip0">
<rect width="68" height="32" fill="white"/>
</clipPath>
</defs>
</svg>
